<svg width="35" height="35" viewBox="0 0 35 35" fill="none" xmlns="http://www.w3.org/2000/svg">
<path d="M32.8374 26.2196C31.1394 26.8197 29.3122 27.1462 27.4087 27.1462C18.4132 27.1462 11.1209 19.854 11.1209 10.8585C11.1209 7.52798 12.1205 4.43097 13.8361 1.85107C7.50964 4.08689 2.97699 10.1202 2.97699 17.2122C2.97699 26.2077 10.2693 33.5 19.2648 33.5C24.9298 33.5 29.9193 30.6079 32.8374 26.2196Z" fill="#958ABF"/>
<path d="M32.023 25.8686C30.325 26.4687 28.4978 26.7952 26.5943 26.7952C17.5988 26.7952 10.3065 19.5029 10.3065 10.5074C10.3065 7.17691 11.3061 4.07989 13.0217 1.5C6.69527 3.73581 2.16263 9.76916 2.16263 16.8612C2.16263 25.8567 9.45492 33.1489 18.4504 33.1489C24.1154 33.1489 29.1049 30.2568 32.023 25.8686Z" fill="#C6B0CF"/>
</svg>
