<svg width="25" height="25" viewBox="0 0 25 25" fill="none" xmlns="http://www.w3.org/2000/svg">
<path d="M3.30184 12.5081C3.29664 11.2976 3.53134 10.0981 3.99204 8.97874C4.45294 7.85944 5.13084 6.84241 5.98674 5.98643C6.84254 5.13044 7.85954 4.45242 8.97884 3.99148C10.0981 3.53054 11.2975 3.29583 12.5081 3.30086C17.7416 3.30787 21.7003 7.55794 21.6983 12.5031C21.696 13.723 21.4515 14.9303 20.9789 16.055C20.5064 17.1797 19.8152 18.1993 18.9454 19.0547C18.0756 19.9101 17.0446 20.5843 15.9123 21.0381C14.7798 21.4919 13.5686 21.7163 12.3488 21.6983C7.32864 21.6222 3.28384 17.5062 3.30184 12.5081ZM16.2975 15.1308C16.4177 15.1308 16.5419 15.1358 16.665 15.1308C17.8067 15.0768 18.8211 14.7212 19.5282 13.7809C20.3674 12.6663 20.4054 11.4315 19.8146 10.2148C19.2237 8.99804 18.1732 8.43724 16.8533 8.42924C13.4995 8.40924 10.1437 8.42224 6.79294 8.42324C6.40034 8.42324 6.21504 8.60954 6.21504 9.01004C6.21504 10.9628 6.21504 12.9149 6.21504 14.8665C6.21504 15.1499 6.22104 15.4333 6.22204 15.7167C6.22204 16.7181 6.82294 17.319 7.83034 17.319C10.0485 17.314 12.2677 17.3009 14.4859 17.2919C15.266 17.2919 15.8929 16.8473 16.1183 16.1002C16.1959 15.7807 16.2558 15.457 16.2975 15.1308Z" fill="#9BD0E2"/>
<path d="M16.2968 15.1303C16.2551 15.4566 16.1952 15.7802 16.1176 16.0997C15.8923 16.8468 15.2654 17.2884 14.4852 17.2914C12.267 17.3005 10.0479 17.3135 7.82966 17.3185C6.81816 17.3185 6.22736 16.7176 6.22136 15.7162C6.22136 15.4328 6.21436 15.1494 6.21436 14.866C6.21436 12.9139 6.21436 10.9618 6.21436 9.00953C6.21436 8.60903 6.39956 8.42273 6.79216 8.42273C10.146 8.42273 13.5018 8.40873 16.8526 8.42873C18.1725 8.43673 19.2291 9.00953 19.8139 10.2143C20.3987 11.419 20.3667 12.6658 19.5275 13.7804C18.8205 14.7208 17.806 15.0763 16.6644 15.1303C16.5412 15.1353 16.417 15.1303 16.2968 15.1303ZM11.2496 11.1596C11.1935 11.1126 11.1424 11.0715 11.0944 11.0284C10.8937 10.8435 10.6559 10.7032 10.3971 10.6169C10.1381 10.5305 9.86365 10.5002 9.59215 10.5277C8.87915 10.5888 8.39045 11.0895 8.35935 11.7996C8.33935 12.0748 8.37835 12.3512 8.47365 12.6103C8.56895 12.8693 8.71856 13.105 8.91216 13.3017C9.61316 14.0027 10.3373 14.6817 11.0493 15.3717C11.1815 15.4999 11.2957 15.5119 11.4339 15.3767C12.0748 14.7448 12.7257 14.1229 13.3646 13.488C13.6971 13.1565 13.9835 12.793 14.0937 12.3153C14.338 11.2548 13.4928 10.3445 12.4183 10.5127C11.9596 10.5928 11.5911 10.8422 11.2496 11.1596ZM16.3018 10.1462V13.4009C17.082 13.5611 17.787 13.3458 18.1425 12.794C18.5371 12.1851 18.6042 11.5192 18.2426 10.8752C17.822 10.1081 17.081 10.0811 16.3018 10.1462Z" fill="#FEFCFC"/>
<path d="M11.2491 11.1603C11.5906 10.8429 11.9591 10.5935 12.4228 10.5194C13.4993 10.3502 14.3425 11.2605 14.0982 12.322C13.988 12.7997 13.6976 13.1632 13.3691 13.4947C12.7302 14.1296 12.0793 14.7515 11.4384 15.3834C11.3002 15.5186 11.186 15.5066 11.0538 15.3784C10.3418 14.6884 9.61778 14.0104 8.91668 13.3074C8.72308 13.1107 8.57368 12.875 8.47828 12.6159C8.38298 12.357 8.34398 12.0806 8.36398 11.8053C8.39398 11.0952 8.88369 10.5945 9.59669 10.5334C9.86829 10.5058 10.1426 10.5362 10.4016 10.6226C10.6606 10.7089 10.8982 10.8492 11.0989 11.0342C11.1419 11.0722 11.193 11.1133 11.2491 11.1603Z" fill="#F29CC2"/>
<path d="M16.3022 10.1467C17.0814 10.0846 17.8224 10.1086 18.247 10.8757C18.6045 11.5197 18.5375 12.1856 18.1469 12.7945C17.7914 13.3463 17.0864 13.5616 16.3062 13.4014L16.3022 10.1467Z" fill="#9BD0E2"/>
</svg>
