<svg width="41" height="40" viewBox="0 0 41 40" fill="none" xmlns="http://www.w3.org/2000/svg">
<path d="M11.7036 8.31743C15.143 10.9568 18.8425 16.3083 20.2008 19.1802C21.5591 16.3085 25.2584 10.9567 28.698 8.31743C31.1797 6.41298 35.2007 4.93942 35.2007 9.62836C35.2007 10.5648 34.6754 17.495 34.3674 18.6201C33.2965 22.5316 29.3944 23.5293 25.9234 22.9255C31.9907 23.981 33.5341 27.4772 30.2008 30.9734C23.8704 37.6135 21.1021 29.3074 20.3925 27.1791C20.2624 26.789 20.2016 26.6064 20.2007 26.7616C20.1998 26.6064 20.1389 26.789 20.0089 27.1791C19.2996 29.3074 16.5314 37.6137 10.2005 30.9734C6.86723 27.4772 8.41061 23.9808 14.4779 22.9255C11.0068 23.5293 7.10469 22.5316 6.03401 18.6201C5.72593 17.4949 5.20068 10.5647 5.20068 9.62836C5.20068 4.93942 9.22197 6.41298 11.7036 8.31743Z" fill="#FEFCFC"/>
<path d="M11.8373 8.31743C15.2767 10.9568 18.9762 16.3083 20.3345 19.1802C21.6929 16.3085 25.3922 10.9567 28.8317 8.31743C31.3134 6.41298 35.3344 4.93942 35.3344 9.62836C35.3344 10.5648 34.8092 17.495 34.5011 18.6201C33.4303 22.5316 29.5282 23.5293 26.0572 22.9255C32.1244 23.981 33.6678 27.4772 30.3346 30.9734C24.0041 37.6135 21.2358 29.3074 20.5262 27.1791C20.3962 26.789 20.3353 26.6064 20.3344 26.7616C20.3335 26.6064 20.2727 26.789 20.1426 27.1791C19.4333 29.3074 16.6651 37.6137 10.3343 30.9734C7.00096 27.4772 8.54435 23.9808 14.6117 22.9255C11.1406 23.5293 7.23843 22.5316 6.16774 18.6201C5.85967 17.4949 5.33442 10.5647 5.33442 9.62836C5.33442 4.93942 9.35571 6.41298 11.8373 8.31743Z" fill="#FEFCFC"/>
<path d="M11.7036 8.31743C15.143 10.9568 18.8425 16.3083 20.2008 19.1802C21.5591 16.3085 25.2584 10.9567 28.698 8.31743C31.1797 6.41298 35.2007 4.93942 35.2007 9.62836C35.2007 10.5648 34.6754 17.495 34.3674 18.6201C33.2965 22.5316 29.3944 23.5293 25.9234 22.9255C31.9907 23.981 33.5341 27.4772 30.2008 30.9734C23.8704 37.6135 21.1021 29.3074 20.3925 27.1791C20.2624 26.789 20.2016 26.6064 20.2007 26.7616C20.1998 26.6064 20.1389 26.789 20.0089 27.1791C19.2996 29.3074 16.5314 37.6137 10.2005 30.9734C6.86723 27.4772 8.41061 23.9808 14.4779 22.9255C11.0068 23.5293 7.10469 22.5316 6.03401 18.6201C5.72593 17.4949 5.20068 10.5647 5.20068 9.62836C5.20068 4.93942 9.22197 6.41298 11.7036 8.31743Z" stroke="#FEFCFC"/>
<path d="M11.8373 8.31743C15.2767 10.9568 18.9762 16.3083 20.3345 19.1802C21.6929 16.3085 25.3922 10.9567 28.8317 8.31743C31.3134 6.41298 35.3344 4.93942 35.3344 9.62836C35.3344 10.5648 34.8092 17.495 34.5011 18.6201C33.4303 22.5316 29.5282 23.5293 26.0572 22.9255C32.1244 23.981 33.6678 27.4772 30.3346 30.9734C24.0041 37.6135 21.2358 29.3074 20.5262 27.1791C20.3962 26.789 20.3353 26.6064 20.3344 26.7616C20.3335 26.6064 20.2727 26.789 20.1426 27.1791C19.4333 29.3074 16.6651 37.6137 10.3343 30.9734C7.00096 27.4772 8.54435 23.9808 14.6117 22.9255C11.1406 23.5293 7.23843 22.5316 6.16774 18.6201C5.85967 17.4949 5.33442 10.5647 5.33442 9.62836C5.33442 4.93942 9.35571 6.41298 11.8373 8.31743Z" stroke="#FEFCFC"/>
<path d="M12.2701 9.44896C15.4802 11.8439 18.933 16.6999 20.2008 19.3059C21.4686 16.7001 24.9212 11.8439 28.1315 9.44896C30.4477 7.72084 34.2007 6.38373 34.2007 10.6385C34.2007 11.4882 33.7104 17.7767 33.4229 18.7976C32.4235 22.347 28.7815 23.2523 25.5419 22.7044C31.2047 23.6622 32.6452 26.8347 29.5342 30.0072C23.6257 36.0324 21.042 28.4954 20.3797 26.5642C20.2583 26.2102 20.2015 26.0445 20.2007 26.1854C20.1998 26.0445 20.1431 26.2102 20.0217 26.5642C19.3596 28.4954 16.776 36.0326 10.8672 30.0072C7.75612 26.8347 9.19662 23.662 14.8594 22.7044C11.6198 23.2523 7.97776 22.347 6.97845 18.7976C6.69091 17.7766 6.20068 11.4881 6.20068 10.6385C6.20068 6.38373 9.95389 7.72084 12.2701 9.44896Z" fill="#FCBA9F"/>
</svg>
