<svg width="35" height="35" viewBox="0 0 35 35" fill="none" xmlns="http://www.w3.org/2000/svg">
<g clip-path="url(#clip0_1939_3271)">
<path d="M17.5 22.275C22.5465 22.275 26.6375 18.184 26.6375 13.1375C26.6375 8.091 22.5465 4 17.5 4C12.4535 4 8.36249 8.091 8.36249 13.1375C8.36249 18.184 12.4535 22.275 17.5 22.275Z" fill="white"/>
<path d="M8.36249 28.1875L8.89999 31.4125H26.1L26.6375 28.1875M17.5 22.275V29.2625M17.5 22.275C22.5465 22.275 26.6375 18.184 26.6375 13.1375C26.6375 8.091 22.5465 4 17.5 4C12.4535 4 8.36249 8.091 8.36249 13.1375C8.36249 18.184 12.4535 22.275 17.5 22.275ZM13.2 29.2625H21.8" stroke="white" stroke-width="2" stroke-miterlimit="1.5" stroke-linecap="round" stroke-linejoin="round"/>
<path d="M17.5 22.275C22.5465 22.275 26.6375 18.184 26.6375 13.1375C26.6375 8.091 22.5465 4 17.5 4C12.4535 4 8.36249 8.091 8.36249 13.1375C8.36249 18.184 12.4535 22.275 17.5 22.275Z" fill="white"/>
<path d="M8.36249 28.1875L8.89999 31.4125H26.1L26.6375 28.1875M17.5 22.275V29.2625M17.5 22.275C22.5465 22.275 26.6375 18.184 26.6375 13.1375C26.6375 8.091 22.5465 4 17.5 4C12.4535 4 8.36249 8.091 8.36249 13.1375C8.36249 18.184 12.4535 22.275 17.5 22.275ZM13.2 29.2625H21.8" stroke="#25252B" stroke-miterlimit="1.5" stroke-linecap="round" stroke-linejoin="round"/>
<path d="M8.36249 28.1875L8.89999 31.4125H26.1L26.6375 28.1875M17.5 22.275V29.2625M13.2 29.2625H21.8" stroke="#25252B" stroke-width="0.42" stroke-miterlimit="1.5" stroke-linecap="round" stroke-linejoin="round"/>
<path d="M17.5 22.275C22.5465 22.275 26.6375 18.184 26.6375 13.1375C26.6375 8.091 22.5465 4 17.5 4C12.4535 4 8.36249 8.091 8.36249 13.1375C8.36249 18.184 12.4535 22.275 17.5 22.275Z" fill="white" stroke="#25252B" stroke-width="0.42" stroke-miterlimit="1.5" stroke-linecap="round" stroke-linejoin="round"/>
<path d="M17.5002 18.5123C18.7805 17.8129 21.7527 15.9132 22.3306 13.5153C23.3622 9.23563 18.284 6.09006 17.5002 12.2482H17.5C16.7162 6.09006 11.638 9.23563 12.6695 13.5153C13.2474 15.9132 16.2196 17.8129 17.5 18.5123H17.5002Z" fill="#EE479F"/>
</g>
<defs>
<clipPath id="clip0_1939_3271">
<rect width="35" height="35" fill="white"/>
</clipPath>
</defs>
</svg>
