<svg width="35" height="35" viewBox="0 0 35 35" fill="none" xmlns="http://www.w3.org/2000/svg">
<g clip-path="url(#clip0_1937_3134)">
<path d="M8.36369 11.1094C4.28383 15.2111 7.42355 16.3556 17.5042 17.4981M26.6446 23.8896C30.7245 19.7879 27.5847 18.6434 17.5041 17.5009" stroke="#C1CC83" stroke-width="2" stroke-miterlimit="1.5" stroke-linecap="round" stroke-linejoin="round"/>
<path fill-rule="evenodd" clip-rule="evenodd" d="M16.5703 35.4776L24.4403 21.9335L31.7789 26.9555L16.5703 35.4776Z" fill="#F4DF7E"/>
<path fill-rule="evenodd" clip-rule="evenodd" d="M18.439 -0.477142L10.569 13.067L3.23047 8.04495L18.439 -0.477142Z" fill="#F4DF7E"/>
<path d="M6.30543 30.106C9.5199 30.106 12.1257 27.5001 12.1257 24.2856C12.1257 21.0712 9.5199 18.4653 6.30543 18.4653C3.09095 18.4653 0.485107 21.0712 0.485107 24.2856C0.485107 27.5001 3.09095 30.106 6.30543 30.106Z" fill="#E6F3F8"/>
<path d="M28.7042 16.8864C30.1978 16.0704 33.6652 13.8543 34.3394 11.0569C35.5427 6.0643 29.6186 2.39473 28.7042 9.57874H28.704C27.7896 2.39473 21.8655 6.0643 23.0688 11.0569C23.743 13.8543 27.2104 16.0704 28.704 16.8864H28.7042Z" fill="#F4CEBD"/>
</g>
<defs>
<clipPath id="clip0_1937_3134">
<rect width="35" height="35" fill="white"/>
</clipPath>
</defs>
</svg>
