<svg width="35" height="35" viewBox="0 0 35 35" fill="none" xmlns="http://www.w3.org/2000/svg">
<g clip-path="url(#clip0_1940_3351)">
<path fill-rule="evenodd" clip-rule="evenodd" d="M23.6033 20.1781C23.6723 19.9382 23.5531 19.6707 23.6222 19.4309C23.6233 19.4285 27.5243 15.8757 30.3726 11.0683C34.0865 4.80022 31.2493 3.69991 30.6834 3.48057C27.9108 2.40557 18.7543 3.35403 9.44178 12.8001C5.84265 16.4505 0.0345847 24.1105 1.94499 31.6596C1.95724 31.7042 1.99623 31.7488 1.98063 31.7934C1.93719 31.9188 1.82357 32.0128 1.78012 32.1393C1.66873 32.0116 1.51055 31.9296 1.39804 31.8019C1.27997 31.6669 1.11733 30.3822 1.10062 30.2568C-0.325217 19.0115 13.6836 4.89784 25.2708 2.70324C37.8349 0.32546 33.0784 10.6609 26.0818 18.4017C25.9481 18.5499 24.4922 20.1612 24.3518 20.1949C24.1101 20.2552 23.8461 20.1178 23.6033 20.1781Z" fill="white" stroke="white" stroke-width="0.7" stroke-linejoin="round"/>
<path d="M22.2298 20.4355C22.3967 20.3081 22.6339 20.3318 22.7728 20.4893C22.9116 20.6469 22.9056 20.8856 22.7581 21.0352L18.6126 25.2344L21.6058 26.2627C21.7438 26.3101 21.8455 26.4284 21.8704 26.5723C21.8953 26.716 21.8398 26.8621 21.7259 26.9531L15.1702 32.1777C15.0088 32.3063 14.7763 32.2912 14.6331 32.1426C14.4899 31.9938 14.4837 31.7599 14.6185 31.6035L18.3734 27.2441L15.5901 26.2881C15.4507 26.2402 15.3482 26.1201 15.3245 25.9746C15.3009 25.8291 15.3598 25.6823 15.4769 25.5928L22.2298 20.4355ZM31.9515 17.1953C32.1184 17.0682 32.3557 17.0915 32.4944 17.249C32.6332 17.4067 32.6263 17.6454 32.4788 17.7949L28.3343 21.9941L31.3265 23.0225C31.4645 23.0699 31.5662 23.1882 31.5911 23.332C31.616 23.4758 31.5606 23.6219 31.4466 23.7129L24.8919 28.9375C24.7305 29.0662 24.497 29.0511 24.3538 28.9023C24.2106 28.7536 24.2044 28.5197 24.3392 28.3633L28.0941 24.0039L25.3109 23.0479C25.1715 23 25.0699 22.8798 25.0462 22.7344C25.0226 22.5889 25.0806 22.4421 25.1976 22.3525L31.9515 17.1953ZM22.2298 10.6807C22.3966 10.5533 22.6339 10.577 22.7728 10.7344C22.9116 10.892 22.9056 11.1307 22.7581 11.2803L18.6126 15.4795L21.6058 16.5078C21.7438 16.5552 21.8455 16.6736 21.8704 16.8174C21.8953 16.9611 21.8398 17.1072 21.7259 17.1982L15.1702 22.4229C15.0088 22.5515 14.7763 22.5364 14.6331 22.3877C14.49 22.239 14.4838 22.006 14.6185 21.8496L18.3734 17.4893L15.5901 16.5342C15.4507 16.4863 15.3482 16.3652 15.3245 16.2197C15.3009 16.0742 15.3597 15.9274 15.4769 15.8379L22.2298 10.6807Z" fill="#EEEB47" stroke="white" stroke-width="0.8" stroke-miterlimit="1.5" stroke-linecap="round" stroke-linejoin="round"/>
<path d="M22.3519 20.5947C22.4353 20.5312 22.554 20.5433 22.6234 20.6221C22.6924 20.7009 22.6892 20.8199 22.6155 20.8945L18.2474 25.3203L21.5413 26.4512C21.6103 26.4749 21.6607 26.5346 21.6732 26.6064C21.6856 26.6783 21.6579 26.7514 21.6009 26.7969L15.0462 32.0215C14.9655 32.0858 14.8483 32.0783 14.7767 32.0039C14.7052 31.9295 14.7025 31.8125 14.7698 31.7344L18.7181 27.1504L15.6546 26.0996C15.5849 26.0757 15.5336 26.0151 15.5218 25.9424C15.51 25.8696 15.5394 25.7957 15.598 25.751L22.3519 20.5947ZM32.0726 17.3545C32.156 17.2909 32.2747 17.3031 32.3441 17.3818C32.4132 17.4607 32.4099 17.5796 32.3362 17.6543L27.9681 22.0801L31.262 23.2109C31.331 23.2346 31.3814 23.2943 31.3939 23.3662C31.4063 23.4382 31.3787 23.5111 31.3216 23.5566L24.7669 28.7812C24.6863 28.8455 24.57 28.8378 24.4984 28.7637C24.4268 28.6893 24.4232 28.5724 24.4905 28.4941L28.4388 23.9102L25.3753 22.8594C25.3057 22.8354 25.2553 22.7748 25.2435 22.7021C25.2317 22.6293 25.261 22.5555 25.3196 22.5107L32.0726 17.3545ZM22.3519 10.8398C22.4353 10.7764 22.554 10.7885 22.6234 10.8672C22.6924 10.946 22.6891 11.065 22.6155 11.1396L18.2474 15.5654L21.5413 16.6963C21.6103 16.72 21.6607 16.7797 21.6732 16.8516C21.6856 16.9234 21.6579 16.9965 21.6009 17.042L15.0462 22.2666C14.9655 22.3309 14.8483 22.3234 14.7767 22.249C14.7053 22.1746 14.7025 22.0576 14.7698 21.9795L18.7181 17.3955L15.6546 16.3447C15.5849 16.3208 15.5336 16.2603 15.5218 16.1875C15.51 16.1147 15.5393 16.0409 15.598 15.9961L22.3519 10.8398Z" fill="#EEEB47" stroke="#25252B" stroke-width="0.4" stroke-miterlimit="1.5" stroke-linecap="round" stroke-linejoin="round"/>
<path fill-rule="evenodd" clip-rule="evenodd" d="M23.6033 20.1781C23.6723 19.9382 23.5531 19.6707 23.6222 19.4309C23.6233 19.4285 27.5243 15.8757 30.3726 11.0683C34.0865 4.80022 31.2493 3.69991 30.6834 3.48057C27.9108 2.40557 18.7543 3.35403 9.44178 12.8001C5.84265 16.4505 0.0345847 24.1105 1.94499 31.6596C1.95724 31.7042 1.99623 31.7488 1.98063 31.7934C1.93719 31.9188 1.82357 32.0128 1.78012 32.1393C1.66873 32.0116 1.51055 31.9296 1.39804 31.8019C1.27997 31.6669 1.11733 30.3822 1.10062 30.2568C-0.325217 19.0115 13.6836 4.89784 25.2708 2.70324C37.8349 0.32546 33.0784 10.6609 26.0818 18.4017C25.9481 18.5499 24.4922 20.1612 24.3518 20.1949C24.1101 20.2552 23.8461 20.1178 23.6033 20.1781Z" fill="#25252B"/>
<path fill-rule="evenodd" clip-rule="evenodd" d="M22.4729 20.754L15.7196 25.9104L19.063 27.0582L14.9212 31.8653L21.4761 26.6408L17.882 25.407L22.4729 20.754Z" fill="#EEEB47"/>
<path fill-rule="evenodd" clip-rule="evenodd" d="M32.1938 17.5138L25.4406 22.6702L28.7839 23.8179L24.6421 28.625L31.197 23.4005L27.6029 22.1667L32.1938 17.5138Z" fill="#EEEB47"/>
<path fill-rule="evenodd" clip-rule="evenodd" d="M22.4729 10.9992L15.7196 16.1556L19.063 17.3034L14.9212 22.1105L21.4761 16.886L17.882 15.6522L22.4729 10.9992Z" fill="#EEEB47"/>
<path fill-rule="evenodd" clip-rule="evenodd" d="M22.4729 20.754L15.7196 25.9104L19.063 27.0582L14.9212 31.8653L21.4761 26.6408L17.882 25.407L22.4729 20.754Z" stroke="#EEEB47" stroke-width="0.241139" stroke-miterlimit="1.5" stroke-linecap="round" stroke-linejoin="round"/>
<path fill-rule="evenodd" clip-rule="evenodd" d="M32.1938 17.5138L25.4406 22.6702L28.7839 23.8179L24.6421 28.625L31.197 23.4005L27.6029 22.1667L32.1938 17.5138Z" stroke="#EEEB47" stroke-width="0.241139" stroke-miterlimit="1.5" stroke-linecap="round" stroke-linejoin="round"/>
<path fill-rule="evenodd" clip-rule="evenodd" d="M22.4729 10.9992L15.7196 16.1556L19.063 17.3034L14.9212 22.1105L21.4761 16.886L17.882 15.6522L22.4729 10.9992Z" stroke="#EEEB47" stroke-width="0.241139" stroke-miterlimit="1.5" stroke-linecap="round" stroke-linejoin="round"/>
</g>
<defs>
<clipPath id="clip0_1940_3351">
<rect width="35" height="35" fill="white"/>
</clipPath>
</defs>
</svg>
