<svg width="35" height="35" viewBox="0 0 35 35" fill="none" xmlns="http://www.w3.org/2000/svg">
<g clip-path="url(#clip0_1933_3041)">
<path d="M17.459 33.4238C21.7006 31.1026 31.5473 24.7987 33.462 16.8411C36.8793 2.63916 20.0557 -7.79936 17.459 12.6364H17.4584C14.8617 -7.79936 -1.9619 2.63916 1.4554 16.8411C3.37011 24.7987 13.2168 31.1026 17.4584 33.4238H17.459Z" fill="#FEFCFC"/>
<mask id="mask0_1933_3041" style="mask-type:luminance" maskUnits="userSpaceOnUse" x="0" y="1" width="34" height="33">
<path d="M22.4193 3.67343C23.8799 2.37958 25.5518 2.24468 27.1722 2.96738C30.5803 4.48765 33.7531 9.92976 32.1653 16.5289C31.3034 20.111 28.6077 23.4514 25.4495 26.2477C22.6225 28.7506 19.5509 30.7053 17.4583 31.8951C15.3657 30.7053 12.2948 28.7503 9.46808 26.2477C6.30985 23.4514 3.6132 20.111 2.75128 16.5289C1.16364 9.93008 4.33653 4.48785 7.74445 2.96738C9.36492 2.24452 11.0366 2.3795 12.4974 3.67343C14.0402 5.0401 15.5058 7.8442 16.136 12.8043L16.2835 13.9693H18.6341L18.7816 12.8043C19.4118 7.84469 20.8766 5.04024 22.4193 3.67343Z" fill="white" stroke="white" stroke-width="2.66667"/>
</mask>
<g mask="url(#mask0_1933_3041)">
<path d="M17.4586 33.5178C17.4586 33.5178 6.50229 29.4464 4.67376 21.7991C2.54935 12.912 14.2421 10.04 17.4586 19.1412C20.6748 10.04 32.3675 12.912 30.2431 21.7991C28.4146 29.4464 17.4586 33.5178 17.4586 33.5178Z" fill="#FDC4D3" stroke="#F29CC2" stroke-width="0.8"/>
</g>
<path d="M17.459 33.4238C21.7006 31.1026 31.5473 24.7987 33.462 16.8411C36.8793 2.63916 20.0557 -7.79936 17.459 12.6364H17.4584C14.8617 -7.79936 -1.9619 2.63916 1.4554 16.8411C3.37011 24.7987 13.2168 31.1026 17.4584 33.4238H17.459Z" stroke="#F29CC2"/>
</g>
<defs>
<clipPath id="clip0_1933_3041">
<rect width="35" height="35" fill="white"/>
</clipPath>
</defs>
</svg>
