<svg width="35" height="35" viewBox="0 0 35 35" fill="none" xmlns="http://www.w3.org/2000/svg">
<g clip-path="url(#clip0_1940_3368)">
<path fill-rule="evenodd" clip-rule="evenodd" d="M21.0049 18.8292L19.6108 15.6538C19.4651 15.1193 19.4697 14.663 19.586 14.2824C20.3272 11.8421 24.0488 13.0583 24.4706 16.462C24.7543 18.7523 22.9416 19.3389 21.0049 18.8292Z" fill="#EEBE47"/>
<path fill-rule="evenodd" clip-rule="evenodd" d="M13.9951 18.8292C12.0584 19.3389 10.2457 18.7523 10.5294 16.462C10.9512 13.0583 14.6728 11.8421 15.414 14.2824C15.5303 14.663 15.5349 15.1193 15.3892 15.6538L13.9951 18.8292Z" fill="#EEBE47"/>
<path fill-rule="evenodd" clip-rule="evenodd" d="M17.5009 20L22.5 25H12.5L17.5009 20Z" fill="#C5EE47" stroke="#25252B" stroke-width="0.454839" stroke-miterlimit="1.5" stroke-linecap="round" stroke-linejoin="round"/>
<path fill-rule="evenodd" clip-rule="evenodd" d="M14.4934 15.9037C14.5963 15.4297 14.5926 15.024 14.511 14.6866C13.9855 12.519 11.3449 13.5995 11.0459 16.6218C10.5544 21.5918 18.9479 17.5265 15.786 12.2883C11.1834 4.66247 0.0699235 18.2104 0.512863 22.17C0.672769 23.6003 3.65395 24.7733 8.98948 16.5577C8.70485 17.0642 8.43247 17.5807 8.17556 18.1305C4.24987 26.5218 7.9906 25.4938 9.99369 23.9444C11.8225 22.5298 13.5031 18.7278 13.5031 18.7278" fill="#EEBE47"/>
<path d="M14.4934 15.9037C14.5963 15.4297 14.5926 15.024 14.511 14.6866C13.9855 12.519 11.3449 13.5995 11.0459 16.6218C10.5544 21.5918 18.9479 17.5265 15.786 12.2883C11.1834 4.66247 0.0699235 18.2104 0.512863 22.17C0.672769 23.6003 3.65395 24.7733 8.98948 16.5577C8.70485 17.0642 8.43247 17.5807 8.17556 18.1305C4.24987 26.5218 7.9906 25.4938 9.99369 23.9444C11.8225 22.5298 13.5031 18.7278 13.5031 18.7278" stroke="#25252B" stroke-width="0.401591" stroke-miterlimit="1.5" stroke-linecap="round" stroke-linejoin="round"/>
<path fill-rule="evenodd" clip-rule="evenodd" d="M20.5066 15.9037C20.4037 15.4297 20.4074 15.024 20.489 14.6866C21.0145 12.519 23.6551 13.5995 23.9541 16.6218C24.4456 21.5918 16.0521 17.5265 19.214 12.2883C23.8166 4.66247 34.9301 18.2104 34.4871 22.17C34.3272 23.6003 31.3461 24.7733 26.0105 16.5577C26.2952 17.0642 26.5675 17.5807 26.8244 18.1305C30.7501 26.5218 27.0094 25.4938 25.0063 23.9444C23.1775 22.5298 21.4969 18.7278 21.4969 18.7278" fill="#EEBE47"/>
<path d="M20.5066 15.9037C20.4037 15.4297 20.4074 15.024 20.489 14.6866C21.0145 12.519 23.6551 13.5995 23.9541 16.6218C24.4456 21.5918 16.0521 17.5265 19.214 12.2883C23.8166 4.66247 34.9301 18.2104 34.4871 22.17C34.3272 23.6003 31.3461 24.7733 26.0105 16.5577C26.2952 17.0642 26.5675 17.5807 26.8244 18.1305C30.7501 26.5218 27.0094 25.4938 25.0063 23.9444C23.1775 22.5298 21.4969 18.7278 21.4969 18.7278" stroke="#25252B" stroke-width="0.401591" stroke-miterlimit="1.5" stroke-linecap="round" stroke-linejoin="round"/>
</g>
<defs>
<clipPath id="clip0_1940_3368">
<rect width="35" height="35" fill="white"/>
</clipPath>
</defs>
</svg>
