<svg width="35" height="35" viewBox="0 0 35 35" fill="none" xmlns="http://www.w3.org/2000/svg">
<path d="M17.5119 0.875015L21.0119 7.10939H14.0119L17.5119 0.875015Z" fill="#FCBA9F"/>
<path d="M17.5119 34.125L21.0119 27.8906H14.0119L17.5119 34.125Z" fill="#FCBA9F"/>
<path d="M3.51184 9.18747H10.5118L7.01184 15.4218L3.51184 9.18747Z" fill="#FCBA9F"/>
<path d="M31.5118 25.8125L28.0118 19.5781L24.5118 25.8125L31.5118 25.8125Z" fill="#FCBA9F"/>
<path d="M3.51184 25.8125L7.01184 19.5781L10.5118 25.8125H3.51184Z" fill="#FCBA9F"/>
<path d="M31.5118 9.18747H24.5118L28.0118 15.4219L31.5118 9.18747Z" fill="#FCBA9F"/>
<path d="M26.2501 17.5C26.2501 22.3325 22.3326 26.25 17.5001 26.25C12.6676 26.25 8.75006 22.3325 8.75006 17.5C8.75006 12.6675 12.6676 8.75 17.5001 8.75C22.3326 8.75 26.2501 12.6675 26.2501 17.5Z" fill="#EBD6A5"/>
<path d="M17.5001 0L21.2889 6.5625H13.7112L17.5001 0Z" fill="#EBD6A5"/>
<path d="M17.5001 35L21.2889 28.4375H13.7112L17.5001 35Z" fill="#EBD6A5"/>
<path d="M2.34457 8.74996H9.9223L6.13344 15.3125L2.34457 8.74996Z" fill="#EBD6A5"/>
<path d="M32.6554 26.25L28.8666 19.6875L25.0777 26.25L32.6554 26.25Z" fill="#EBD6A5"/>
<path d="M2.34457 26.25L6.13343 19.6875L9.9223 26.25H2.34457Z" fill="#EBD6A5"/>
<path d="M32.6554 8.74996H25.0777L28.8666 15.3125L32.6554 8.74996Z" fill="#EBD6A5"/>
<path d="M25.5948 17.5C25.5948 22.0909 21.976 25.8125 17.5119 25.8125C13.0478 25.8125 9.42898 22.0909 9.42898 17.5C9.42898 12.9091 13.0478 9.18752 17.5119 9.18752C21.976 9.18752 25.5948 12.9091 25.5948 17.5Z" fill="#FCBA9F"/>
</svg>
