<svg width="35" height="35" viewBox="0 0 35 35" fill="none" xmlns="http://www.w3.org/2000/svg">
<g clip-path="url(#clip0_1933_3085)">
<path d="M17.5452 27.2479C20.1141 26.3406 20.8221 23.3296 19.9364 22.7979C19.0548 22.2689 18.0416 22.8142 17.5086 23.7812C16.9987 22.8196 15.9801 22.2662 15.0944 22.7979C14.2087 23.3296 14.9181 26.3406 17.4856 27.2479" fill="#F4DF7E"/>
<path d="M18.3387 9.58071C18.5991 9.18331 14.9642 6.21028 12.1228 7.61948C8.9463 9.19551 6.62296 15.3775 8.73065 16.6063C11.6915 18.3302 14.7608 13.1179 19.0833 12.7097C22.5473 12.3815 24.0881 15.265 22.9189 16.7081C21.0106 19.0613 18.0403 15.2962 17.0651 15.8075C16.3273 16.1954 21.1327 22.0017 25.2965 18.8402C27.5683 17.115 26.9282 11.8484 22.0238 10.9967C19.2963 10.5233 16.1049 11.1906 13.7083 12.3001C11.3415 13.3973 10.5535 14.0538 10.6715 12.8847C10.7882 11.7169 12.9393 9.60918 14.4095 9.55493C15.9869 9.49661 18.0729 9.9876 18.3387 9.58071Z" fill="#F4DF7E"/>
<path fill-rule="evenodd" clip-rule="evenodd" d="M21.459 0.474706C20.4798 0.254985 18.3558 0.0013563 17.4878 0C17.108 0.0013563 16.0013 0.0745974 15.5021 0.134275C14.4958 0.254986 12.4206 0.721554 11.6096 1.02401C10.6547 1.38207 8.86305 2.26638 8.01943 2.79534C7.17988 3.32566 5.65268 4.59923 4.94333 5.3262C4.2584 6.02877 3.08519 7.50443 2.51147 8.47011C2.00015 9.33408 1.10227 11.2749 0.832369 12.1009C0.565177 12.9269 0.151507 15.0251 0.0565661 16.0247C-0.0465129 17.1423 0.0348679 19.0276 0.175923 19.9973C0.322404 21.0037 0.809316 22.931 1.17687 23.8533C1.54986 24.7769 2.47893 26.5456 3.04043 27.3973C3.51921 28.1175 4.92434 29.7152 5.66623 30.4042C6.49222 31.1678 7.89736 32.1891 8.87933 32.7384C9.76499 33.2321 11.7181 34.0744 12.5508 34.3063C13.5355 34.5789 15.5035 34.9153 16.4977 34.9831C17.4878 35.0482 19.4721 34.9153 20.473 34.7458C21.44 34.5789 23.2575 34.0744 24.2883 33.6309C25.2106 33.2321 27.0768 32.1891 27.7808 31.6792C28.482 31.1678 30.0512 29.7152 30.7158 28.9611C31.4563 28.1175 32.4966 26.5456 32.9551 25.6775C33.4257 24.7769 34.1649 22.931 34.4104 21.9694C34.6518 21.0037 34.9393 19.0276 34.9854 18.0063C35.0221 17.1423 34.824 15.0251 34.6287 14.031C34.409 12.9269 33.8733 11.2749 33.4013 10.2537C32.9754 9.33408 31.8904 7.50442 31.3533 6.82763C30.7158 6.02877 29.3215 4.59923 28.5579 3.96041C27.7957 3.32566 26.1112 2.26638 25.2011 1.81609C24.3208 1.38207 22.5549 0.721553 21.459 0.474706ZM17.4878 1.13522C18.3911 1.13657 20.568 1.42004 21.5662 1.66417C22.5563 1.91102 24.4551 2.68276 25.3733 3.18188C26.3824 3.73254 27.8432 4.79452 28.68 5.58389C29.4382 6.30273 30.7592 7.86926 31.3004 8.73594C31.8415 9.6094 32.7828 11.5923 33.0636 12.4509C33.3403 13.3108 33.7444 15.4686 33.8204 16.4926C33.8923 17.5126 33.7444 19.5552 33.5532 20.5832C33.3402 21.713 32.7828 23.4315 32.2905 24.4704C31.8415 25.4144 30.7592 27.1545 30.1014 27.9358C29.4382 28.7211 27.8432 30.2293 27.1135 30.7609C26.3824 31.2913 24.4551 32.341 23.5043 32.7303C22.5563 33.1128 20.568 33.6051 19.5317 33.7407C18.3911 33.8872 16.5845 33.8872 15.4438 33.7407C14.4076 33.6051 12.4179 33.1128 11.4712 32.7303C10.5205 32.341 8.59315 31.2913 7.86211 30.7609C7.13241 30.2293 5.5374 28.7211 4.87281 27.9358C4.21636 27.1545 3.13403 25.4144 2.68509 24.4704C2.19275 23.4315 1.63532 21.713 1.42102 20.5832C1.23114 19.5552 1.08329 17.5126 1.15518 16.4926C1.23113 15.4686 1.63532 13.3108 1.91201 12.4509C2.19276 11.5923 3.13403 9.6094 3.6752 8.73594C4.21636 7.86926 5.5374 6.30273 6.29557 5.58389C7.13241 4.79452 8.59315 3.73254 9.60224 3.18188C10.5205 2.68276 12.4179 1.91102 13.4094 1.66417C14.4076 1.42004 16.5845 1.13657 17.4878 1.13522Z" fill="#F4DF7E"/>
<path d="M7.61356 19.7794L4.53119 27.1261L13.5732 21.4906L7.61356 19.7794Z" fill="#F4DF7E"/>
<path d="M27.4446 19.7794L30.527 27.1261L21.485 21.4906L27.4446 19.7794Z" fill="#F4DF7E"/>
</g>
<defs>
<clipPath id="clip0_1933_3085">
<rect width="35" height="35" fill="white"/>
</clipPath>
</defs>
</svg>
