<svg width="67" height="67" viewBox="0 0 67 67" fill="none" xmlns="http://www.w3.org/2000/svg">
<g clip-path="url(#clip0_1771_1946)">
<path fill-rule="evenodd" clip-rule="evenodd" d="M44.0181 8.06111C44.6451 6.54911 45.9181 5.3981 47.4851 4.9251C49.0531 4.4521 50.7501 4.7061 52.1091 5.6191C52.0911 5.6621 52.0981 5.66711 52.1051 5.67211C53.4431 6.57211 54.3081 8.02312 54.4641 9.62712C54.6191 11.2321 54.0491 12.8231 52.9091 13.9631C50.7241 16.2121 48.1521 18.7831 46.6291 20.3071C45.9011 21.0341 44.7411 21.0901 43.9461 20.4381C43.1911 19.8161 42.3751 19.2681 41.5121 18.7931C40.6121 18.3091 40.2261 17.2231 40.6181 16.2801C41.4301 14.2931 42.8181 10.9511 44.0181 8.06111Z" fill="#2C233D"/>
<path fill-rule="evenodd" clip-rule="evenodd" d="M58.9901 22.9219C60.4751 22.3079 62.1571 22.3899 63.5761 23.1449C64.9951 23.9009 66.0021 25.2499 66.3221 26.8259C66.2791 26.8429 66.2811 26.8509 66.2821 26.8599C66.6081 28.4699 66.1941 30.1409 65.1541 31.4129C64.1141 32.6839 62.5581 33.4209 60.9161 33.4209C57.8021 33.4679 54.2171 33.4679 52.0841 33.4679C51.0561 33.4669 50.1961 32.6889 50.0951 31.6659C49.9991 30.6759 49.8071 29.7119 49.5361 28.7819C49.2401 27.8029 49.7341 26.7589 50.6801 26.3689C52.6811 25.5289 56.0771 24.1259 58.9901 22.9219Z" fill="#2C233D"/>
<path fill-rule="evenodd" clip-rule="evenodd" d="M58.8741 44.0178C60.3871 44.6448 61.5381 45.9178 62.0111 47.4858C62.4841 49.0528 62.2291 50.7498 61.3171 52.1098C61.2731 52.0908 61.2691 52.0978 61.2641 52.1048C60.3641 53.4428 58.9131 54.3078 57.3081 54.4638C55.7031 54.6188 54.1131 54.0488 52.9731 52.9088C50.7241 50.7238 48.1521 48.1528 46.6291 46.6288C45.9021 45.9018 45.8451 44.7408 46.4981 43.9458C47.1201 43.1908 47.6681 42.3748 48.1421 41.5118C48.6261 40.6128 49.7131 40.2258 50.6561 40.6178C52.6421 41.4298 55.9851 42.8178 58.8741 44.0178Z" fill="#2C233D"/>
<path fill-rule="evenodd" clip-rule="evenodd" d="M44.013 58.9897C44.627 60.4747 44.545 62.1567 43.79 63.5757C43.035 64.9947 41.685 66.0017 40.11 66.3227C40.092 66.2787 40.084 66.2807 40.076 66.2827C38.466 66.6077 36.794 66.1937 35.523 65.1537C34.252 64.1137 33.514 62.5577 33.514 60.9157C33.468 57.8017 33.468 54.2167 33.468 52.0837C33.468 51.0567 34.247 50.1967 35.269 50.0947C36.26 49.9997 37.223 49.8067 38.153 49.5357C39.132 49.2397 40.176 49.7337 40.567 50.6797C41.406 52.6807 42.81 56.0767 44.013 58.9897Z" fill="#2C233D"/>
<path fill-rule="evenodd" clip-rule="evenodd" d="M22.9181 58.8749C22.2901 60.3869 21.0171 61.5379 19.4501 62.0109C17.8821 62.4839 16.1851 62.2289 14.8261 61.3169C14.8451 61.2729 14.8381 61.2689 14.8311 61.2639C13.4931 60.3639 12.6271 58.9129 12.4721 57.3079C12.3161 55.7029 12.8871 54.1129 14.0271 52.9729C16.2111 50.7239 18.7831 48.1529 20.3071 46.6289C21.0341 45.9019 22.1941 45.8449 22.9891 46.4979C23.7441 47.1199 24.5611 47.6679 25.4241 48.1429C26.3231 48.6259 26.7091 49.7129 26.3181 50.6559C25.5061 52.6429 24.1181 55.9849 22.9181 58.8749Z" fill="#2C233D"/>
<path fill-rule="evenodd" clip-rule="evenodd" d="M7.94603 44.0128C6.46003 44.6268 4.77802 44.5458 3.35902 43.7898C1.94002 43.0348 0.933023 41.6848 0.613023 40.1098C0.656023 40.0928 0.655031 40.0838 0.653031 40.0758C0.327031 38.4658 0.741022 36.7948 1.78102 35.5228C2.82102 34.2518 4.37702 33.5138 6.02002 33.5138C9.13302 33.4678 12.718 33.4678 14.851 33.4678C15.879 33.4678 16.739 34.2468 16.841 35.2698C16.936 36.2598 17.128 37.2228 17.4 38.1538C17.696 39.1318 17.201 40.1758 16.256 40.5668C14.254 41.4068 10.858 42.8098 7.94603 44.0128Z" fill="#2C233D"/>
<path fill-rule="evenodd" clip-rule="evenodd" d="M8.06106 22.9181C6.54906 22.2901 5.39805 21.0181 4.92505 19.4501C4.45105 17.8831 4.70605 16.1861 5.61905 14.8261C5.66205 14.8451 5.66706 14.8381 5.67206 14.8311C6.57106 13.4931 8.02206 12.6281 9.62706 12.4721C11.2321 12.3161 12.8221 12.8871 13.9631 14.0271C16.2111 16.2121 18.7831 18.7831 20.3071 20.3071C21.0341 21.0341 21.0901 22.1941 20.4381 22.9891C19.8161 23.7441 19.2671 24.5611 18.7931 25.4241C18.3091 26.3231 17.2231 26.7101 16.2801 26.3181C14.2931 25.5061 10.9511 24.1181 8.06106 22.9181Z" fill="#2C233D"/>
<path fill-rule="evenodd" clip-rule="evenodd" d="M22.922 7.94581C22.308 6.45981 22.39 4.7778 23.145 3.3588C23.9 1.9408 25.25 0.932798 26.825 0.612798C26.843 0.656798 26.851 0.654776 26.86 0.652776C28.47 0.326776 30.141 0.741805 31.412 1.7818C32.684 2.8208 33.421 4.37678 33.421 6.01978C33.468 9.13278 33.468 12.7188 33.468 14.8518C33.467 15.8788 32.688 16.7388 31.666 16.8408C30.676 16.9358 29.712 17.1288 28.782 17.3998C27.803 17.6958 26.759 17.2008 26.369 16.2558C25.529 14.2548 24.126 10.8578 22.922 7.94581Z" fill="#2C233D"/>
</g>
<defs>
<clipPath id="clip0_1771_1946">
<rect width="67" height="67" fill="white"/>
</clipPath>
</defs>
</svg>
