<svg width="67" height="67" viewBox="0 0 67 67" fill="none" xmlns="http://www.w3.org/2000/svg">
<g clip-path="url(#clip0_1771_1999)">
<path fill-rule="evenodd" clip-rule="evenodd" d="M33.468 6.04595C33.467 4.38195 34.215 2.80598 35.504 1.75198C36.792 0.698975 38.486 0.280968 40.117 0.612968C40.115 0.660968 40.122 0.662963 40.13 0.663963C41.698 0.983963 43.041 1.98897 43.791 3.40197C44.541 4.81597 44.62 6.49095 44.006 7.96896C42.842 10.892 41.438 14.274 40.608 16.273C40.213 17.223 39.162 17.718 38.178 17.418C37.243 17.133 36.27 16.9369 35.271 16.8299C34.254 16.7289 33.48 15.873 33.48 14.852C33.468 12.725 33.468 9.15395 33.468 6.04595Z" fill="#958ABF"/>
<path fill-rule="evenodd" clip-rule="evenodd" d="M52.9241 14.012C54.0781 12.857 55.6891 12.279 57.3141 12.438C58.9401 12.596 60.4091 13.4731 61.3191 14.8291C61.2851 14.8621 61.2901 14.8691 61.2941 14.8761C62.2021 16.2311 62.4541 17.921 61.9811 19.481C61.5081 21.041 60.3601 22.306 58.8531 22.929C55.9841 24.164 52.6511 25.5411 50.6731 26.3591C49.7231 26.7511 48.6321 26.36 48.1471 25.455C47.6791 24.577 47.1261 23.7521 46.5061 22.9831C45.8571 22.1921 45.9141 21.0381 46.6371 20.3151C48.1481 18.7871 50.7111 16.225 52.9241 14.012Z" fill="#958ABF"/>
<path fill-rule="evenodd" clip-rule="evenodd" d="M60.889 33.4678C62.554 33.4678 64.13 34.2148 65.183 35.5038C66.236 36.7918 66.655 38.4858 66.323 40.1168C66.275 40.1148 66.273 40.1228 66.271 40.1298C65.951 41.6978 64.947 43.0408 63.533 43.7908C62.12 44.5408 60.445 44.6198 58.967 44.0058C56.044 42.8418 52.662 41.4378 50.663 40.6078C49.713 40.2128 49.217 39.1618 49.517 38.1778C49.803 37.2428 49.998 36.2698 50.106 35.2708C50.207 34.2538 51.0621 33.4798 52.0841 33.4798C54.2111 33.4678 57.782 33.4678 60.889 33.4678Z" fill="#958ABF"/>
<path fill-rule="evenodd" clip-rule="evenodd" d="M52.924 52.9241C54.079 54.0791 54.656 55.6891 54.498 57.3151C54.34 58.9401 53.463 60.4091 52.107 61.3191C52.074 61.2851 52.066 61.2901 52.059 61.2951C50.705 62.2021 49.015 62.4541 47.455 61.9811C45.895 61.5081 44.629 60.3601 44.007 58.8531C42.771 55.9841 41.394 52.6511 40.577 50.6731C40.185 49.7241 40.576 48.6321 41.481 48.1471C42.358 47.6791 43.184 47.1261 43.953 46.5061C44.743 45.8571 45.897 45.9141 46.62 46.6371C48.148 48.1491 50.711 50.7111 52.924 52.9241Z" fill="#958ABF"/>
<path fill-rule="evenodd" clip-rule="evenodd" d="M33.468 60.8901C33.468 62.5541 32.721 64.1301 31.432 65.1831C30.143 66.2361 28.45 66.655 26.819 66.323C26.821 66.275 26.813 66.273 26.805 66.272C25.237 65.951 23.895 64.947 23.145 63.533C22.394 62.12 22.315 60.445 22.929 58.967C24.093 56.044 25.497 52.662 26.328 50.663C26.723 49.713 27.773 49.218 28.757 49.517C29.693 49.803 30.666 49.999 31.665 50.106C32.681 50.207 33.456 51.062 33.456 52.084C33.468 54.211 33.468 57.7821 33.468 60.8901Z" fill="#958ABF"/>
<path fill-rule="evenodd" clip-rule="evenodd" d="M14.011 52.924C12.857 54.079 11.246 54.656 9.621 54.498C7.996 54.34 6.527 53.463 5.617 52.107C5.651 52.074 5.64601 52.067 5.64101 52.059C4.73401 50.705 4.482 49.015 4.955 47.455C5.428 45.895 6.57502 44.629 8.08202 44.007C10.951 42.771 14.284 41.394 16.263 40.577C17.212 40.185 18.304 40.576 18.789 41.481C19.257 42.359 19.81 43.184 20.429 43.953C21.078 44.744 21.021 45.897 20.298 46.621C18.787 48.149 16.224 50.711 14.011 52.924Z" fill="#958ABF"/>
<path fill-rule="evenodd" clip-rule="evenodd" d="M6.04606 33.4681C4.38206 33.4681 2.80507 32.7211 1.75207 31.4321C0.699067 30.1431 0.281068 28.4501 0.612068 26.8191C0.661068 26.8211 0.662055 26.8131 0.664055 26.8061C0.984055 25.2381 1.98806 23.8951 3.40206 23.1451C4.81606 22.3951 6.49106 22.3161 7.96806 22.9291C10.8921 24.0931 14.2731 25.4981 16.2731 26.3281C17.2221 26.7231 17.7181 27.7741 17.4181 28.7571C17.1321 29.6931 16.9371 30.6661 16.8301 31.6651C16.7291 32.6821 15.8731 33.4561 14.8511 33.4561C12.7241 33.4681 9.15306 33.4681 6.04606 33.4681Z" fill="#958ABF"/>
<path fill-rule="evenodd" clip-rule="evenodd" d="M14.011 14.0121C12.857 12.8571 12.279 11.2461 12.437 9.62114C12.596 7.99614 13.473 6.52714 14.829 5.61714C14.862 5.65114 14.869 5.64613 14.876 5.64113C16.231 4.73413 17.92 4.48212 19.48 4.95512C21.041 5.42812 22.306 6.57614 22.929 8.08214C24.164 10.9511 25.541 14.2841 26.359 16.2631C26.75 17.2121 26.36 18.3041 25.454 18.7891C24.577 19.2571 23.752 19.8101 22.982 20.4291C22.192 21.0781 21.038 21.0221 20.315 20.2991C18.787 18.7871 16.224 16.2251 14.011 14.0121Z" fill="#958ABF"/>
</g>
<defs>
<clipPath id="clip0_1771_1999">
<rect width="67" height="67" fill="white"/>
</clipPath>
</defs>
</svg>
