<svg width="67" height="67" viewBox="0 0 67 67" fill="none" xmlns="http://www.w3.org/2000/svg">
<rect x="6" y="56" width="45" height="55" rx="4" transform="rotate(-90 6 56)" fill="#958ABF"/>
<path d="M8 47C8 44.7909 9.79086 43 12 43L55 43C57.2091 43 59 44.7909 59 47L59 50C59 52.2091 57.2091 54 55 54L12 54C9.79086 54 8 52.2091 8 50L8 47ZM8 17C8 14.7909 9.79086 13 12 13L55 13C57.2091 13 59 14.7909 59 17L59 37C59 39.2091 57.2091 41 55 41L12 41C9.79086 41 8 39.2091 8 37L8 17Z" fill="#FEFCFC"/>
<path d="M25.001 30C23.9065 29.9998 23.6077 28.4944 24.6191 28.0762L32.8281 24.6836C33.0727 24.5825 33.3472 24.5826 33.5918 24.6836L41.8008 28.0762C42.8125 28.4943 42.5136 30 41.4189 30L41.1572 30L33.5918 26.873C33.3473 26.7721 33.0726 26.772 32.8281 26.873L25.2617 30L25.001 30Z" fill="#958ABF"/>
</svg>
