<svg width="67" height="67" viewBox="0 0 67 67" fill="none" xmlns="http://www.w3.org/2000/svg">
<path d="M6 15C6 12.7909 7.79086 11 10 11L57 11C59.2091 11 61 12.7909 61 15L61 52C61 54.2091 59.2091 56 57 56L10 56C7.79086 56 6 54.2091 6 52L6 15ZM8 50C8 52.2091 9.79086 54 12 54L55 54C57.2091 54 59 52.2091 59 50L59 47C59 44.7909 57.2091 43 55 43L12 43C9.79086 43 8 44.7909 8 47L8 50ZM8 37C8 39.2091 9.79086 41 12 41L55 41C57.2091 41 59 39.2091 59 37L59 17C59 14.7909 57.2091 13 55 13L12 13C9.79086 13 8 14.7909 8 17L8 37ZM25.001 30C23.9065 29.9998 23.6077 28.4944 24.6191 28.0762L32.8281 24.6836C33.0727 24.5825 33.3472 24.5826 33.5918 24.6836L41.8008 28.0762C42.8125 28.4943 42.5136 30 41.4189 30L41.1572 30L33.5918 26.873C33.3473 26.7721 33.0726 26.772 32.8281 26.873L25.2617 30L25.001 30Z" fill="#958ABF"/>
</svg>
