<svg width="67" height="67" viewBox="0 0 67 67" fill="none" xmlns="http://www.w3.org/2000/svg">
<path d="M47 5.99999C49.2091 5.99999 51 7.79085 51 9.99999L51 57C51 59.2091 49.2091 61 47 61L20 61C17.7909 61 16 59.2091 16 57L16 10C16 7.79086 17.7909 6 20 6L47 5.99999ZM20 8C18.8954 8 18 8.89543 18 10L18 57C18 58.1046 18.8954 59 20 59C21.1046 59 22 58.1046 22 57L22 10C22 8.89543 21.1046 8 20 8ZM35 8C32.7909 8 31 9.79086 31 12L31 55C31 57.2091 32.7909 59 35 59L45 59C47.2091 59 49 57.2091 49 55L49 12C49 9.79086 47.2091 7.99999 45 7.99999L35 8ZM29.3916 25.001C29.3914 23.9065 27.886 23.6077 27.4678 24.6191L24.0752 32.8281C23.9742 33.0726 23.9743 33.3473 24.0752 33.5918L27.4678 41.8008C27.8859 42.8125 29.3916 42.5136 29.3916 41.4189L29.3916 41.1572L26.2647 33.5918C26.1638 33.3474 26.1637 33.0725 26.2647 32.8281L29.3916 25.2617L29.3916 25.001Z" fill="#958ABF"/>
</svg>
