<svg width="67" height="67" viewBox="0 0 67 67" fill="none" xmlns="http://www.w3.org/2000/svg">
<path d="M6 20C6 17.7909 7.79086 16 10 16L57 16C59.2091 16 61 17.7909 61 20L61 47C61 49.2091 59.2091 51 57 51L10 51C7.79086 51 6 49.2091 6 47L6 20ZM8 47C8 48.1046 8.89543 49 10 49L57 49C58.1046 49 59 48.1046 59 47C59 45.8954 58.1046 45 57 45L10 45C8.89543 45 8 45.8954 8 47ZM8 32C8 34.2091 9.79086 36 12 36L55 36C57.2091 36 59 34.2091 59 32L59 22C59 19.7909 57.2091 18 55 18L12 18C9.79086 18 8 19.7909 8 22L8 32ZM25.001 37.6084C23.9065 37.6086 23.6077 39.114 24.6191 39.5322L32.8281 42.9248C33.0726 43.0258 33.3473 43.0257 33.5918 42.9248L41.8008 39.5322C42.8125 39.1141 42.5136 37.6084 41.4189 37.6084L41.1572 37.6084L33.5918 40.7354C33.3474 40.8362 33.0725 40.8363 32.8281 40.7354L25.2617 37.6084L25.001 37.6084Z" fill="#958ABF"/>
</svg>
