<svg width="67" height="67" viewBox="0 0 67 67" fill="none" xmlns="http://www.w3.org/2000/svg">
<path d="M52 6C54.2091 6 56 7.79086 56 10L56 57C56 59.2091 54.2091 61 52 61L15 61C12.7909 61 11 59.2091 11 57L11 10C11 7.79086 12.7909 6 15 6L52 6ZM17 8C14.7909 8 13 9.79086 13 12L13 55C13 57.2091 14.7909 59 17 59H20C22.2091 59 24 57.2091 24 55L24 12C24 9.79086 22.2091 8 20 8H17ZM30 8C27.7909 8 26 9.79086 26 12L26 55C26 57.2091 27.7909 59 30 59L50 59C52.2091 59 54 57.2091 54 55L54 12C54 9.79086 52.2091 8 50 8L30 8ZM37 25.001C37.0002 23.9065 38.5056 23.6077 38.9238 24.6191L42.3164 32.8281C42.4175 33.0727 42.4174 33.3472 42.3164 33.5918L38.9238 41.8008C38.5057 42.8125 37 42.5136 37 41.4189L37 41.1572L40.127 33.5918C40.2279 33.3473 40.228 33.0726 40.127 32.8281L37 25.2617L37 25.001Z" fill="#958ABF"/>
</svg>
