<svg width="67" height="67" viewBox="0 0 67 67" fill="none" xmlns="http://www.w3.org/2000/svg">
<rect x="6" y="51" width="35" height="55" rx="4" transform="rotate(-90 6 51)" fill="#958ABF"/>
<rect x="8" y="49" width="4" height="51" rx="2" transform="rotate(-90 8 49)" fill="#FEFCFC"/>
<rect x="8" y="36" width="18" height="51" rx="4" transform="rotate(-90 8 36)" fill="#FEFCFC"/>
<path d="M25.001 37.6079C23.9065 37.6081 23.6077 39.1136 24.6191 39.5317L32.8281 42.9243C33.0727 43.0254 33.3472 43.0253 33.5918 42.9243L41.8008 39.5317C42.8125 39.1136 42.5136 37.6079 41.4189 37.6079L41.1572 37.6079L33.5918 40.7349C33.3473 40.8358 33.0726 40.8359 32.8281 40.7349L25.2617 37.6079L25.001 37.6079Z" fill="#FEFCFC"/>
</svg>
