<svg width="67" height="67" viewBox="0 0 67 67" fill="none" xmlns="http://www.w3.org/2000/svg">
<rect x="11" y="6" width="45" height="55" rx="4" fill="#958ABF"/>
<path d="M20 8C22.2091 8 24 9.79086 24 12L24 55C24 57.2091 22.2091 59 20 59L17 59C14.7909 59 13 57.2091 13 55L13 12C13 9.79086 14.7909 8 17 8L20 8ZM50 8.00001C52.2091 8.00001 54 9.79087 54 12L54 55C54 57.2091 52.2091 59 50 59L30 59C27.7909 59 26 57.2091 26 55L26 12C26 9.79086 27.7909 8 30 8L50 8.00001Z" fill="#FEFCFC"/>
<path d="M37 25.001C37.0002 23.9065 38.5056 23.6077 38.9238 24.6191L42.3164 32.8281C42.4175 33.0727 42.4174 33.3472 42.3164 33.5918L38.9238 41.8008C38.5057 42.8125 37 42.5136 37 41.4189L37 41.1572L40.127 33.5918C40.2279 33.3473 40.228 33.0726 40.127 32.8281L37 25.2617L37 25.001Z" fill="#958ABF"/>
</svg>
