<svg width="114" height="31" viewBox="0 0 114 31" fill="none" xmlns="http://www.w3.org/2000/svg">
<g clip-path="url(#clip0_159_258)">
<path d="M6.08 29.01L6.61 28.5L9 23.93L9.76 23.42H18.34V16.42H13.62L13.2 15.91L18.34 6.11001V1.01001H18.32H13.24L12.73 1.52001L10.33 6.11001L9.58 6.62001H1V13.61H5.71L6.14 14.11L1 23.93V29.01H6.08Z" stroke="#4C2C57" stroke-width="2" stroke-miterlimit="10"/>
<path d="M6.08 29.01L6.61 28.5L9 23.93L9.76 23.42H18.34V16.42H13.62L13.2 15.91L18.34 6.11001V1.01001H18.32H13.24L12.73 1.52001L10.33 6.11001L9.58 6.62001H1V13.61H5.71L6.14 14.11L1 23.93V29.01H6.08Z" fill="white"/>
<path d="M28.4301 16.4099L21.8301 28.9999H25.7401L26.7401 27.1599H31.1501L31.5501 28.9999H35.4601L32.4601 16.3999L28.4301 16.4099ZM28.2701 24.1599L29.7301 21.3999L30.4001 24.1599H28.2701Z" stroke="#4C2C57" stroke-width="2" stroke-miterlimit="10"/>
<path d="M28.4301 16.4099L21.8301 28.9999H25.7401L26.7401 27.1599H31.1501L31.5501 28.9999H35.4601L32.4601 16.3999L28.4301 16.4099ZM28.2701 24.1599L29.7301 21.3999L30.4001 24.1599H28.2701Z" fill="white"/>
<path d="M46.8501 21C46.8838 20.3789 46.7839 19.7579 46.5571 19.1787C46.3304 18.5995 45.9821 18.0757 45.5357 17.6426C45.0893 17.2095 44.5552 16.8771 43.9695 16.6679C43.3837 16.4588 42.7599 16.3776 42.1401 16.43H36.1401V29H40.0001V25.34H41.6701L43.4501 29H47.3501L45.0001 24.57C45.5905 24.1854 46.0712 23.6544 46.3955 23.0287C46.7197 22.4031 46.8763 21.7042 46.8501 21V21ZM41.6101 22.33H39.9401V19.76H41.6101C42.6101 19.76 43.0101 20.27 43.0101 21.05C43.0101 21.83 42.6201 22.31 41.6101 22.31V22.33Z" stroke="#4C2C57" stroke-width="2" stroke-miterlimit="10"/>
<path d="M46.8501 21C46.8838 20.3789 46.7839 19.7579 46.5571 19.1787C46.3304 18.5995 45.9821 18.0757 45.5357 17.6426C45.0893 17.2095 44.5552 16.8771 43.9695 16.6679C43.3837 16.4588 42.7599 16.3776 42.1401 16.43H36.1401V29H40.0001V25.34H41.6701L43.4501 29H47.3501L45.0001 24.57C45.5905 24.1854 46.0712 23.6544 46.3955 23.0287C46.7197 22.4031 46.8763 21.7042 46.8501 21V21ZM41.6101 22.33H39.9401V19.76H41.6101C42.6101 19.76 43.0101 20.27 43.0101 21.05C43.0101 21.83 42.6201 22.31 41.6101 22.31V22.33Z" fill="white"/>
<path d="M54.7301 25.9099V19.7599H57.9501L59.6901 16.4099H47.3901V19.7599H50.9601V29.0099H53.0901L54.7301 25.9099Z" stroke="#4C2C57" stroke-width="2" stroke-miterlimit="10"/>
<path d="M54.7301 25.9099V19.7599H57.9501L59.6901 16.4099H47.3901V19.7599H50.9601V29.0099H53.0901L54.7301 25.9099Z" fill="white"/>
<path d="M72.27 1.01001H68.5V13.6H72.27V1.01001Z" stroke="#4C2C57" stroke-width="2" stroke-miterlimit="10"/>
<path d="M72.27 1.01001H68.5V13.6H72.27V1.01001Z" fill="white"/>
<path d="M36.48 1L34.8 4.26H35.8C36.2046 4.23601 36.6095 4.29887 36.9878 4.44435C37.366 4.58984 37.7087 4.81459 37.9929 5.1035C38.2771 5.39241 38.4961 5.73879 38.6353 6.11937C38.7745 6.49995 38.8307 6.90592 38.8 7.31C38.829 7.7137 38.7717 8.11896 38.6319 8.49879C38.4921 8.87863 38.273 9.22432 37.9892 9.51288C37.7054 9.80143 37.3633 10.0262 36.9859 10.1723C36.6084 10.3184 36.2041 10.3823 35.8 10.36H34.66V4.52L31.02 11.52V13.67H36.09C40.17 13.67 42.57 11.2 42.57 7.38C42.57 3.56 40.32 1.17 36.48 1Z" stroke="#4C2C57" stroke-width="2" stroke-miterlimit="10"/>
<path d="M36.48 1L34.8 4.26H35.8C36.2046 4.23601 36.6095 4.29887 36.9878 4.44435C37.366 4.58984 37.7087 4.81459 37.9929 5.1035C38.2771 5.39241 38.4961 5.73879 38.6353 6.11937C38.7745 6.49995 38.8307 6.90592 38.8 7.31C38.829 7.7137 38.7717 8.11896 38.6319 8.49879C38.4921 8.87863 38.273 9.22432 37.9892 9.51288C37.7054 9.80143 37.3633 10.0262 36.9859 10.1723C36.6084 10.3184 36.2041 10.3823 35.8 10.36H34.66V4.52L31.02 11.52V13.67H36.09C40.17 13.67 42.57 11.2 42.57 7.38C42.57 3.56 40.32 1.17 36.48 1Z" fill="white"/>
<path d="M53.1798 10.26H47.3298V8.90001H52.6998V5.71001H47.3298V4.35001H53.1798V1.01001H43.5698V13.61H53.1798V10.26Z" stroke="#4C2C57" stroke-width="2" stroke-miterlimit="10"/>
<path d="M53.1798 10.26H47.3298V8.90001H52.6998V5.71001H47.3298V4.35001H53.1798V1.01001H43.5698V13.61H53.1798V10.26Z" fill="white"/>
<path d="M59.8701 8.63001L58.0401 1.01001H54.1401L57.1501 13.61H61.1701L67.7601 1.01001H63.8501L59.8701 8.63001Z" stroke="#4C2C57" stroke-width="2" stroke-miterlimit="10"/>
<path d="M59.8701 8.63001L58.0401 1.01001H54.1401L57.1501 13.61H61.1701L67.7601 1.01001H63.8501L59.8701 8.63001Z" fill="white"/>
<path d="M107.15 10.51V4.35001H110.37L112.12 1.01001H99.8301V4.35001H103.38V13.61H105.53L107.15 10.51Z" stroke="#4C2C57" stroke-width="2" stroke-miterlimit="10"/>
<path d="M107.15 10.51V4.35001H110.37L112.12 1.01001H99.8301V4.35001H103.38V13.61H105.53L107.15 10.51Z" fill="white"/>
<path d="M79.59 1L73 13.61H76.9L77.9 11.77H82.31L82.75 13.61H86.66L83.6 1H79.59ZM79.44 8.73L80.87 6L81.55 8.75L79.44 8.73Z" stroke="#4C2C57" stroke-width="2" stroke-miterlimit="10"/>
<path d="M79.59 1L73 13.61H76.9L77.9 11.77H82.31L82.75 13.61H86.66L83.6 1H79.59ZM79.44 8.73L80.87 6L81.55 8.75L79.44 8.73Z" fill="white"/>
<path d="M91.0801 13.61V7.21001L95.7601 13.61H99.0201V1.01001H95.2501V6.97001L91.0401 1.01001H87.3301V13.61H91.0801Z" stroke="#4C2C57" stroke-width="2" stroke-miterlimit="10"/>
<path d="M91.0801 13.61V7.21001L95.7601 13.61H99.0201V1.01001H95.2501V6.97001L91.0401 1.01001H87.3301V13.61H91.0801Z" fill="white"/>
</g>
<defs>
<clipPath id="clip0_159_258">
<rect width="113.78" height="30.01" fill="white"/>
</clipPath>
</defs>
</svg>
