<svg width="105" height="21" viewBox="0 0 105 21" fill="none" xmlns="http://www.w3.org/2000/svg">
<mask id="mask0_20_1262" style="mask-type:alpha" maskUnits="userSpaceOnUse" x="0" y="0" width="105" height="21">
<path d="M7.6925 6.90763C7.62653 6.25513 7.49276 5.63826 7.26004 5.04388C7.03465 4.46826 6.66999 4.08763 6.01214 4.10638C5.64931 4.11576 5.30847 4.20763 5.02077 4.42326C3.85533 5.28763 3.137 6.43138 2.99957 7.91638C2.98125 8.10763 3.00873 8.30451 3.03988 8.49576C3.09303 8.82763 3.25795 9.10138 3.59329 9.18013C4.11187 9.30013 4.63596 9.40888 5.16371 9.47451C6.2357 9.60951 7.29303 9.79701 8.30454 10.1945C9.05219 10.487 9.73386 10.8901 10.2818 11.4958C11.4399 12.7764 11.4564 14.7264 10.3441 16.1176C9.59643 17.0533 8.61973 17.5839 7.48727 17.8389C6.1459 18.1408 4.8357 18.0451 3.58779 17.4226C3.33308 17.2951 3.0857 17.1376 2.86947 16.952C2.1035 16.2958 2.05769 15.4126 2.73203 14.6551C3.3569 13.9539 4.54433 13.9126 5.15638 14.5726C4.71842 14.5333 4.32994 14.6401 3.9836 14.9383C4.37758 15.4239 4.89433 15.6114 5.45507 15.6958C6.42077 15.8401 7.33884 15.7108 8.17077 15.1483C8.60873 14.852 8.90742 14.4376 9.04303 13.922C9.20428 13.3051 9.00271 12.7914 8.55559 12.3639C8.16161 11.987 7.687 11.762 7.18674 11.582C6.38046 11.2895 5.53936 11.177 4.70193 11.0383C4.12837 10.9445 3.54931 10.817 3.00323 10.6164C2.06685 10.2714 1.62339 9.50263 1.50245 8.52576C1.35952 7.36701 1.66371 6.30013 2.20795 5.29701C2.6569 4.47013 3.23046 3.74263 3.99643 3.19888C4.70193 2.69826 5.47706 2.46201 6.34381 2.61201C7.38648 2.79201 8.09931 3.58326 8.17994 4.66138C8.23491 5.40951 8.10297 6.12013 7.77496 6.79138C7.74931 6.82888 7.71816 6.86826 7.6925 6.90763Z" fill="#645059"/>
<path d="M87.8757 12.5585C87.6705 12.9729 87.4378 13.3273 87.3132 13.7173C87.0731 14.4767 86.8972 15.2567 86.6883 16.0254C86.626 16.2542 86.5674 16.4904 86.4574 16.6985C86.2705 17.0567 85.8912 17.2273 85.532 17.1617C85.1417 17.0904 84.8614 16.8223 84.7954 16.4023C84.7532 16.1379 84.7569 15.866 84.7551 15.5979C84.7496 14.7092 84.7771 13.8185 84.7459 12.9298C84.6708 10.7529 84.6873 8.57604 84.7532 6.39916C84.7972 4.94041 84.8357 3.48166 84.8797 2.02479C84.8852 1.85415 84.9035 1.68165 84.9383 1.5129C85.0116 1.14353 85.2773 0.924152 85.5797 0.963527C85.8784 1.0029 86.0415 1.25603 86.0341 1.64603C85.9865 4.18291 85.9333 6.71791 85.9022 9.25479C85.893 9.97104 85.9498 10.6892 85.9773 11.4504C86.0415 11.3923 86.0763 11.366 86.1056 11.3323C86.2485 11.171 86.3786 10.9985 86.5326 10.8504C87.3517 10.0648 88.3137 10.0217 89.1896 10.7454C89.6679 11.141 90.0527 11.6266 90.3203 12.191C90.6904 12.971 91.0294 13.7679 91.3812 14.5554C91.6396 15.1329 91.9603 15.6635 92.4771 16.046C92.5833 16.1248 92.675 16.226 92.7574 16.3292C93.0066 16.6348 93.3292 16.6985 93.6901 16.6404C94.1153 16.5729 94.5019 16.4117 94.8263 16.1117C94.8483 16.1248 94.8684 16.1379 94.8904 16.151C94.797 16.3648 94.7328 16.5992 94.6064 16.7904C94.1574 17.4729 93.5051 17.8085 92.7153 17.9098C91.4252 18.0748 90.4833 17.531 89.8621 16.4154C89.4517 15.6767 89.1273 14.8873 88.7553 14.1242C88.5428 13.6892 88.3174 13.2635 88.0902 12.836C88.0517 12.7573 87.9802 12.6898 87.8757 12.5585Z" fill="#645059"/>
<path d="M30.4484 17.134C30.4062 17.464 30.223 17.6515 29.8528 17.6909C29.3086 17.749 28.8505 17.5146 28.484 17.149C27.9874 16.654 27.5274 16.1177 27.0785 15.574C26.8879 15.3434 26.7651 15.0546 26.6277 14.8202C26.3217 15.2346 26.0138 15.6771 25.6785 16.0971C25.334 16.5321 24.9125 16.879 24.4141 17.1209C23.485 17.5727 22.5376 17.3552 21.8853 16.5434C21.3594 15.8909 21.1175 15.1259 21.1211 14.299C21.1303 12.4259 21.7533 10.7702 22.9371 9.34336C23.4319 8.74711 24.0677 8.37773 24.8429 8.29148C25.345 8.23711 25.8232 8.33648 26.274 8.55398C27.0565 8.93273 27.7253 9.45023 28.1633 10.2377C28.385 10.6352 28.3465 11.0196 28.1285 11.4059C28.0863 11.4809 28.0772 11.5896 28.0863 11.6777C28.1706 12.4877 28.418 13.2527 28.6984 14.0102C28.9421 14.6665 29.1675 15.3302 29.4057 15.9884C29.4827 16.1984 29.5505 16.4177 29.6696 16.6034C29.7813 16.7796 29.9408 16.9334 30.1039 17.0627C30.1827 17.1284 30.3201 17.1115 30.4484 17.134ZM26.4169 10.1515C25.4567 9.54211 24.6523 9.63961 23.9871 10.4946C23.1607 11.5559 22.7355 12.784 22.7007 14.1434C22.6916 14.5202 22.7594 14.8896 22.9499 15.2215C23.1973 15.6509 23.4227 15.6996 23.8002 15.3884C24.229 15.0359 24.535 14.5821 24.8025 14.0946C25.2735 13.2396 25.508 12.3096 25.6748 11.3571C25.7609 10.8677 25.9039 10.4084 26.4169 10.1515Z" fill="#645059"/>
<path d="M48.8663 17.2706C48.8352 17.5856 48.6501 17.7806 48.2817 17.8218C47.7357 17.8837 47.2776 17.6493 46.9111 17.2856C46.4126 16.7906 45.9545 16.2543 45.5037 15.7125C45.3132 15.4818 45.1886 15.195 45.0236 14.9156C44.9632 15.0206 44.9009 15.1331 44.8312 15.2418C44.3878 15.945 43.8838 16.5937 43.1857 17.055C42.526 17.49 41.826 17.6418 41.0783 17.3043C40.5964 17.0868 40.2666 16.6987 40.0082 16.2431C39.693 15.6862 39.5317 15.0787 39.5372 14.4412C39.5537 12.5606 40.1713 10.8975 41.3642 9.46684C41.8553 8.87809 42.4857 8.51434 43.2535 8.42809C43.7556 8.37184 44.2357 8.47121 44.6846 8.68684C45.4744 9.06746 46.1506 9.58871 46.5867 10.3875C46.8011 10.7793 46.759 11.1581 46.5501 11.5368C46.5079 11.6118 46.4951 11.7187 46.5043 11.8087C46.5867 12.6262 46.8396 13.3987 47.1218 14.1637C47.3619 14.8143 47.5854 15.4706 47.8218 16.1212C47.8988 16.3312 47.9666 16.5506 48.0838 16.7362C48.1956 16.9125 48.3514 17.0681 48.5145 17.1993C48.5951 17.2593 48.7325 17.2462 48.8663 17.2706ZM44.8367 10.2862C43.8619 9.67309 43.0629 9.77621 42.3904 10.6481C41.5749 11.7056 41.1516 12.9281 41.1187 14.28C41.1095 14.6568 41.1773 15.0262 41.3697 15.3581C41.6171 15.7875 41.8425 15.8362 42.22 15.5231C42.6469 15.1706 42.9548 14.715 43.2223 14.2293C43.6933 13.3743 43.926 12.4443 44.0927 11.49C44.1807 11.0006 44.3236 10.5412 44.8367 10.2862Z" fill="#645059"/>
<path d="M64.5099 17.2633C64.5007 17.5689 64.3083 17.777 63.9381 17.822C63.3921 17.8895 62.9321 17.657 62.5656 17.2933C62.0617 16.7945 61.5981 16.2508 61.1436 15.7033C60.953 15.4745 60.8321 15.1839 60.6965 14.9533C60.3886 15.3695 60.079 15.812 59.7436 16.2358C59.4028 16.6633 58.9868 17.0064 58.4975 17.2483C57.5612 17.7095 56.6083 17.4958 55.9504 16.6764C55.4318 16.0295 55.1881 15.272 55.19 14.4526C55.1954 12.5626 55.8222 10.8939 57.0242 9.45952C57.5172 8.87077 58.1494 8.49765 58.9172 8.43577C59.1975 8.41327 59.4944 8.4264 59.7638 8.49952C60.8339 8.79202 61.675 9.4164 62.2413 10.4008C62.4593 10.7814 62.408 11.1564 62.2064 11.5295C62.1643 11.6064 62.146 11.7114 62.1533 11.7995C62.2358 12.617 62.485 13.3895 62.7672 14.1545C63.0109 14.8108 63.2345 15.4745 63.4745 16.1326C63.5515 16.3426 63.6193 16.562 63.7384 16.7458C63.8502 16.922 64.0096 17.0739 64.1745 17.2033C64.2551 17.2633 64.3944 17.2445 64.5099 17.2633ZM60.4876 10.2845C59.4981 9.67327 58.7138 9.7764 58.0394 10.6501C57.224 11.7076 56.8007 12.932 56.7695 14.282C56.7604 14.6664 56.8318 15.0433 57.0334 15.3789C57.2771 15.7839 57.4915 15.827 57.8562 15.5345C58.2886 15.1858 58.5965 14.732 58.8659 14.2464C59.3331 13.4008 59.5732 12.4783 59.7381 11.5314C59.8242 11.027 59.9598 10.5489 60.4876 10.2845Z" fill="#645059"/>
<path d="M66.5753 10.4569C66.7842 10.2525 66.9436 10.0763 67.1232 9.9244C68.0285 9.16315 69.084 9.2269 69.8994 10.0875C70.308 10.5188 70.5829 11.04 70.8193 11.5819C71.1766 12.4013 71.512 13.2319 71.8675 14.0531C71.9792 14.3119 72.1258 14.5556 72.2559 14.8069C72.4154 15.1163 72.5894 15.42 72.7305 15.7388C72.9376 16.2056 73.2161 16.3256 73.6578 16.0781C73.9436 15.9188 74.213 15.7275 74.486 15.5513C74.3578 16.4663 73.491 17.5988 72.2285 17.2688C71.1949 16.9969 70.4033 16.4213 69.9654 15.4163C69.6135 14.6119 69.313 13.7831 68.9813 12.9675C68.8182 12.5681 68.6368 12.1781 68.4646 11.7844C68.4408 11.7825 68.4169 11.7788 68.3931 11.7769C68.2942 11.9363 68.1842 12.0919 68.0963 12.2569C67.6876 13.0256 67.5227 13.8694 67.3926 14.7206C67.2771 15.4744 67.1837 16.23 67.0829 16.9875C67.0298 17.3963 66.8758 17.7375 66.4855 17.9156C65.8203 18.2175 65.1552 17.73 65.1167 16.9313C65.0617 15.7969 65.1552 14.6756 65.3476 13.5581C65.3897 13.3163 65.408 13.0688 65.4099 12.8231C65.4209 11.7525 65.4154 10.6838 65.4319 9.61315C65.4355 9.35627 65.4887 9.09377 65.551 8.84252C65.6169 8.5819 65.7984 8.4469 65.9999 8.4544C66.2033 8.46002 66.3774 8.6044 66.425 8.86877C66.4874 9.22127 66.5167 9.5794 66.5533 9.93377C66.5643 10.0913 66.5661 10.2544 66.5753 10.4569Z" fill="#645059"/>
<path d="M103.418 16.2111C103.321 16.348 103.244 16.5055 103.125 16.618C102.475 17.2292 101.665 17.4824 100.822 17.6399C99.836 17.8255 98.8575 17.6811 97.8698 17.5911C96.4093 17.458 95.013 16.0367 94.8627 14.2161C94.7418 12.7386 95.2384 11.4674 96.1033 10.3236C96.7502 9.47048 97.5161 8.75798 98.535 8.40173C99.4072 8.0961 100.258 8.12985 101.018 8.72235C101.67 9.23235 101.965 9.95048 102.018 10.7661C102.136 12.5511 101.117 13.9667 99.3248 14.4861C98.9216 14.6024 98.491 14.6417 98.0714 14.6624C97.9046 14.6699 97.7214 14.548 97.5656 14.4486C97.441 14.3699 97.4648 14.2517 97.6078 14.1992C97.8203 14.1224 98.0421 14.0699 98.2546 13.9911C98.9546 13.7286 99.5685 13.3386 100.021 12.7161C100.477 12.088 100.536 11.4111 100.243 10.7024C100.038 10.2092 99.7041 10.0649 99.2093 10.2392C98.5716 10.4642 98.0915 10.9124 97.6701 11.4299C97.1771 12.0317 96.8125 12.6974 96.7337 13.4942C96.6476 14.3511 96.9041 15.0505 97.6334 15.5417C98.3151 16.0011 99.0041 16.4286 99.8232 16.5917C100.84 16.7924 101.844 16.7755 102.836 16.4436C102.933 16.4117 103.039 16.3986 103.129 16.3536C103.213 16.3086 103.281 16.2317 103.356 16.1699C103.378 16.183 103.398 16.1961 103.418 16.2111Z" fill="#645059"/>
<path d="M20.5164 16.2169C20.4211 16.3482 20.3405 16.4982 20.225 16.605C19.6075 17.1769 18.8452 17.43 18.0481 17.595C17.0347 17.8069 16.0196 17.7394 15.0117 17.5707C12.9227 17.2182 11.6473 15.4519 11.9845 13.2375C12.3125 11.0757 13.5274 9.52317 15.4662 8.59879C16.1423 8.27629 16.8772 8.23504 17.5827 8.54254C18.5905 8.97942 19.0229 9.83067 19.1182 10.8938C19.241 12.2775 18.6473 13.2919 17.535 14.0232C16.8423 14.4788 16.0764 14.715 15.2518 14.7075C15.074 14.7057 14.8761 14.6382 14.724 14.5407C14.5151 14.4094 14.5408 14.2913 14.7698 14.2069C14.9824 14.13 15.2078 14.085 15.4185 14.0025C16.0947 13.7419 16.6884 13.3594 17.13 12.7594C17.5607 12.1744 17.6211 11.5407 17.3664 10.8732C17.1722 10.365 16.8185 10.2075 16.3091 10.3707C15.0923 10.7588 13.8371 12.4594 13.8115 13.7625C13.795 14.5444 14.1046 15.1407 14.7625 15.5625C15.4094 15.9769 16.0562 16.3744 16.8149 16.5507C17.9766 16.8188 19.1109 16.7325 20.2305 16.3463C20.3167 16.3163 20.3808 16.2225 20.4559 16.1588C20.4724 16.1794 20.4944 16.1982 20.5164 16.2169Z" fill="#645059"/>
<path d="M38.1627 11.4823C38.1059 13.2973 37.3253 15.1629 35.907 16.7548C35.4599 17.2573 34.9065 17.6117 34.2376 17.7279C33.2646 17.8967 32.4858 17.5142 31.8517 16.7867C31.2837 16.1342 30.9557 15.3504 30.7614 14.5123C30.4059 12.9729 30.1805 11.4148 30.2044 9.82667C30.2062 9.69355 30.219 9.55667 30.2465 9.4273C30.3051 9.15355 30.4976 8.98667 30.7284 8.98667C30.952 8.98667 31.1426 9.14417 31.1921 9.4198C31.2544 9.7648 31.2873 10.1154 31.3332 10.4642C31.4944 11.7429 31.7711 12.9973 32.1889 14.2123C32.3245 14.6098 32.5462 14.981 32.7716 15.3373C32.8944 15.5304 33.0887 15.6898 33.2774 15.8229C33.5376 16.0048 33.8216 15.986 34.0745 15.7873C34.2065 15.6823 34.3421 15.5717 34.4465 15.4404C35.3352 14.3023 35.841 13.016 35.929 11.5554C35.9528 11.156 35.8373 10.8523 35.568 10.5729C35.2345 10.226 35.13 9.79292 35.2766 9.32792C35.4269 8.8498 35.7659 8.55167 36.2423 8.43917C36.869 8.29292 37.4847 8.62855 37.8109 9.27917C38.0473 9.74042 38.1646 10.3629 38.1627 11.4823Z" fill="#645059"/>
<path d="M83.1994 14.6155C83.1187 14.8761 83.0876 15.1705 82.9465 15.3898C82.7834 15.6448 82.5434 15.8623 82.2996 16.048C81.3834 16.7492 80.3132 17.1148 79.2358 17.4655C78.7098 17.6361 78.1821 17.7261 77.636 17.6173C76.3405 17.3605 75.1604 16.1061 74.968 14.6886C74.6949 12.6917 75.2941 10.9761 76.7528 9.60735C77.6269 8.7861 78.6732 8.73172 79.7635 9.04297C80.4085 9.22672 80.9803 9.55485 81.4714 10.0217C81.5721 10.1173 81.6711 10.2261 81.7334 10.348C81.957 10.7867 81.6418 11.2817 81.1653 11.2161C80.7329 11.1561 80.3114 11.0136 79.879 10.9386C79.5051 10.8748 79.124 10.8223 78.7483 10.8298C78.5376 10.8336 78.2847 10.918 78.1271 11.0567C77.2017 11.8798 76.8297 12.9392 76.9928 14.173C77.079 14.8311 77.5554 15.1836 78.1253 15.3955C79.6371 15.9523 81.1305 15.8492 82.5947 15.2098C82.7486 15.1423 82.8659 14.9773 82.9831 14.8423C83.0436 14.7748 83.0674 14.6755 83.1077 14.5892C83.1389 14.5986 83.1701 14.608 83.1994 14.6155Z" fill="#645059"/>
<path d="M55.1938 16.4569C55.3038 16.7738 55.2103 17.0625 54.9831 17.2406C54.6294 17.52 54.2171 17.6644 53.7773 17.6625C53.2441 17.6625 52.7053 17.6531 52.1812 17.5669C51.3695 17.4356 50.849 16.8469 50.4056 16.2C49.8412 15.3769 49.559 14.4338 49.3739 13.4569C48.9818 11.3888 49.0899 9.32814 49.5333 7.28814C49.8265 5.94751 50.1875 4.62189 50.5668 3.30564C50.7776 2.57439 51.1019 1.87876 51.5894 1.28439C51.7378 1.10439 51.9119 0.928144 52.1079 0.813769C52.2344 0.740644 52.4341 0.742519 52.5826 0.781894C52.7713 0.832519 52.8318 1.05377 52.7328 1.22252C52.042 2.38314 51.6865 3.66564 51.4061 4.97814C51.0469 6.65251 50.7593 8.33814 50.7757 10.0613C50.7867 11.2631 50.9278 12.4481 51.2962 13.5956C51.56 14.4225 51.9613 15.15 52.676 15.6731C53.0645 15.9581 53.3522 16.3894 53.8305 16.5506C54.1127 16.6463 54.4022 16.7306 54.6917 16.7925C54.9171 16.8431 55.159 16.8619 55.1938 16.4569Z" fill="#645059"/>
</mask>
<g mask="url(#mask0_20_1262)">
<rect x="-656" y="-29" width="1512" height="50" fill="white"/>
</g>
</svg>
