<svg width="8" height="8" viewBox="0 0 8 8" fill="none" xmlns="http://www.w3.org/2000/svg">
<path d="M5.38371 1.64058C4.94817 0.300148 3.05183 0.300147 2.61629 1.64058C2.55539 1.82801 2.38072 1.95492 2.18364 1.95492C0.774233 1.95492 0.188229 3.75845 1.32847 4.58688C1.48791 4.70272 1.55463 4.90806 1.49372 5.09549C1.05819 6.43592 2.59237 7.55057 3.73261 6.72214C3.89205 6.60629 4.10795 6.60629 4.26739 6.72214C5.40763 7.55057 6.94181 6.43592 6.50628 5.09549C6.44537 4.90806 6.51209 4.70272 6.67153 4.58688C7.81177 3.75845 7.22577 1.95492 5.81636 1.95492C5.61928 1.95492 5.44461 1.82801 5.38371 1.64058Z" fill="#F29CC2" stroke="#4C2C57"/>
</svg>
