<svg width="41" height="40" viewBox="0 0 41 40" fill="none" xmlns="http://www.w3.org/2000/svg">
<path d="M11.5698 8.31743C15.0092 10.9568 18.7087 16.3083 20.067 19.1802C21.4254 16.3085 25.1246 10.9567 28.5642 8.31743C31.0459 6.41298 35.0669 4.93942 35.0669 9.62836C35.0669 10.5648 34.5416 17.495 34.2336 18.6201C33.1627 22.5316 29.2606 23.5293 25.7897 22.9255C31.8569 23.981 33.4003 27.4772 30.0671 30.9734C23.7366 37.6135 20.9683 29.3074 20.2587 27.1791C20.1286 26.789 20.0678 26.6064 20.0669 26.7616C20.066 26.6064 20.0052 26.789 19.8751 27.1791C19.1658 29.3074 16.3976 37.6137 10.0667 30.9734C6.73344 27.4772 8.27682 23.9808 14.3441 22.9255C10.8731 23.5293 6.9709 22.5316 5.90022 18.6201C5.59214 17.4949 5.06689 10.5647 5.06689 9.62836C5.06689 4.93942 9.08818 6.41298 11.5698 8.31743Z" fill="#FEFCFC"/>
<path d="M11.7035 8.31743C15.143 10.9568 18.8425 16.3083 20.2007 19.1802C21.5591 16.3085 25.2584 10.9567 28.6979 8.31743C31.1796 6.41298 35.2006 4.93942 35.2006 9.62836C35.2006 10.5648 34.6754 17.495 34.3673 18.6201C33.2965 22.5316 29.3944 23.5293 25.9234 22.9255C31.9906 23.981 33.534 27.4772 30.2008 30.9734C23.8703 37.6135 21.1021 29.3074 20.3924 27.1791C20.2624 26.789 20.2015 26.6064 20.2006 26.7616C20.1997 26.6064 20.1389 26.789 20.0089 27.1791C19.2995 29.3074 16.5313 37.6137 10.2005 30.9734C6.86717 27.4772 8.41056 23.9808 14.4779 22.9255C11.0068 23.5293 7.10464 22.5316 6.03396 18.6201C5.72588 17.4949 5.20063 10.5647 5.20063 9.62836C5.20063 4.93942 9.22192 6.41298 11.7035 8.31743Z" fill="#FEFCFC"/>
<path d="M11.5698 8.31743C15.0092 10.9568 18.7087 16.3083 20.067 19.1802C21.4254 16.3085 25.1246 10.9567 28.5642 8.31743C31.0459 6.41298 35.0669 4.93942 35.0669 9.62836C35.0669 10.5648 34.5416 17.495 34.2336 18.6201C33.1627 22.5316 29.2606 23.5293 25.7897 22.9255C31.8569 23.981 33.4003 27.4772 30.0671 30.9734C23.7366 37.6135 20.9683 29.3074 20.2587 27.1791C20.1286 26.789 20.0678 26.6064 20.0669 26.7616C20.066 26.6064 20.0052 26.789 19.8751 27.1791C19.1658 29.3074 16.3976 37.6137 10.0667 30.9734C6.73344 27.4772 8.27682 23.9808 14.3441 22.9255C10.8731 23.5293 6.9709 22.5316 5.90022 18.6201C5.59214 17.4949 5.06689 10.5647 5.06689 9.62836C5.06689 4.93942 9.08818 6.41298 11.5698 8.31743Z" stroke="#FEFCFC"/>
<path d="M11.7035 8.31743C15.143 10.9568 18.8425 16.3083 20.2007 19.1802C21.5591 16.3085 25.2584 10.9567 28.6979 8.31743C31.1796 6.41298 35.2006 4.93942 35.2006 9.62836C35.2006 10.5648 34.6754 17.495 34.3673 18.6201C33.2965 22.5316 29.3944 23.5293 25.9234 22.9255C31.9906 23.981 33.534 27.4772 30.2008 30.9734C23.8703 37.6135 21.1021 29.3074 20.3924 27.1791C20.2624 26.789 20.2015 26.6064 20.2006 26.7616C20.1997 26.6064 20.1389 26.789 20.0089 27.1791C19.2995 29.3074 16.5313 37.6137 10.2005 30.9734C6.86717 27.4772 8.41056 23.9808 14.4779 22.9255C11.0068 23.5293 7.10464 22.5316 6.03396 18.6201C5.72588 17.4949 5.20063 10.5647 5.20063 9.62836C5.20063 4.93942 9.22192 6.41298 11.7035 8.31743Z" stroke="#FEFCFC"/>
<path d="M12.1363 9.44896C15.3464 11.8439 18.7993 16.6999 20.067 19.3059C21.3348 16.7001 24.7875 11.8439 27.9977 9.44896C30.314 7.72084 34.0669 6.38373 34.0669 10.6385C34.0669 11.4882 33.5767 17.7767 33.2891 18.7976C32.2897 22.347 28.6477 23.2523 25.4081 22.7044C31.0709 23.6622 32.5114 26.8347 29.4004 30.0072C23.4919 36.0324 20.9082 28.4954 20.2459 26.5642C20.1245 26.2102 20.0677 26.0445 20.0669 26.1854C20.0661 26.0445 20.0093 26.2102 19.8879 26.5642C19.2259 28.4954 16.6422 36.0326 10.7334 30.0072C7.62233 26.8347 9.06283 23.662 14.7257 22.7044C11.486 23.2523 7.84397 22.347 6.84466 18.7976C6.55712 17.7766 6.06689 11.4881 6.06689 10.6385C6.06689 6.38373 9.8201 7.72084 12.1363 9.44896Z" fill="#9BD0E2"/>
</svg>
