<svg width="41" height="40" viewBox="0 0 41 40" fill="none" xmlns="http://www.w3.org/2000/svg">
<path d="M11.8374 8.31743C15.2768 10.9568 18.9763 16.3083 20.3346 19.1802C21.6929 16.3085 25.3922 10.9567 28.8318 8.31743C31.3135 6.41298 35.3345 4.93942 35.3345 9.62836C35.3345 10.5648 34.8092 17.495 34.5012 18.6201C33.4303 22.5316 29.5282 23.5293 26.0572 22.9255C32.1244 23.981 33.6679 27.4772 30.3346 30.9734C24.0042 37.6135 21.2359 29.3074 20.5262 27.1791C20.3962 26.789 20.3354 26.6064 20.3345 26.7616C20.3336 26.6064 20.2727 26.789 20.1427 27.1791C19.4334 29.3074 16.6651 37.6137 10.3343 30.9734C7.00101 27.4772 8.5444 23.9808 14.6117 22.9255C11.1406 23.5293 7.23848 22.5316 6.1678 18.6201C5.85972 17.4949 5.33447 10.5647 5.33447 9.62836C5.33447 4.93942 9.35576 6.41298 11.8374 8.31743Z" fill="#F9E8EC"/>
<path d="M11.9711 8.31743C15.4105 10.9568 19.11 16.3083 20.4683 19.1802C21.8267 16.3085 25.526 10.9567 28.9655 8.31743C31.4472 6.41298 35.4682 4.93942 35.4682 9.62836C35.4682 10.5648 34.943 17.495 34.6349 18.6201C33.5641 22.5316 29.662 23.5293 26.191 22.9255C32.2582 23.981 33.8016 27.4772 30.4684 30.9734C24.1379 37.6135 21.3696 29.3074 20.66 27.1791C20.53 26.789 20.4691 26.6064 20.4682 26.7616C20.4673 26.6064 20.4065 26.789 20.2764 27.1791C19.5671 29.3074 16.7989 37.6137 10.468 30.9734C7.13475 27.4772 8.67814 23.9808 14.7455 22.9255C11.2744 23.5293 7.37222 22.5316 6.30153 18.6201C5.99346 17.4949 5.46821 10.5647 5.46821 9.62836C5.46821 4.93942 9.4895 6.41298 11.9711 8.31743Z" fill="#F9E8EC"/>
<path d="M11.8374 8.31743C15.2768 10.9568 18.9763 16.3083 20.3346 19.1802C21.6929 16.3085 25.3922 10.9567 28.8318 8.31743C31.3135 6.41298 35.3345 4.93942 35.3345 9.62836C35.3345 10.5648 34.8092 17.495 34.5012 18.6201C33.4303 22.5316 29.5282 23.5293 26.0572 22.9255C32.1244 23.981 33.6679 27.4772 30.3346 30.9734C24.0042 37.6135 21.2359 29.3074 20.5262 27.1791C20.3962 26.789 20.3354 26.6064 20.3345 26.7616C20.3336 26.6064 20.2727 26.789 20.1427 27.1791C19.4334 29.3074 16.6651 37.6137 10.3343 30.9734C7.00101 27.4772 8.5444 23.9808 14.6117 22.9255C11.1406 23.5293 7.23848 22.5316 6.1678 18.6201C5.85972 17.4949 5.33447 10.5647 5.33447 9.62836C5.33447 4.93942 9.35576 6.41298 11.8374 8.31743Z" stroke="#F9E8EC"/>
<path d="M11.9711 8.31743C15.4105 10.9568 19.11 16.3083 20.4683 19.1802C21.8267 16.3085 25.526 10.9567 28.9655 8.31743C31.4472 6.41298 35.4682 4.93942 35.4682 9.62836C35.4682 10.5648 34.943 17.495 34.6349 18.6201C33.5641 22.5316 29.662 23.5293 26.191 22.9255C32.2582 23.981 33.8016 27.4772 30.4684 30.9734C24.1379 37.6135 21.3696 29.3074 20.66 27.1791C20.53 26.789 20.4691 26.6064 20.4682 26.7616C20.4673 26.6064 20.4065 26.789 20.2764 27.1791C19.5671 29.3074 16.7989 37.6137 10.468 30.9734C7.13475 27.4772 8.67814 23.9808 14.7455 22.9255C11.2744 23.5293 7.37222 22.5316 6.30153 18.6201C5.99346 17.4949 5.46821 10.5647 5.46821 9.62836C5.46821 4.93942 9.4895 6.41298 11.9711 8.31743Z" stroke="#F9E8EC"/>
<path d="M12.4038 9.44896C15.614 11.8439 19.0668 16.6999 20.3346 19.3059C21.6024 16.7001 25.055 11.8439 28.2653 9.44896C30.5815 7.72084 34.3345 6.38373 34.3345 10.6385C34.3345 11.4882 33.8442 17.7767 33.5567 18.7976C32.5573 22.347 28.9153 23.2523 25.6757 22.7044C31.3384 23.6622 32.779 26.8347 29.668 30.0072C23.7595 36.0324 21.1758 28.4954 20.5135 26.5642C20.3921 26.2102 20.3353 26.0445 20.3345 26.1854C20.3336 26.0445 20.2768 26.2102 20.1555 26.5642C19.4934 28.4954 16.9098 36.0326 11.001 30.0072C7.88991 26.8347 9.33041 23.662 14.9932 22.7044C11.7536 23.2523 8.11154 22.347 7.11224 18.7976C6.8247 17.7766 6.33447 11.4881 6.33447 10.6385C6.33447 6.38373 10.0877 7.72084 12.4038 9.44896Z" fill="#958ABF"/>
</svg>
