<svg width="30" height="30" viewBox="0 0 30 30" fill="none" xmlns="http://www.w3.org/2000/svg">
<g clip-path="url(#clip0_159_311)">
<path d="M15 3.52C18.74 3.52 19.19 3.52 20.66 3.6C21.5477 3.61009 22.4272 3.77245 23.26 4.08C23.8604 4.29167 24.4067 4.63311 24.86 5.08C25.3297 5.52829 25.6892 6.07938 25.91 6.69C26.2187 7.52251 26.3811 8.40214 26.39 9.29C26.46 10.76 26.47 11.21 26.47 14.94C26.47 18.67 26.47 19.13 26.39 20.6C26.3787 21.4876 26.2164 22.3669 25.91 23.2C25.6731 23.7995 25.3157 24.3441 24.8599 24.7999C24.4041 25.2557 23.8595 25.6131 23.26 25.85C22.4269 26.1564 21.5476 26.3187 20.66 26.33C19.18 26.4 18.74 26.41 15 26.41C11.26 26.41 10.82 26.41 9.35 26.33C8.46214 26.3211 7.58251 26.1587 6.75 25.85C6.14593 25.64 5.59603 25.2984 5.14 24.85C4.69126 24.3981 4.34955 23.8514 4.14 23.25C3.82388 22.4192 3.65797 21.5389 3.65 20.65C3.59 19.17 3.57 18.73 3.57 14.99C3.57 11.25 3.57 10.81 3.65 9.34C3.6556 8.45091 3.82159 7.57013 4.14 6.74C4.34944 6.13564 4.69107 5.58561 5.14 5.13C5.59863 4.68492 6.14775 4.34386 6.75 4.13C7.58251 3.82129 8.46214 3.6589 9.35 3.65C10.82 3.54 11.26 3.52 15 3.52ZM15 1C11.2 1 10.73 1 9.23 1.08C8.07164 1.10595 6.9258 1.32565 5.84 1.73C4.90164 2.08165 4.05172 2.63462 3.35 3.35C2.63707 4.04984 2.08438 4.89595 1.73 5.83C1.32672 6.91957 1.10707 8.06851 1.08 9.23C1 10.73 1 11.2 1 15C1 18.8 1 19.28 1.08 20.77C1.10707 21.9315 1.32672 23.0804 1.73 24.17C2.08178 25.1054 2.63482 25.952 3.35 26.65C4.04984 27.3629 4.89595 27.9156 5.83 28.27C6.91957 28.6733 8.06851 28.8929 9.23 28.92C10.72 28.98 11.23 29 15 29C18.77 29 19.27 29 20.77 28.92C21.9284 28.8941 23.0742 28.6743 24.16 28.27C25.0881 27.9071 25.9313 27.3566 26.6368 26.6528C27.3422 25.949 27.8949 25.1072 28.26 24.18C28.6622 23.0901 28.8818 21.9414 28.91 20.78C28.97 19.29 28.99 18.78 28.99 15.01C28.99 11.24 28.99 10.73 28.91 9.24C28.8829 8.07851 28.6633 6.92957 28.26 5.84C27.9198 4.89832 27.3691 4.04669 26.65 3.35C25.9535 2.64016 25.1106 2.09073 24.18 1.74C23.0931 1.32733 21.9425 1.10737 20.78 1.09C19.28 1 18.8 1 15 1Z" stroke="#4C2C57" stroke-width="2" stroke-miterlimit="10"/>
<path d="M15 3.52C18.74 3.52 19.19 3.52 20.66 3.6C21.5477 3.61009 22.4272 3.77245 23.26 4.08C23.8604 4.29167 24.4067 4.63311 24.86 5.08C25.3297 5.52829 25.6892 6.07938 25.91 6.69C26.2187 7.52251 26.3811 8.40214 26.39 9.29C26.46 10.76 26.47 11.21 26.47 14.94C26.47 18.67 26.47 19.13 26.39 20.6C26.3787 21.4876 26.2164 22.3669 25.91 23.2C25.6731 23.7995 25.3157 24.3441 24.8599 24.7999C24.4041 25.2557 23.8595 25.6131 23.26 25.85C22.4269 26.1564 21.5476 26.3187 20.66 26.33C19.18 26.4 18.74 26.41 15 26.41C11.26 26.41 10.82 26.41 9.35 26.33C8.46214 26.3211 7.58251 26.1587 6.75 25.85C6.14593 25.64 5.59603 25.2984 5.14 24.85C4.69126 24.3981 4.34955 23.8514 4.14 23.25C3.82388 22.4192 3.65797 21.5389 3.65 20.65C3.59 19.17 3.57 18.73 3.57 14.99C3.57 11.25 3.57 10.81 3.65 9.34C3.6556 8.45091 3.82159 7.57013 4.14 6.74C4.34944 6.13564 4.69107 5.58561 5.14 5.13C5.59863 4.68492 6.14775 4.34386 6.75 4.13C7.58251 3.82129 8.46214 3.6589 9.35 3.65C10.82 3.54 11.26 3.52 15 3.52ZM15 1C11.2 1 10.73 1 9.23 1.08C8.07164 1.10595 6.9258 1.32565 5.84 1.73C4.90164 2.08165 4.05172 2.63462 3.35 3.35C2.63707 4.04984 2.08438 4.89595 1.73 5.83C1.32672 6.91957 1.10707 8.06851 1.08 9.23C1 10.73 1 11.2 1 15C1 18.8 1 19.28 1.08 20.77C1.10707 21.9315 1.32672 23.0804 1.73 24.17C2.08178 25.1054 2.63482 25.952 3.35 26.65C4.04984 27.3629 4.89595 27.9156 5.83 28.27C6.91957 28.6733 8.06851 28.8929 9.23 28.92C10.72 28.98 11.23 29 15 29C18.77 29 19.27 29 20.77 28.92C21.9284 28.8941 23.0742 28.6743 24.16 28.27C25.0881 27.9071 25.9313 27.3566 26.6368 26.6528C27.3422 25.949 27.8949 25.1072 28.26 24.18C28.6622 23.0901 28.8818 21.9414 28.91 20.78C28.97 19.29 28.99 18.78 28.99 15.01C28.99 11.24 28.99 10.73 28.91 9.24C28.8829 8.07851 28.6633 6.92957 28.26 5.84C27.9198 4.89832 27.3691 4.04669 26.65 3.35C25.9535 2.64016 25.1106 2.09073 24.18 1.74C23.0931 1.32733 21.9425 1.10737 20.78 1.09C19.28 1 18.8 1 15 1Z" fill="white"/>
<path d="M14.9998 7.81007C13.5753 7.81007 12.1829 8.23259 10.9987 9.02418C9.81441 9.81577 8.89157 10.9408 8.34692 12.2571C7.80226 13.5733 7.66026 15.0215 7.93889 16.4184C8.21751 17.8153 8.90424 19.0982 9.91218 20.1048C10.9201 21.1113 12.204 21.7963 13.6013 22.0729C14.9986 22.3496 16.4466 22.2056 17.7621 21.6591C19.0775 21.1126 20.2013 20.1882 20.9912 19.0029C21.7812 17.8175 22.2018 16.4245 22.1998 15.0001C22.1998 14.055 22.0135 13.1192 21.6515 12.2463C21.2896 11.3733 20.7591 10.5802 20.0904 9.91243C19.4217 9.24464 18.6279 8.71524 17.7544 8.3545C16.8809 7.99376 15.9448 7.80875 14.9998 7.81007V7.81007ZM14.9998 19.6701C14.0762 19.6701 13.1733 19.3962 12.4053 18.883C11.6373 18.3699 11.0387 17.6405 10.6853 16.7872C10.3318 15.9339 10.2393 14.9949 10.4195 14.089C10.5997 13.1831 11.0445 12.351 11.6976 11.6979C12.3507 11.0448 13.1828 10.6 14.0887 10.4198C14.9946 10.2396 15.9336 10.3321 16.7869 10.6855C17.6403 11.039 18.3696 11.6376 18.8828 12.4056C19.3959 13.1735 19.6698 14.0764 19.6698 15.0001C19.6698 16.2386 19.1778 17.4265 18.302 18.3023C17.4262 19.178 16.2384 19.6701 14.9998 19.6701V19.6701Z" stroke="#4C2C57" stroke-width="2" stroke-miterlimit="10"/>
<path d="M14.9998 7.81007C13.5753 7.81007 12.1829 8.23259 10.9987 9.02418C9.81441 9.81577 8.89157 10.9408 8.34692 12.2571C7.80226 13.5733 7.66026 15.0215 7.93889 16.4184C8.21751 17.8153 8.90424 19.0982 9.91218 20.1048C10.9201 21.1113 12.204 21.7963 13.6013 22.0729C14.9986 22.3496 16.4466 22.2056 17.7621 21.6591C19.0775 21.1126 20.2013 20.1882 20.9912 19.0029C21.7812 17.8175 22.2018 16.4245 22.1998 15.0001C22.1998 14.055 22.0135 13.1192 21.6515 12.2463C21.2896 11.3733 20.7591 10.5802 20.0904 9.91243C19.4217 9.24464 18.6279 8.71524 17.7544 8.3545C16.8809 7.99376 15.9448 7.80875 14.9998 7.81007V7.81007ZM14.9998 19.6701C14.0762 19.6701 13.1733 19.3962 12.4053 18.883C11.6373 18.3699 11.0387 17.6405 10.6853 16.7872C10.3318 15.9339 10.2393 14.9949 10.4195 14.089C10.5997 13.1831 11.0445 12.351 11.6976 11.6979C12.3507 11.0448 13.1828 10.6 14.0887 10.4198C14.9946 10.2396 15.9336 10.3321 16.7869 10.6855C17.6403 11.039 18.3696 11.6376 18.8828 12.4056C19.3959 13.1735 19.6698 14.0764 19.6698 15.0001C19.6698 16.2386 19.1778 17.4265 18.302 18.3023C17.4262 19.178 16.2384 19.6701 14.9998 19.6701V19.6701Z" fill="white"/>
<path d="M22.5428 9.21219C23.47 9.17706 24.1932 8.39696 24.158 7.46978C24.1229 6.54261 23.3428 5.81947 22.4156 5.8546C21.4884 5.88973 20.7653 6.66984 20.8004 7.59701C20.8356 8.52418 21.6157 9.24732 22.5428 9.21219Z" stroke="#4C2C57" stroke-width="2" stroke-miterlimit="10"/>
<path d="M22.5428 9.21219C23.47 9.17706 24.1932 8.39696 24.158 7.46978C24.1229 6.54261 23.3428 5.81947 22.4156 5.8546C21.4884 5.88973 20.7653 6.66984 20.8004 7.59701C20.8356 8.52418 21.6157 9.24732 22.5428 9.21219Z" fill="white"/>
</g>
<defs>
<clipPath id="clip0_159_311">
<rect width="29.99" height="30" fill="white"/>
</clipPath>
</defs>
</svg>
