<svg width="174" height="30" viewBox="0 0 174 30" fill="none" xmlns="http://www.w3.org/2000/svg">
<path d="M86.9718 0.901611C114.192 0.901611 141.412 0.901611 168.633 0.901611C169.615 0.901611 170.531 1.14396 171.324 1.74983C172.244 2.45084 172.826 3.36615 172.996 4.52281C173.027 4.71962 173.045 4.91843 173.047 5.11767C173.047 11.5021 173.047 17.886 173.047 24.2692C173.047 26.3291 171.432 28.1688 169.396 28.4292C169.124 28.4635 168.849 28.4809 168.575 28.4812C114.176 28.4812 59.7768 28.4812 5.37659 28.4812C4.04868 28.4812 2.88902 28.0556 1.98872 27.0432C1.40492 26.4053 1.04217 25.5961 0.954238 24.7359C0.916095 24.3308 0.89838 23.924 0.901162 23.5171C0.901162 17.4251 0.901162 11.3333 0.901162 5.24185C0.889612 4.21411 1.24835 3.21656 1.9118 2.43156C2.57525 1.64657 3.49906 1.12659 4.51435 0.966705C4.79395 0.923449 5.07667 0.903685 5.35957 0.90762C32.564 0.903614 59.768 0.901611 86.9718 0.901611ZM12.5099 15.1451C12.4918 20.1433 16.5366 24.2582 21.5568 24.3373C22.7768 24.3553 23.9882 24.1309 25.1207 23.6769C26.2532 23.223 27.2843 22.5487 28.1541 21.6931C29.0239 20.8375 29.7151 19.8176 30.1876 18.6927C30.6599 17.5678 30.9043 16.3601 30.9063 15.1401C30.9063 10.195 26.9496 5.94486 21.7161 5.93785C20.5056 5.93281 19.3061 6.16754 18.1868 6.62847C17.0675 7.0894 16.0506 7.76743 15.1947 8.62342C14.3388 9.47941 13.6609 10.4964 13.2 11.6157C12.7393 12.7351 12.5046 13.9346 12.5099 15.1451ZM96.9542 12.4823C96.9382 12.4632 96.9301 12.4572 96.9281 12.4492C96.9161 12.3841 96.9041 12.319 96.8941 12.2489C96.8724 12.0905 96.7958 11.9448 96.6775 11.8371C96.5592 11.7295 96.4069 11.6668 96.2472 11.6601C95.7645 11.63 95.462 11.9285 95.462 12.4452C95.462 14.0555 95.462 15.6658 95.462 17.2761C95.4601 17.3598 95.4668 17.4433 95.4821 17.5255C95.5512 17.87 95.8316 18.0773 96.2111 18.0713C96.3751 18.074 96.5346 18.017 96.6597 17.9109C96.7848 17.8048 96.8671 17.6568 96.8911 17.4945C96.9077 17.3707 96.9154 17.2458 96.9141 17.1209C96.9141 16.1863 96.9141 15.2515 96.9141 14.3169C96.9141 13.2934 97.6832 12.6815 98.6797 12.9029C98.9991 12.974 99.2355 13.1492 99.3336 13.4557C99.4188 13.7074 99.4671 13.9702 99.4768 14.2358C99.4928 15.2372 99.4768 16.2386 99.4868 17.2401C99.4836 17.3974 99.5122 17.5537 99.5709 17.6997C99.7081 18.0002 100.056 18.1394 100.399 18.0583C100.558 18.0174 100.699 17.9231 100.796 17.791C100.894 17.6589 100.943 17.4973 100.935 17.3332C100.935 16.3228 100.935 15.3133 100.935 14.3039C100.935 13.2944 101.721 12.6755 102.716 12.9019C103.017 12.971 103.25 13.1302 103.34 13.4196C103.431 13.6947 103.485 13.9812 103.497 14.2708C103.515 15.2803 103.497 16.2907 103.505 17.3002C103.505 17.7528 103.782 18.0553 104.189 18.0673C104.657 18.0813 104.953 17.7979 104.955 17.3152C104.955 16.2547 104.971 15.1951 104.949 14.1356C104.938 13.7278 104.883 13.3224 104.786 12.9259C104.671 12.4372 104.449 11.9805 103.959 11.7652C103.146 11.4067 102.331 11.4037 101.589 11.9465C101.274 12.1768 101.016 12.4853 100.746 12.7476C100.331 11.3626 98.21 11.0081 96.9542 12.4823ZM137.423 14.392C137.499 14.4921 137.562 14.5662 137.624 14.6454C138.41 15.6808 139.195 16.7156 139.981 17.7498C140.118 17.9311 140.281 18.0613 140.516 18.0743C140.671 18.0906 140.827 18.0614 140.965 17.9903C141.104 17.9191 141.219 17.8091 141.296 17.6737C141.473 17.3733 141.407 17.0728 141.21 16.8085C140.833 16.2987 140.448 15.796 140.066 15.2903L138.543 13.2734C138.6 13.2293 138.65 13.1993 138.692 13.1592C139.513 12.3774 140.334 11.5943 141.152 10.8098C141.446 10.5254 141.452 10.1539 141.186 9.84947C140.941 9.56907 140.585 9.53602 140.267 9.76935C140.174 9.84023 140.087 9.91753 140.005 10.0007L137.051 12.9189C136.813 13.1532 136.57 13.3805 136.298 13.6419C136.298 12.5403 136.298 11.5018 136.298 10.4603C136.298 9.96563 136.022 9.68223 135.553 9.68323C135.083 9.68423 134.79 9.97164 134.789 10.4493C134.789 12.7346 134.789 15.0199 134.789 17.3052C134.789 17.7919 135.078 18.0733 135.549 18.0713C136.019 18.0693 136.295 17.7839 136.298 17.2952C136.298 16.7454 136.298 16.1936 136.298 15.6438C136.293 15.5562 136.32 15.4697 136.372 15.3994C136.707 15.068 137.055 14.7435 137.423 14.392ZM61.1638 17.4404C61.2739 17.5255 61.338 17.5756 61.4021 17.6236C62.5588 18.4849 64.098 18.3747 65.0654 17.3613C66.2671 16.1035 66.3031 13.8092 65.1555 12.4943C64.2191 11.4227 62.4516 11.1053 61.2499 12.317C61.2252 12.3363 61.1987 12.3531 61.1708 12.3671C61.0826 11.9315 60.8783 11.7071 60.5499 11.6661C60.0492 11.606 59.7117 11.9154 59.7117 12.4452C59.7117 14.8634 59.7117 17.2821 59.7117 19.7016C59.7087 19.7517 59.7087 19.8018 59.7117 19.8518C59.7346 20.0233 59.8183 20.1809 59.9476 20.2958C60.0769 20.4107 60.2432 20.4754 60.4162 20.4781C60.5891 20.4808 60.7574 20.4213 60.8902 20.3104C61.023 20.1994 61.1115 20.0445 61.1397 19.8739C61.1544 19.7499 61.1611 19.6251 61.1597 19.5003C61.1648 18.8354 61.1638 18.1684 61.1638 17.4404ZM68.6385 17.4524L68.8608 17.6216C70.1106 18.554 71.758 18.3477 72.7204 17.1369C73.5956 16.0354 73.6878 14.1987 72.9577 12.9609C72.0684 11.4588 69.9985 10.9831 68.6756 12.3481C68.6685 12.3561 68.6455 12.3481 68.6295 12.3481C68.5374 11.9265 68.3381 11.7071 68.0126 11.6671C67.5119 11.605 67.1714 11.9154 67.1714 12.4432C67.1714 14.6784 67.1714 16.9149 67.1714 19.1528C67.1714 19.3862 67.1604 19.6205 67.1784 19.8538C67.1896 20.0137 67.2573 20.1643 67.3695 20.2788C67.4815 20.3933 67.6307 20.4641 67.7903 20.4787C68.1428 20.5208 68.4622 20.3445 68.5664 20.0261C68.6071 19.8822 68.6263 19.733 68.6235 19.5835C68.6235 18.9656 68.6235 18.3487 68.6235 17.7318C68.6255 17.6497 68.6325 17.5706 68.6385 17.4524ZM48.2772 18.2015C49.0974 18.2075 49.8655 18.0262 50.5295 17.5195C51.3016 16.9276 51.5449 16.1275 51.4127 15.1911C51.2896 14.3139 50.7398 13.8031 49.9436 13.5268C49.5751 13.3996 49.1896 13.3265 48.813 13.2163C48.3123 13.0761 47.7996 12.9539 47.3109 12.7777C46.9684 12.6545 46.8051 12.3541 46.7991 11.9875C46.7929 11.8233 46.8351 11.661 46.9204 11.5205C47.0056 11.3801 47.1303 11.2677 47.2788 11.1974C47.4324 11.1136 47.5974 11.0526 47.7685 11.0161C48.6698 10.8269 49.4629 11.1043 50.202 11.596C50.272 11.6486 50.352 11.6862 50.437 11.7067C50.5222 11.7273 50.6105 11.7303 50.6967 11.7154C50.783 11.7006 50.8654 11.6684 50.9387 11.6206C51.0121 11.5728 51.0749 11.5107 51.1233 11.4378C51.3587 11.1133 51.2796 10.6937 50.923 10.3993C50.3022 9.88953 49.5721 9.64618 48.787 9.57908C47.9027 9.50297 47.0605 9.64117 46.3074 10.1599C44.9975 11.0612 45.0055 13.3555 46.6329 14.0705C47.0637 14.2457 47.5108 14.3775 47.9678 14.4641C48.5206 14.5843 49.0904 14.6474 49.5701 14.9758C50.1449 15.3674 50.1409 16.0904 49.5701 16.472C48.9993 16.8535 48.3493 16.8726 47.6924 16.7454C47.1857 16.6502 46.7701 16.3788 46.3725 16.0684C46.2564 15.9709 46.1109 15.9153 45.9594 15.9106C45.8079 15.9059 45.6592 15.9523 45.5373 16.0424C45.4134 16.1299 45.3218 16.2558 45.2765 16.4006C45.2313 16.5454 45.235 16.701 45.2869 16.8435C45.3557 17.0033 45.4582 17.1465 45.5874 17.2631C46.3415 17.9621 47.2678 18.1965 48.2772 18.2015ZM107.577 15.3724H107.855C109.064 15.3724 110.273 15.3724 111.483 15.3724C111.978 15.3724 112.263 15.072 112.236 14.5863C112.227 14.3959 112.202 14.2065 112.161 14.0205C111.696 12.0076 109.432 10.7668 107.503 12.0807C106.532 12.7426 106.14 13.734 106.115 14.8777C106.094 15.779 106.352 16.5801 106.984 17.2531C108.074 18.4108 110.124 18.4919 111.384 17.6226C111.507 17.5373 111.615 17.4321 111.703 17.3112C111.772 17.2166 111.813 17.1037 111.819 16.9865C111.825 16.8693 111.797 16.753 111.736 16.6517C111.677 16.5506 111.589 16.4691 111.484 16.4172C111.379 16.3653 111.261 16.3454 111.145 16.3598C110.988 16.3798 110.838 16.433 110.704 16.516C110.287 16.7827 109.796 16.9097 109.302 16.8786C108.429 16.8415 107.688 16.1996 107.577 15.3724ZM77.4261 18.2025C79.3289 18.2636 80.7389 16.9006 80.808 14.9318C80.8292 14.5017 80.7643 14.0717 80.6171 13.6671C80.4698 13.2625 80.2433 12.8912 79.9507 12.5754C79.6579 12.2595 79.3051 12.0053 78.913 11.8276C78.5207 11.6501 78.0969 11.5525 77.6665 11.5409C75.7848 11.4718 74.3367 12.8338 74.2616 14.7455C74.1925 16.6683 75.5384 18.1414 77.4261 18.2025ZM119.587 11.5409C117.725 11.591 116.382 13.0521 116.423 14.9808C116.465 16.8836 117.907 18.2565 119.798 18.2025C121.643 18.1494 123.009 16.7003 122.967 14.8436C122.923 12.8798 121.501 11.4898 119.589 11.5409H119.587ZM145.023 11.5409C143.162 11.593 141.819 13.0551 141.863 14.9828C141.907 16.8856 143.351 18.2586 145.241 18.2025C147.085 18.1474 148.451 16.7003 148.406 14.8406C148.357 12.8758 146.934 11.4878 145.022 11.5409H145.023ZM125.623 12.5323C125.607 12.4142 125.598 12.34 125.587 12.2669C125.568 12.1042 125.491 11.9538 125.37 11.8434C125.249 11.733 125.093 11.6701 124.928 11.6661C124.467 11.643 124.156 11.9335 124.155 12.4122C124.151 14.0558 124.151 15.6989 124.155 17.3412C124.155 17.416 124.163 17.4906 124.18 17.5636C124.263 17.899 124.552 18.0943 124.936 18.0783C125.092 18.0736 125.241 18.0155 125.358 17.914C125.475 17.8123 125.554 17.6734 125.581 17.5205C125.601 17.3879 125.609 17.2539 125.607 17.1199C125.607 16.1605 125.601 15.2012 125.607 14.2418C125.617 13.1662 126.829 12.4843 127.762 13.029C127.902 13.1035 128.013 13.2217 128.079 13.3655C128.191 13.6669 128.258 13.983 128.279 14.3039C128.304 15.3053 128.286 16.3067 128.289 17.3082C128.289 17.7729 128.567 18.0723 128.99 18.0783C129.443 18.0853 129.734 17.8019 129.737 17.3302C129.737 16.2707 129.759 15.2112 129.729 14.1527C129.711 13.6962 129.641 13.2432 129.52 12.8027C129.379 12.274 129.056 11.8614 128.509 11.6811C128.04 11.5229 127.537 11.4958 127.054 11.603C126.482 11.7302 126.043 12.0757 125.622 12.5323H125.623ZM58.1364 14.0735H58.1835C58.1835 13.5067 58.1835 12.9399 58.1835 12.3711C58.185 12.275 58.1668 12.1796 58.1298 12.0909C58.0928 12.0022 58.0381 11.9219 57.9689 11.8553C57.8997 11.7886 57.8174 11.7368 57.7274 11.7032C57.6374 11.6697 57.5414 11.655 57.4454 11.6601C57.0218 11.6681 56.7364 11.9685 56.7344 12.4272C56.7344 13.4697 56.7344 14.5122 56.7344 15.5547C56.7344 16.1986 56.468 16.6292 55.9853 16.7884C55.6351 16.9086 55.2549 16.9086 54.9048 16.7884C54.4151 16.6222 54.1627 16.2026 54.1587 15.5306C54.1587 14.5632 54.1587 13.5959 54.1587 12.6265C54.1599 12.51 54.1535 12.3936 54.1397 12.278C54.1224 12.0972 54.0342 11.9307 53.8943 11.8148C53.7545 11.699 53.5744 11.6433 53.3936 11.6601C53.0171 11.6731 52.7136 11.9385 52.7126 12.32C52.7126 13.5378 52.6836 14.7565 52.7457 15.9713C52.7613 16.4778 52.949 16.9639 53.2776 17.3495C53.6064 17.7353 54.0566 17.9976 54.5543 18.0933C54.9954 18.1764 55.4455 18.2017 55.8932 18.1684C57.0949 18.1013 58.0052 17.2671 58.1304 16.0654C58.1925 15.4115 58.1364 14.7405 58.1364 14.0735ZM156.684 11.7702C156.684 11.589 156.684 11.4317 156.684 11.2755C156.688 11.1925 156.699 11.11 156.719 11.0292C156.801 10.6737 157.005 10.4924 157.368 10.4914C157.567 10.5001 157.766 10.5242 157.961 10.5635C158.361 10.6226 158.625 10.4904 158.721 10.1729C158.836 9.7994 158.694 9.44489 158.306 9.33373C157.972 9.23791 157.624 9.19931 157.277 9.21956C155.94 9.30368 155.174 10.1729 155.245 11.3827C155.253 11.5048 155.245 11.627 155.245 11.7702C155.025 11.7702 154.834 11.7702 154.644 11.7702C154.196 11.7772 153.911 12.0476 153.919 12.4532C153.927 12.8588 154.209 13.1021 154.647 13.1061C154.847 13.1061 155.039 13.1061 155.248 13.1061V13.4456C155.248 14.7215 155.242 15.9973 155.255 17.2731C155.257 17.462 155.309 17.6471 155.406 17.8089C155.568 18.0653 155.907 18.1384 156.207 18.0382C156.348 17.9948 156.47 17.9062 156.555 17.7865C156.64 17.6666 156.683 17.5221 156.678 17.3753C156.678 16.0494 156.678 14.7235 156.678 13.3976V13.1061C157.037 13.1061 157.368 13.1061 157.699 13.1061C158.16 13.1061 158.441 12.8578 158.448 12.4512C158.455 12.0446 158.166 11.7732 157.697 11.7702C157.371 11.7742 157.04 11.7752 156.684 11.7752V11.7702ZM87.8261 13.1112V13.4116C87.8261 14.4711 87.8261 15.5296 87.8261 16.5892C87.8261 16.9897 87.8992 17.3783 88.2016 17.6697C88.6863 18.1354 89.853 18.2205 90.4128 17.845C90.7302 17.6327 90.8284 17.3202 90.6782 17.0007C90.551 16.7304 90.3777 16.6783 89.9571 16.7894C89.5035 16.9106 89.2701 16.7334 89.2691 16.2587C89.2691 15.2743 89.2691 14.2898 89.2691 13.3054V13.1132C89.5565 13.1132 89.8229 13.1302 90.0853 13.1071C90.2491 13.0953 90.4078 13.0446 90.548 12.9589C90.7823 12.8037 90.8484 12.4983 90.7483 12.2189C90.7037 12.0873 90.618 11.9736 90.5038 11.8944C90.3898 11.8153 90.2532 11.7749 90.1144 11.7792C89.835 11.7712 89.5546 11.7792 89.2661 11.7792C89.2661 11.4918 89.2721 11.2415 89.2661 10.9921C89.2632 10.8008 89.1844 10.6187 89.0471 10.4855C88.9098 10.3523 88.7253 10.2792 88.5341 10.2821C88.3428 10.285 88.1606 10.3638 88.0275 10.5011C87.8943 10.6384 87.8212 10.8229 87.8241 11.0141C87.8241 11.2625 87.8241 11.5149 87.8241 11.7792C87.6238 11.7792 87.4375 11.7722 87.2562 11.7792C86.8557 11.7973 86.5913 12.0737 86.5963 12.4492C86.5946 12.5371 86.6108 12.6246 86.6439 12.706C86.6769 12.7875 86.7261 12.8615 86.7886 12.9235C86.851 12.9854 86.9254 13.034 87.0071 13.0665C87.0888 13.0989 87.1763 13.1145 87.2643 13.1122C87.4415 13.1192 87.6168 13.1112 87.8261 13.1112ZM83.4648 12.4652C83.4448 12.3571 83.4338 12.302 83.4237 12.2469C83.3995 12.0846 83.3179 11.9363 83.1937 11.8289C83.0694 11.7217 82.9109 11.6625 82.7468 11.6621C82.2911 11.6481 81.9937 11.9455 81.9927 12.4302C81.9927 14.0565 81.9927 15.6825 81.9927 17.3082C81.9918 17.3831 81.9985 17.4579 82.0127 17.5315C82.0828 17.876 82.3632 18.0833 82.7428 18.0763C82.9066 18.0788 83.0658 18.0217 83.1907 17.9156C83.3156 17.8094 83.3977 17.6616 83.4217 17.4995C83.4384 17.3757 83.4461 17.2508 83.4448 17.1259C83.4448 16.2333 83.4448 15.3411 83.4448 14.4491C83.4326 14.0293 83.5612 13.6176 83.8103 13.2794C83.9419 13.0904 84.1305 12.9485 84.3485 12.8744C84.5666 12.8004 84.8025 12.7981 85.022 12.8678C85.1102 12.8928 85.1963 12.9259 85.2844 12.9489C85.685 13.0491 86.0205 12.8888 86.1366 12.5403C86.2728 12.1317 86.1056 11.7542 85.699 11.615C85.5255 11.5581 85.3424 11.5356 85.1602 11.5489C84.4863 11.595 83.9064 11.8473 83.4648 12.4652ZM159.253 14.8687C159.253 15.6778 159.253 16.487 159.253 17.2952C159.253 17.7849 159.53 18.0733 159.971 18.0743C160.411 18.0753 160.703 17.7829 160.704 17.2842C160.704 16.1746 160.704 15.066 160.704 13.9564C160.704 13.4396 160.711 12.9229 160.704 12.4051C160.696 11.9184 160.369 11.625 159.903 11.6641C159.508 11.6971 159.26 11.9875 159.258 12.4422C159.249 13.2534 159.253 14.0615 159.253 14.8707V14.8687ZM151.174 15.122C151.524 15.122 151.875 15.122 152.223 15.122C152.652 15.122 152.956 14.8406 152.969 14.4471C152.976 14.3509 152.963 14.2545 152.931 14.1635C152.899 14.0724 152.849 13.9889 152.784 13.9177C152.719 13.8465 152.64 13.7893 152.553 13.7495C152.465 13.7096 152.37 13.6881 152.274 13.686C151.55 13.666 150.826 13.666 150.102 13.686C150.005 13.6855 149.909 13.7051 149.821 13.7437C149.732 13.7823 149.653 13.8389 149.588 13.9101C149.523 13.9812 149.473 14.0651 149.442 14.1566C149.412 14.2481 149.4 14.3449 149.409 14.4411C149.425 14.8416 149.723 15.118 150.15 15.122C150.491 15.122 150.833 15.122 151.174 15.122ZM160.739 10.1799C160.739 9.60311 160.59 9.45791 159.989 9.4559C159.388 9.4539 159.221 9.61713 159.221 10.1719C159.221 10.7468 159.373 10.892 159.977 10.892C160.581 10.892 160.739 10.7498 160.739 10.1799Z" fill="white"/>
<path d="M64.6467 14.9215C64.5535 15.237 64.4935 15.6045 64.3402 15.923C64.2199 16.2071 64.0177 16.4489 63.7595 16.6178C63.5012 16.7867 63.1987 16.8749 62.8902 16.8713C62.5833 16.8899 62.2777 16.8184 62.0109 16.6658C61.7441 16.5132 61.5276 16.286 61.388 16.0121C61.1899 15.6756 61.0826 15.2936 61.0764 14.9031C61.0703 14.5127 61.1656 14.1275 61.353 13.7849C61.6844 13.142 62.2412 12.8255 62.9723 12.8746C63.7033 12.9237 64.174 13.3342 64.4294 13.9932C64.5395 14.2676 64.5696 14.572 64.6467 14.9215Z" fill="white"/>
<path d="M72.1035 14.9158C72.0114 15.2323 71.9513 15.5988 71.8031 15.9223C71.6833 16.2054 71.4823 16.4467 71.2254 16.6157C70.9686 16.7847 70.6674 16.8737 70.36 16.8716C70.049 16.8913 69.739 16.8185 69.469 16.6626C69.1991 16.5067 68.9813 16.2746 68.8428 15.9954C68.6503 15.6611 68.5466 15.2831 68.5417 14.8974C68.5368 14.5117 68.6308 14.1312 68.8148 13.7922C69.1453 13.1483 69.7011 12.8288 70.4321 12.8759C71.1632 12.9229 71.6338 13.3325 71.8922 13.9905C72.0034 14.2629 72.0294 14.5663 72.1035 14.9158Z" fill="white"/>
<path d="M110.68 14.1503H107.613C107.594 13.4683 108.242 12.9045 109.084 12.8695C109.926 12.8344 110.642 13.3982 110.68 14.1503Z" fill="white"/>
<path d="M75.709 14.9213C75.734 14.2203 75.9323 13.6555 76.4521 13.2419C76.6403 13.0923 76.8576 12.9834 77.0902 12.9222C77.3227 12.8611 77.5654 12.8489 77.803 12.8867C78.0404 12.9243 78.2676 13.011 78.4698 13.1411C78.672 13.2711 78.845 13.4419 78.9777 13.6425C79.4413 14.3435 79.4784 15.0986 79.1269 15.8537C78.9704 16.1984 78.7061 16.4832 78.3737 16.6646C78.0413 16.8462 77.659 16.9148 77.2842 16.8601C76.8987 16.7982 76.5429 16.6151 76.2683 16.3375C75.9937 16.0599 75.8146 15.702 75.7571 15.3159C75.737 15.1667 75.724 15.0215 75.709 14.9213Z" fill="white"/>
<path d="M117.87 14.9212C117.894 14.2202 118.091 13.6564 118.61 13.2418C118.796 13.0928 119.01 12.9837 119.241 12.9215C119.471 12.8594 119.711 12.8453 119.948 12.8804C120.183 12.9154 120.409 12.9989 120.612 13.1253C120.814 13.2518 120.987 13.4186 121.122 13.6153C121.606 14.3274 121.645 15.0975 121.278 15.8686C121.119 16.2081 120.856 16.4875 120.526 16.6654C120.197 16.8433 119.819 16.9102 119.449 16.856C119.064 16.7947 118.71 16.6132 118.435 16.3375C118.161 16.0619 117.981 15.7063 117.922 15.3218C117.898 15.1706 117.885 15.0214 117.87 14.9212Z" fill="white"/>
<path d="M143.306 14.9216C143.331 14.2206 143.527 13.6568 144.047 13.2422C144.233 13.0933 144.447 12.9845 144.678 12.9224C144.908 12.8604 145.148 12.8466 145.385 12.8818C145.62 12.9169 145.846 13.0003 146.048 13.1267C146.25 13.2532 146.424 13.42 146.558 13.6167C147.042 14.3297 147.081 15.0998 146.714 15.8709C146.555 16.2105 146.292 16.4899 145.962 16.6677C145.633 16.8454 145.254 16.9119 144.884 16.8574C144.499 16.796 144.145 16.6142 143.87 16.3383C143.596 16.0624 143.417 15.7066 143.358 15.3222C143.334 15.1699 143.321 15.0217 143.306 14.9216Z" fill="white"/>
<path d="M12.5103 15.1451C12.5051 13.9346 12.7398 12.7351 13.2005 11.6157C13.6614 10.4964 14.3393 9.47937 15.1952 8.62339C16.051 7.7674 17.068 7.08938 18.1873 6.62844C19.3066 6.1675 20.506 5.93279 21.7166 5.93782C26.9501 5.94483 30.9088 10.1949 30.9068 15.1401C30.9045 16.36 30.66 17.5673 30.1874 18.692C29.7149 19.8167 29.0237 20.8363 28.1539 21.6917C27.2841 22.5471 26.2531 23.2213 25.1208 23.6751C23.9883 24.1289 22.7771 24.3533 21.5573 24.3353C16.5371 24.2592 12.4923 20.1432 12.5103 15.1451ZM25.506 17.7678C25.6262 17.7678 25.7504 17.7728 25.8735 17.7678C27.0152 17.7138 28.0296 17.3582 28.7367 16.4179C29.5759 15.3033 29.6139 14.0685 29.0231 12.8518C28.4322 11.635 27.3817 11.0742 26.0618 11.0662C22.708 11.0462 19.3522 11.0592 16.0014 11.0602C15.6088 11.0602 15.4235 11.2465 15.4235 11.647C15.4235 13.5998 15.4235 15.5519 15.4235 17.5035C15.4235 17.7869 15.4295 18.0703 15.4305 18.3537C15.4305 19.3551 16.0314 19.956 17.0388 19.956C19.257 19.951 21.4762 19.9379 23.6944 19.9289C24.4745 19.9289 25.1014 19.4843 25.3268 18.7372C25.4044 18.4177 25.4643 18.094 25.506 17.7678Z" fill="#645059"/>
<path d="M25.5053 17.7673C25.4636 18.0936 25.4037 18.4172 25.3261 18.7367C25.1008 19.4838 24.4739 19.9254 23.6937 19.9284C21.4755 19.9375 19.2564 19.9505 17.0382 19.9555C16.0267 19.9555 15.4359 19.3546 15.4299 18.3532C15.4299 18.0698 15.4229 17.7864 15.4229 17.503C15.4229 15.5509 15.4229 13.5988 15.4229 11.6465C15.4229 11.246 15.6081 11.0597 16.0007 11.0597C19.3545 11.0597 22.7103 11.0457 26.0611 11.0657C27.381 11.0737 28.4376 11.6465 29.0224 12.8513C29.6072 14.056 29.5752 15.3028 28.736 16.4174C28.029 17.3578 27.0145 17.7133 25.8729 17.7673C25.7497 17.7723 25.6255 17.7673 25.5053 17.7673ZM20.4581 13.7966C20.402 13.7496 20.3509 13.7085 20.3029 13.6654C20.1022 13.4805 19.8644 13.3402 19.6056 13.2539C19.3466 13.1675 19.0722 13.1372 18.8007 13.1647C18.0877 13.2258 17.599 13.7265 17.5679 14.4366C17.5479 14.7118 17.5869 14.9882 17.6822 15.2473C17.7775 15.5063 17.9271 15.742 18.1207 15.9387C18.8217 16.6397 19.5458 17.3187 20.2578 18.0087C20.39 18.1369 20.5042 18.1489 20.6424 18.0137C21.2833 17.3818 21.9342 16.7599 22.5731 16.125C22.9056 15.7935 23.192 15.43 23.3022 14.9523C23.5465 13.8918 22.7013 12.9815 21.6268 13.1497C21.1681 13.2298 20.7996 13.4792 20.4581 13.7966ZM25.5103 12.7832V16.0379C26.2905 16.1981 26.9955 15.9828 27.351 15.431C27.7456 14.8221 27.8127 14.1562 27.4511 13.5122C27.0305 12.7451 26.2895 12.7181 25.5103 12.7832Z" fill="#FEFEFE"/>
<path d="M20.4576 13.797C20.7991 13.4796 21.1676 13.2302 21.6313 13.1561C22.7078 12.9869 23.551 13.8972 23.3067 14.9587C23.1965 15.4364 22.9061 15.7999 22.5776 16.1314C21.9387 16.7663 21.2878 17.3882 20.6469 18.0201C20.5087 18.1553 20.3945 18.1433 20.2623 18.0151C19.5503 17.3251 18.8263 16.6471 18.1252 15.9441C17.9316 15.7474 17.7822 15.5117 17.6868 15.2526C17.5915 14.9937 17.5525 14.7173 17.5725 14.442C17.6025 13.7319 18.0922 13.2312 18.8052 13.1701C19.0768 13.1425 19.3511 13.1729 19.6101 13.2593C19.8691 13.3456 20.1067 13.4859 20.3074 13.6709C20.3504 13.7089 20.4015 13.75 20.4576 13.797Z" fill="#F29CC2"/>
<path d="M25.5107 12.7834C26.2899 12.7213 27.0309 12.7453 27.4555 13.5124C27.813 14.1564 27.746 14.8223 27.3554 15.4312C26.9999 15.983 26.2949 16.1983 25.5147 16.0381L25.5107 12.7834Z" fill="#645059"/>
<path d="M174 4.50647V24.8858C173.96 24.9393 173.927 24.997 173.9 25.058C173.752 25.5237 173.665 26.0184 173.453 26.452C172.711 27.9732 171.495 28.9165 169.838 29.2851C169.767 29.3111 169.699 29.3472 169.638 29.3922H4.30619C4.16899 29.3382 4.0348 29.2721 3.89359 29.231C1.92276 28.6592 0.648932 27.4064 0.1392 25.4015C0.103227 25.308 0.0565144 25.2189 0 25.1361V24.9358C0.00500719 24.9308 0.016023 24.9238 0.0150216 24.9198C0.0110454 24.908 0.00601791 24.8967 0 24.8858V4.50647C0.00500719 4.50647 0.016023 4.49446 0.0150216 4.49045C0.0110454 4.47867 0.00601791 4.46728 0 4.4564V4.25612C0.0589049 4.16574 0.106653 4.06856 0.142204 3.9667C0.333284 3.11716 0.745034 2.33303 1.33592 1.69343C2.08221 0.873435 3.07221 0.314894 4.15998 0.100144C4.21305 0.0891281 4.26012 0.0350504 4.30619 0H169.594C169.648 0.0389227 169.706 0.0724621 169.767 0.100144C170.23 0.256368 170.727 0.346498 171.152 0.572823C172.674 1.38299 173.611 2.6428 173.903 4.36026C173.912 4.41234 173.967 4.4574 174 4.50647ZM86.975 0.901295C59.7692 0.901295 32.5641 0.903298 5.3597 0.907304C5.0768 0.903369 4.79408 0.923132 4.51449 0.966388C3.4992 1.12628 2.57538 1.64626 1.91194 2.43124C1.24848 3.21624 0.889744 4.21379 0.901295 5.24153C0.901295 11.3336 0.901295 17.4253 0.901295 23.5168C0.898513 23.9237 0.916228 24.3305 0.954371 24.7355C1.04245 25.5968 1.40593 26.4066 1.99086 27.0449C2.89216 28.0573 4.05082 28.4829 5.37873 28.4829C59.7776 28.4829 114.177 28.4829 168.577 28.4829C168.852 28.4826 169.126 28.4652 169.398 28.4308C171.434 28.1705 173.048 26.3278 173.049 24.2709C173.049 17.887 173.049 11.5032 173.049 5.11936C173.047 4.92012 173.03 4.7213 172.999 4.5245C172.827 3.36784 172.246 2.45453 171.326 1.75152C170.533 1.15065 169.617 0.904299 168.635 0.903298C141.413 0.901963 114.192 0.901295 86.972 0.901295H86.975Z" fill="#645059"/>
<path d="M96.9538 12.4817C98.2096 11.0076 100.331 11.3621 100.748 12.7541C101.019 12.4937 101.277 12.1853 101.591 11.9529C102.334 11.4102 103.149 11.4132 103.962 11.7717C104.452 11.987 104.674 12.4436 104.789 12.9323C104.885 13.3288 104.94 13.7343 104.951 14.1421C104.973 15.2016 104.961 16.2611 104.957 17.3217C104.957 17.8043 104.657 18.0878 104.191 18.0737C103.785 18.0617 103.509 17.7593 103.507 17.3066C103.507 16.2972 103.517 15.2867 103.499 14.2773C103.487 13.9877 103.434 13.7012 103.343 13.4261C103.253 13.1366 103.02 12.9774 102.719 12.9083C101.724 12.678 100.943 13.2859 100.938 14.3103C100.933 15.3348 100.938 16.3292 100.938 17.3397C100.946 17.5037 100.896 17.6653 100.798 17.7974C100.701 17.9295 100.561 18.024 100.402 18.0647C100.058 18.1458 99.7108 18.0096 99.5736 17.7062C99.5148 17.5602 99.4862 17.4039 99.4894 17.2465C99.4824 16.2451 99.4955 15.2437 99.4794 14.2422C99.4697 13.9766 99.4215 13.7139 99.3362 13.4621C99.2361 13.1557 99.0017 12.9804 98.6823 12.9093C97.6859 12.688 96.9178 13.2999 96.9168 14.3233C96.9168 15.258 96.9168 16.1927 96.9168 17.1274C96.9181 17.2523 96.9103 17.3771 96.8937 17.5009C96.8697 17.6632 96.7875 17.8113 96.6623 17.9173C96.5372 18.0235 96.3778 18.0805 96.2137 18.0777C95.8342 18.0837 95.5538 17.8775 95.4847 17.532C95.4695 17.4497 95.4628 17.3662 95.4647 17.2826C95.4647 15.6723 95.4647 14.062 95.4647 12.4517C95.4647 11.9349 95.7651 11.6365 96.2498 11.6665C96.4095 11.6732 96.5618 11.7359 96.6801 11.8436C96.7984 11.9512 96.875 12.0969 96.8967 12.2554C96.9067 12.3205 96.9188 12.3856 96.9308 12.4557C96.9298 12.4567 96.9388 12.4627 96.9538 12.4817Z" fill="#645059"/>
<path d="M137.424 14.3917C137.055 14.7432 136.708 15.0677 136.373 15.4042C136.321 15.4745 136.294 15.5609 136.299 15.6485C136.293 16.1993 136.299 16.7501 136.299 17.2999C136.299 17.7886 136.019 18.074 135.55 18.076C135.081 18.078 134.791 17.7966 134.79 17.3099C134.79 15.0246 134.79 12.7393 134.79 10.4541C134.79 9.97636 135.09 9.68895 135.554 9.68794C136.018 9.68694 136.298 9.97035 136.299 10.4651C136.299 11.5066 136.299 12.5491 136.299 13.6467C136.572 13.3853 136.815 13.158 137.052 12.9236L140.002 10.0054C140.084 9.92224 140.171 9.84494 140.264 9.77407C140.585 9.54073 140.938 9.57378 141.182 9.85418C141.449 10.1546 141.443 10.5302 141.148 10.8146C140.332 11.601 139.512 12.3841 138.689 13.164C138.647 13.204 138.597 13.2341 138.539 13.2781L140.063 15.295C140.444 15.8007 140.83 16.3035 141.206 16.8132C141.407 17.0796 141.47 17.379 141.292 17.6784C141.215 17.8138 141.1 17.9238 140.962 17.9949C140.824 18.0661 140.667 18.0952 140.512 18.079C140.274 18.066 140.112 17.9358 139.977 17.7546C139.193 16.7177 138.408 15.6829 137.62 14.6501C137.562 14.566 137.498 14.4889 137.424 14.3917Z" fill="#645059"/>
<path d="M61.1637 17.4399C61.1637 18.168 61.1637 18.8349 61.1637 19.5019C61.1651 19.6267 61.1584 19.7514 61.1437 19.8754C61.1154 20.0462 61.0269 20.201 60.8941 20.3119C60.7613 20.4228 60.5932 20.4824 60.4201 20.4797C60.2472 20.477 60.0809 20.4123 59.9516 20.2974C59.8223 20.1824 59.7386 20.0249 59.7156 19.8534C59.7126 19.8034 59.7126 19.7532 59.7156 19.7032C59.7156 17.2844 59.7156 14.8656 59.7156 12.4467C59.7156 11.917 60.0531 11.6075 60.5538 11.6676C60.8823 11.7067 61.0866 11.931 61.1747 12.3686C61.2027 12.3546 61.2292 12.3379 61.2538 12.3185C62.4556 11.1068 64.2241 11.4243 65.1595 12.4958C66.3071 13.8107 66.2701 16.101 65.0693 17.3628C64.1019 18.3763 62.5657 18.4864 61.4061 17.6252C61.338 17.5751 61.2739 17.525 61.1637 17.4399ZM64.6467 14.9213C64.5696 14.5718 64.5396 14.2673 64.4334 13.993C64.179 13.334 63.7024 12.9234 62.9763 12.8743C62.2503 12.8253 61.6885 13.1417 61.357 13.7847C61.1696 14.1272 61.0744 14.5125 61.0805 14.9029C61.0866 15.2933 61.194 15.6754 61.392 16.0119C61.5316 16.2857 61.7482 16.513 62.0149 16.6656C62.2818 16.8182 62.5874 16.8896 62.8942 16.8711C63.202 16.8739 63.5038 16.7853 63.7612 16.6164C64.0186 16.4476 64.2202 16.2062 64.3403 15.9227C64.4925 15.6043 64.5536 15.2367 64.6467 14.9213Z" fill="#645059"/>
<path d="M68.6388 17.4522C68.6328 17.5704 68.6258 17.6525 68.6258 17.7286C68.6258 18.3455 68.6258 18.9624 68.6258 19.5803C68.6286 19.7298 68.6094 19.879 68.5687 20.0229C68.4686 20.3413 68.1451 20.5176 67.7926 20.4755C67.6331 20.4609 67.4839 20.3901 67.3718 20.2755C67.2597 20.1611 67.192 20.0105 67.1808 19.8506C67.1627 19.6183 67.1737 19.384 67.1737 19.1496C67.1737 16.9137 67.1737 14.6772 67.1737 12.44C67.1737 11.9122 67.5152 11.6018 68.0149 11.6639C68.3404 11.7039 68.5397 11.9232 68.6318 12.3449C68.6479 12.3449 68.6709 12.3519 68.6779 12.3449C70.0008 10.9799 72.0708 11.4516 72.9601 12.9577C73.6901 14.1955 73.598 16.0332 72.7227 17.1337C71.7603 18.3445 70.113 18.5508 68.8632 17.6184L68.6388 17.4522ZM72.1038 14.9155C72.0257 14.566 71.9957 14.2626 71.8885 13.9882C71.6321 13.3303 71.1545 12.9207 70.4284 12.8736C69.7024 12.8265 69.1416 13.146 68.8111 13.7899C68.6271 14.1289 68.5331 14.5095 68.538 14.8951C68.5429 15.2809 68.6467 15.6588 68.8391 15.9931C68.9776 16.2724 69.1954 16.5045 69.4653 16.6604C69.7353 16.8163 70.0453 16.889 70.3563 16.8694C70.6641 16.8725 70.9659 16.7842 71.2235 16.6158C71.4811 16.4473 71.6829 16.2062 71.8034 15.923C71.9556 15.5985 72.0157 15.232 72.1038 14.9155Z" fill="#645059"/>
<path d="M48.277 18.2012C47.2705 18.1962 46.3412 17.9619 45.5791 17.2639C45.45 17.1472 45.3475 17.0041 45.2787 16.8443C45.2267 16.7018 45.223 16.5461 45.2683 16.4013C45.3135 16.2565 45.4052 16.1307 45.529 16.0431C45.651 15.9531 45.7996 15.9066 45.9511 15.9113C46.1027 15.9161 46.2482 15.9717 46.3642 16.0692C46.7648 16.3796 47.1774 16.651 47.6841 16.7461C48.3411 16.8703 48.981 16.8573 49.5618 16.4727C50.1427 16.0882 50.1417 15.3712 49.5618 14.9766C49.0801 14.6481 48.5103 14.585 47.9595 14.4649C47.5026 14.3783 47.0554 14.2464 46.6246 14.0713C44.9963 13.3563 44.9893 11.067 46.2991 10.1657C47.0522 9.64695 47.8944 9.50875 48.7787 9.58486C49.5638 9.65195 50.2939 9.8953 50.9148 10.405C51.2723 10.6994 51.3514 11.119 51.1151 11.4435C51.0666 11.5164 51.0038 11.5786 50.9304 11.6264C50.8571 11.6741 50.7748 11.7064 50.6886 11.7212C50.6022 11.736 50.5139 11.733 50.4288 11.7125C50.3438 11.692 50.2637 11.6543 50.1937 11.6017C49.4547 11.11 48.6605 10.8326 47.7602 11.0219C47.5899 11.0583 47.4256 11.119 47.2725 11.2022C47.124 11.2725 46.9994 11.3848 46.9141 11.5252C46.8288 11.6657 46.7866 11.8281 46.7929 11.9923C46.7989 12.3588 46.9621 12.6593 47.3046 12.7824C47.7953 12.9587 48.306 13.0829 48.8067 13.2211C49.1833 13.3262 49.5688 13.4043 49.9374 13.5315C50.7335 13.8079 51.2833 14.3186 51.4065 15.1959C51.5387 16.1323 51.2953 16.9324 50.5232 17.5243C49.8653 18.026 49.0972 18.2072 48.277 18.2012Z" fill="#645059"/>
<path d="M107.578 15.3718C107.688 16.199 108.429 16.8409 109.3 16.874C109.794 16.9051 110.285 16.7781 110.702 16.5114C110.836 16.4284 110.986 16.3751 111.143 16.3552C111.259 16.3407 111.377 16.3606 111.482 16.4126C111.587 16.4645 111.675 16.546 111.735 16.6471C111.795 16.7483 111.823 16.8646 111.817 16.9818C111.811 17.0991 111.771 17.2119 111.702 17.3066C111.613 17.4274 111.505 17.5327 111.382 17.618C110.122 18.4873 108.077 18.4062 106.982 17.2485C106.35 16.5785 106.092 15.7724 106.113 14.8731C106.139 13.7294 106.53 12.738 107.501 12.0761C109.43 10.7622 111.695 12.003 112.159 14.0159C112.2 14.2032 112.225 14.3939 112.233 14.5857C112.26 15.0744 111.975 15.3718 111.48 15.3718C110.27 15.3718 109.061 15.3718 107.852 15.3718H107.578ZM110.682 14.15C110.644 13.398 109.934 12.8342 109.086 12.8692C108.238 12.9043 107.596 13.4701 107.615 14.15H110.682Z" fill="#645059"/>
<path d="M77.4265 18.202C75.5388 18.1409 74.1929 16.6678 74.265 14.7421C74.3371 12.8333 75.7852 11.4714 77.6699 11.5375C78.1003 11.5491 78.5241 11.6466 78.9164 11.8242C79.3085 12.0018 79.6613 12.2561 79.954 12.5719C80.2467 12.8878 80.4732 13.259 80.6205 13.6636C80.7677 14.0683 80.8326 14.4982 80.8114 14.9283C80.7393 16.8992 79.3282 18.2631 77.4265 18.202ZM75.709 14.9213C75.7211 15.0215 75.7341 15.1677 75.7571 15.3149C75.8147 15.7011 75.9938 16.059 76.2684 16.3366C76.5429 16.6143 76.8988 16.7972 77.2843 16.8591C77.659 16.9138 78.0414 16.8452 78.3738 16.6637C78.7061 16.4822 78.9704 16.1976 79.127 15.8527C79.4785 15.0976 79.4414 14.3435 78.9777 13.6415C78.8451 13.441 78.672 13.2703 78.4698 13.1401C78.2676 13.01 78.0405 12.9234 77.8031 12.8857C77.5655 12.848 77.3228 12.8602 77.0902 12.9212C76.8577 12.9824 76.6404 13.0913 76.4521 13.2409C75.9354 13.6545 75.7371 14.2203 75.709 14.9213Z" fill="#645059"/>
<path d="M119.589 11.5407C121.502 11.4896 122.924 12.8796 122.969 14.8454C123.011 16.7021 121.645 18.1502 119.8 18.2042C117.909 18.2583 116.467 16.8823 116.425 14.9826C116.382 13.0518 117.727 11.5907 119.589 11.5407ZM117.869 14.9215C117.881 15.0217 117.894 15.1689 117.918 15.3161C117.977 15.702 118.157 16.0593 118.432 16.3362C118.707 16.6131 119.063 16.7952 119.449 16.8563C119.819 16.9105 120.197 16.8436 120.526 16.6657C120.856 16.4878 121.119 16.2084 121.277 15.8689C121.645 15.0978 121.606 14.3277 121.122 13.6157C120.987 13.4189 120.814 13.252 120.611 13.1256C120.409 12.9992 120.183 12.9157 119.947 12.8807C119.711 12.8456 119.471 12.8597 119.24 12.9219C119.01 12.984 118.796 13.0931 118.609 13.2421C118.094 13.6587 117.896 14.2265 117.869 14.9215Z" fill="#645059"/>
<path d="M145.022 11.5405C146.934 11.4875 148.357 12.8755 148.405 14.8453C148.45 16.7009 147.084 18.15 145.239 18.2071C143.35 18.2632 141.905 16.8872 141.861 14.9875C141.817 13.0547 143.16 11.5926 145.022 11.5405ZM143.305 14.9214C143.318 15.0215 143.331 15.1687 143.355 15.316C143.413 15.7019 143.592 16.0594 143.867 16.3365C144.142 16.6136 144.498 16.796 144.884 16.8572C145.254 16.9118 145.633 16.8453 145.962 16.6675C146.292 16.4897 146.555 16.2103 146.713 15.8708C147.081 15.0996 147.042 14.3295 146.558 13.6165C146.424 13.4198 146.25 13.253 146.047 13.1265C145.846 13.0001 145.62 12.9167 145.384 12.8816C145.148 12.8464 144.908 12.8602 144.677 12.9222C144.447 12.9843 144.233 13.0931 144.047 13.242C143.53 13.6576 143.334 14.2254 143.305 14.9214Z" fill="#645059"/>
<path d="M125.622 12.5323C126.043 12.0757 126.484 11.7312 127.06 11.601C127.543 11.4938 128.046 11.5209 128.514 11.6791C129.062 11.8594 129.385 12.272 129.526 12.8007C129.647 13.2412 129.717 13.6942 129.735 14.1506C129.765 15.2092 129.748 16.2687 129.743 17.3282C129.743 17.7999 129.449 18.0833 128.996 18.0763C128.57 18.0703 128.295 17.7709 128.295 17.3062C128.295 16.3047 128.31 15.3033 128.285 14.3019C128.264 13.981 128.197 13.6649 128.085 13.3635C128.019 13.2197 127.908 13.1015 127.768 13.027C126.835 12.4823 125.623 13.1642 125.613 14.2398C125.604 15.1992 125.613 16.1585 125.613 17.1179C125.615 17.2519 125.607 17.3859 125.587 17.5185C125.56 17.6714 125.481 17.8103 125.364 17.912C125.247 18.0135 125.097 18.0716 124.942 18.0763C124.558 18.0923 124.269 17.897 124.186 17.5616C124.169 17.4886 124.161 17.414 124.161 17.3392C124.161 15.6956 124.161 14.0525 124.161 12.4101C124.161 11.9315 124.473 11.641 124.934 11.6641C125.098 11.6681 125.255 11.7311 125.376 11.8414C125.497 11.9518 125.574 12.1022 125.593 12.2649C125.597 12.34 125.606 12.4182 125.622 12.5323Z" fill="#645059"/>
<path d="M58.1368 14.0735C58.1368 14.7404 58.1929 15.4114 58.1248 16.0704C57.9996 17.2721 57.0923 18.1033 55.8876 18.1734C55.4399 18.2066 54.9898 18.1814 54.5486 18.0983C54.051 18.0025 53.6008 17.7403 53.2721 17.3545C52.9433 16.9688 52.7558 16.4828 52.74 15.9762C52.678 14.7615 52.702 13.5427 52.707 12.325C52.707 11.9434 53.0074 11.678 53.388 11.665C53.5688 11.6483 53.7489 11.7039 53.8887 11.8198C54.0286 11.9356 54.1168 12.1022 54.134 12.2829C54.1479 12.3986 54.1543 12.5149 54.1531 12.6314C54.1531 13.5988 54.1531 14.5662 54.1531 15.5356C54.1531 16.2076 54.4094 16.6272 54.8991 16.7934C55.2494 16.9136 55.6295 16.9136 55.9797 16.7934C56.4624 16.6342 56.7248 16.2035 56.7288 15.5596C56.7288 14.5171 56.7288 13.4746 56.7288 12.4321C56.7288 11.9735 57.0162 11.673 57.4398 11.665C57.5357 11.6599 57.6318 11.6746 57.7218 11.7082C57.8119 11.7417 57.894 11.7935 57.9633 11.8602C58.0325 11.9269 58.0873 12.007 58.1242 12.0958C58.1611 12.1846 58.1794 12.2799 58.1779 12.3761C58.1849 12.9439 58.1779 13.5107 58.1779 14.0785L58.1368 14.0735Z" fill="#645059"/>
<path d="M156.684 11.7749C157.04 11.7749 157.371 11.7749 157.703 11.7749C158.172 11.7749 158.461 12.0403 158.453 12.4559C158.445 12.8715 158.166 13.1088 157.705 13.1108C157.373 13.1108 157.042 13.1108 156.683 13.1108V13.4022C156.683 14.7281 156.683 16.0541 156.683 17.38C156.688 17.5268 156.645 17.6713 156.56 17.7911C156.475 17.9109 156.353 17.9994 156.213 18.0429C155.912 18.1431 155.569 18.0699 155.412 17.8136C155.314 17.6516 155.262 17.4667 155.26 17.2778C155.247 16.002 155.253 14.7261 155.253 13.4503V13.1108C155.047 13.1108 154.853 13.1108 154.653 13.1108C154.215 13.1108 153.932 12.8535 153.924 12.4579C153.916 12.0623 154.202 11.7819 154.65 11.7749C154.84 11.7749 155.03 11.7749 155.25 11.7749C155.25 11.6317 155.257 11.5095 155.25 11.3873C155.174 10.1776 155.945 9.30835 157.282 9.22423C157.63 9.20398 157.977 9.24257 158.312 9.33839C158.699 9.44955 158.842 9.80406 158.726 10.1776C158.626 10.4951 158.368 10.6273 157.966 10.5682C157.771 10.5288 157.573 10.5048 157.373 10.4961C157.011 10.4961 156.807 10.6783 156.724 11.0338C156.704 11.1147 156.693 11.1972 156.689 11.2802C156.68 11.4364 156.684 11.5936 156.684 11.7749Z" fill="#645059"/>
<path d="M87.826 13.1109C87.6167 13.1109 87.4415 13.1159 87.2662 13.1109C87.1783 13.1132 87.0908 13.0977 87.0091 13.0652C86.9273 13.0328 86.8529 12.9841 86.7905 12.9222C86.7282 12.8602 86.6789 12.7862 86.6458 12.7047C86.6128 12.6233 86.5966 12.5359 86.5983 12.448C86.5983 12.0724 86.8606 11.796 87.2582 11.778C87.4395 11.769 87.6207 11.778 87.826 11.778C87.826 11.5096 87.826 11.2612 87.826 11.0129C87.8245 10.9183 87.8418 10.8241 87.8767 10.7361C87.9116 10.6481 87.9635 10.5678 88.0294 10.4999C88.0953 10.4319 88.174 10.3775 88.261 10.3399C88.3479 10.3024 88.4413 10.2822 88.5361 10.2808C88.6307 10.2794 88.7248 10.2967 88.8128 10.3315C88.9009 10.3664 88.9812 10.4183 89.0491 10.4842C89.1171 10.5501 89.1715 10.6288 89.209 10.7158C89.2466 10.8027 89.2667 10.8962 89.2681 10.9909C89.2761 11.2402 89.2681 11.4916 89.2681 11.778C89.5565 11.778 89.8369 11.772 90.1163 11.778C90.2551 11.7737 90.3917 11.814 90.5058 11.8932C90.6199 11.9724 90.7057 12.086 90.7502 12.2176C90.8504 12.497 90.7813 12.8025 90.5499 12.9577C90.4097 13.0433 90.2511 13.0941 90.0873 13.1059C89.8249 13.1289 89.5585 13.1119 89.2711 13.1119V13.3042C89.2711 14.2886 89.2711 15.273 89.2711 16.2574C89.2711 16.7321 89.5054 16.9094 89.9591 16.7882C90.3747 16.677 90.5529 16.7291 90.6801 16.9995C90.8303 17.319 90.7322 17.6314 90.4147 17.8437C89.8549 18.2192 88.6883 18.1341 88.2036 17.6685C87.9031 17.377 87.831 16.9865 87.828 16.5879C87.822 15.5284 87.828 14.4699 87.828 13.4103L87.826 13.1109Z" fill="#645059"/>
<path d="M83.4653 12.4649C83.9069 11.847 84.4867 11.5947 85.1677 11.5486C85.3499 11.5354 85.5329 11.5578 85.7065 11.6147C86.1131 11.7539 86.2803 12.1314 86.1441 12.54C86.0279 12.8885 85.6945 13.0498 85.2919 12.9486C85.2038 12.9256 85.1176 12.8925 85.0295 12.8675C84.8096 12.7971 84.573 12.799 84.3543 12.8731C84.1356 12.9472 83.9466 13.0895 83.8148 13.2791C83.5657 13.6173 83.437 14.0291 83.4492 14.4488C83.4492 15.3408 83.4492 16.233 83.4492 17.1256C83.4505 17.2505 83.4428 17.3754 83.4262 17.4992C83.4022 17.6613 83.3201 17.8092 83.1952 17.9153C83.0703 18.0214 82.9111 18.0785 82.7472 18.076C82.3677 18.083 82.0873 17.8757 82.0172 17.5312C82.003 17.4577 81.9962 17.3828 81.9972 17.3079C81.9972 15.6822 81.9972 14.0562 81.9972 12.4299C81.9972 11.9452 82.2976 11.6477 82.7512 11.6618C82.9154 11.6622 83.074 11.7214 83.1982 11.8287C83.3224 11.936 83.404 12.0843 83.4282 12.2466C83.4342 12.3017 83.4452 12.3568 83.4653 12.4649Z" fill="#645059"/>
<path d="M159.252 14.8704C159.252 14.0613 159.252 13.2531 159.252 12.4439C159.252 11.9893 159.502 11.6989 159.897 11.6658C160.368 11.6268 160.698 11.9202 160.698 12.4069C160.707 12.9246 160.698 13.4414 160.698 13.9581C160.698 15.0677 160.698 16.1763 160.698 17.2859C160.698 17.7866 160.421 18.078 159.965 18.076C159.509 18.074 159.251 17.7866 159.247 17.2969C159.247 16.4888 159.252 15.6796 159.252 14.8704Z" fill="#645059"/>
<path d="M151.174 15.1217C150.832 15.1217 150.491 15.1217 150.149 15.1217C149.723 15.1217 149.424 14.8403 149.408 14.4408C149.399 14.3446 149.411 14.2478 149.441 14.1563C149.472 14.0648 149.522 13.9809 149.587 13.9098C149.653 13.8387 149.733 13.782 149.821 13.7434C149.909 13.7048 150.005 13.6852 150.101 13.6857C150.825 13.6669 151.549 13.6669 152.273 13.6857C152.369 13.6878 152.465 13.7093 152.553 13.7492C152.64 13.789 152.719 13.8462 152.784 13.9174C152.849 13.9886 152.898 14.0721 152.93 14.1632C152.962 14.2542 152.975 14.3506 152.968 14.4468C152.955 14.8403 152.652 15.1177 152.222 15.1217C151.873 15.1217 151.523 15.1217 151.174 15.1217Z" fill="#645059"/>
<path d="M160.739 10.1797C160.739 10.7495 160.587 10.8917 159.977 10.8917C159.367 10.8917 159.22 10.7465 159.221 10.1717C159.221 9.61684 159.396 9.4526 159.989 9.45561C160.582 9.45861 160.74 9.60282 160.739 10.1797Z" fill="#645059"/>
</svg>
