<svg width="35" height="35" viewBox="0 0 35 35" fill="none" xmlns="http://www.w3.org/2000/svg">
<path d="M17.5119 0.875031L21.0119 7.10941H14.0119L17.5119 0.875031Z" fill="#FCBA9F"/>
<path d="M17.5119 34.125L21.0119 27.8907H14.0119L17.5119 34.125Z" fill="#FCBA9F"/>
<path d="M3.51184 9.18749H10.5118L7.01184 15.4219L3.51184 9.18749Z" fill="#FCBA9F"/>
<path d="M31.5118 25.8125L28.0118 19.5781L24.5118 25.8125L31.5118 25.8125Z" fill="#FCBA9F"/>
<path d="M3.51184 25.8125L7.01184 19.5781L10.5118 25.8125H3.51184Z" fill="#FCBA9F"/>
<path d="M31.5118 9.18749H24.5118L28.0118 15.4219L31.5118 9.18749Z" fill="#FCBA9F"/>
<path d="M26.25 17.5C26.25 22.3325 22.3325 26.25 17.5 26.25C12.6675 26.25 8.75003 22.3325 8.75003 17.5C8.75003 12.6675 12.6675 8.75 17.5 8.75C22.3325 8.75 26.25 12.6675 26.25 17.5Z" fill="#EBD6A5"/>
<path d="M17.5 0L21.2889 6.5625H13.7112L17.5 0Z" fill="#EBD6A5"/>
<path d="M17.5 35L21.2889 28.4375H13.7112L17.5 35Z" fill="#EBD6A5"/>
<path d="M2.34454 8.74996L9.92227 8.74996L6.1334 15.3125L2.34454 8.74996Z" fill="#EBD6A5"/>
<path d="M32.6554 26.25L28.8665 19.6875L25.0777 26.25L32.6554 26.25Z" fill="#EBD6A5"/>
<path d="M2.34454 26.25L6.1334 19.6875L9.92227 26.25H2.34454Z" fill="#EBD6A5"/>
<path d="M32.6554 8.74996H25.0777L28.8665 15.3125L32.6554 8.74996Z" fill="#EBD6A5"/>
<path d="M25.5948 17.5C25.5948 22.0909 21.976 25.8125 17.5119 25.8125C13.0478 25.8125 9.42898 22.0909 9.42898 17.5C9.42898 12.9092 13.0478 9.18753 17.5119 9.18753C21.976 9.18753 25.5948 12.9092 25.5948 17.5Z" fill="#FCBA9F"/>
</svg>
