<svg width="24" height="30" viewBox="0 0 24 30" fill="none" xmlns="http://www.w3.org/2000/svg">
<g clip-path="url(#clip0_159_306)">
<path d="M13.9198 19.8401H10.0298V29.0001H13.9198V19.8401Z" stroke="#4C2C57" stroke-width="2" stroke-miterlimit="10"/>
<path d="M13.9198 19.8401H10.0298V29.0001H13.9198V19.8401Z" fill="white"/>
<path d="M1.04 10.46H7.65L2.94 5.8L5.54 3.03L10.01 7.83V1H13.9V7.83L18.38 3.03L20.97 5.8L16.26 10.46H22.87V14.32H16.22L20.95 19.12L18.36 21.82L11.94 15.09L5.51 21.82L2.92 19.12L7.65 14.32H1V10.46H1.04Z" stroke="#4C2C57" stroke-width="2" stroke-miterlimit="10"/>
<path fill-rule="evenodd" clip-rule="evenodd" d="M1.04 10.46H7.65L2.94 5.8L5.54 3.03L10.01 7.83V1H13.9V7.83L18.38 3.03L20.97 5.8L16.26 10.46H22.87V14.32H16.22L20.95 19.12L18.36 21.82L11.94 15.09L5.51 21.82L2.92 19.12L7.65 14.32H1V10.46H1.04Z" fill="white"/>
</g>
<defs>
<clipPath id="clip0_159_306">
<rect width="23.87" height="30" fill="white"/>
</clipPath>
</defs>
</svg>
