<svg width="172" height="30" viewBox="0 0 172 30" fill="none" xmlns="http://www.w3.org/2000/svg">
<g clip-path="url(#clip0_133_72)">
<path d="M11.3201 10.9999C11.2222 9.97104 10.9799 8.96111 10.6001 7.9999C10.4985 7.5346 10.2342 7.12083 9.85475 6.83302C9.47529 6.54521 9.00558 6.40227 8.53012 6.4299C7.94352 6.4239 7.36986 6.6023 6.89012 6.9399C5.94769 7.57431 5.15818 8.41039 4.57878 9.3876C3.99937 10.3648 3.64458 11.4587 3.54012 12.5899C3.51862 12.905 3.5422 13.2215 3.61012 13.5299C3.62502 13.7873 3.72111 14.0335 3.88461 14.2329C4.0481 14.4323 4.27059 14.5748 4.52012 14.6399C5.38012 14.8299 6.25012 15.0099 7.13012 15.1199C8.90387 15.2955 10.6499 15.685 12.3301 16.2799C13.5709 16.7221 14.6932 17.4441 15.6101 18.3899C16.5338 19.4111 17.0536 20.7341 17.072 22.111C17.0904 23.4879 16.6062 24.8243 15.7101 25.8699C14.5104 27.317 12.8457 28.3031 11.0001 28.6599C8.82552 29.1966 6.53215 28.9634 4.51012 27.9999C4.08536 27.7895 3.6861 27.5311 3.32012 27.2299C3.02523 27.0241 2.7808 26.7542 2.60518 26.4404C2.42957 26.1267 2.32733 25.7772 2.30616 25.4182C2.28499 25.0593 2.34543 24.7002 2.48294 24.3679C2.62045 24.0357 2.83146 23.7389 3.10012 23.4999C3.61604 22.957 4.32492 22.639 5.07346 22.6147C5.822 22.5904 6.55003 22.8617 7.10012 23.3699C6.75242 23.3372 6.40171 23.3762 6.06972 23.4845C5.73772 23.5929 5.43153 23.7683 5.17012 23.9999C5.79351 24.7104 6.6682 25.1513 7.61012 25.2299C9.16869 25.5133 10.7768 25.1953 12.1101 24.3399C12.824 23.8775 13.338 23.1636 13.5501 22.3399C13.6782 21.8877 13.6706 21.4078 13.5284 20.9598C13.3862 20.5118 13.1156 20.1155 12.7501 19.8199C12.0902 19.243 11.317 18.8104 10.4801 18.5499C9.13623 18.1325 7.75724 17.838 6.36012 17.6699C5.40492 17.533 4.46431 17.3087 3.55012 16.9999C2.84669 16.7439 2.23482 16.2853 1.79168 15.682C1.34854 15.0787 1.09399 14.3577 1.06012 13.6099C0.864892 11.7758 1.27585 9.92829 2.23012 8.3499C2.94402 7.01906 3.95732 5.87225 5.19012 4.9999C5.73678 4.57808 6.36356 4.2719 7.03231 4.09998C7.70106 3.92807 8.39779 3.89401 9.08012 3.9999C9.88594 4.11927 10.6254 4.51443 11.1725 5.11802C11.7195 5.72161 12.0403 6.49626 12.0801 7.3099C12.1826 8.49986 11.9505 9.69478 11.4101 10.7599L11.3201 10.9999Z" stroke="#F3FAFE" stroke-width="2" stroke-miterlimit="10"/>
<path d="M11.3201 10.9999C11.2222 9.97104 10.9799 8.96111 10.6001 7.9999C10.4985 7.5346 10.2342 7.12083 9.85475 6.83302C9.47529 6.54521 9.00558 6.40227 8.53012 6.4299C7.94352 6.4239 7.36986 6.6023 6.89012 6.9399C5.94769 7.57431 5.15818 8.41039 4.57878 9.3876C3.99937 10.3648 3.64458 11.4587 3.54012 12.5899C3.51862 12.905 3.5422 13.2215 3.61012 13.5299C3.62502 13.7873 3.72111 14.0335 3.88461 14.2329C4.0481 14.4323 4.27059 14.5748 4.52012 14.6399C5.38012 14.8299 6.25012 15.0099 7.13012 15.1199C8.90387 15.2955 10.6499 15.685 12.3301 16.2799C13.5709 16.7221 14.6932 17.4441 15.6101 18.3899C16.5338 19.4111 17.0536 20.7341 17.072 22.111C17.0904 23.4879 16.6062 24.8243 15.7101 25.8699C14.5104 27.317 12.8457 28.3031 11.0001 28.6599C8.82552 29.1966 6.53215 28.9634 4.51012 27.9999C4.08536 27.7895 3.6861 27.5311 3.32012 27.2299C3.02523 27.0241 2.7808 26.7542 2.60518 26.4404C2.42957 26.1267 2.32733 25.7772 2.30616 25.4182C2.28499 25.0593 2.34543 24.7002 2.48294 24.3679C2.62045 24.0357 2.83146 23.7389 3.10012 23.4999C3.61604 22.957 4.32492 22.639 5.07346 22.6147C5.822 22.5904 6.55003 22.8617 7.10012 23.3699C6.75242 23.3372 6.40171 23.3762 6.06972 23.4845C5.73772 23.5929 5.43153 23.7683 5.17012 23.9999C5.79351 24.7104 6.6682 25.1513 7.61012 25.2299C9.16869 25.5133 10.7768 25.1953 12.1101 24.3399C12.824 23.8775 13.338 23.1636 13.5501 22.3399C13.6782 21.8877 13.6706 21.4078 13.5284 20.9598C13.3862 20.5118 13.1156 20.1155 12.7501 19.8199C12.0902 19.243 11.317 18.8104 10.4801 18.5499C9.13623 18.1325 7.75724 17.838 6.36012 17.6699C5.40492 17.533 4.46431 17.3087 3.55012 16.9999C2.84669 16.7439 2.23482 16.2853 1.79168 15.682C1.34854 15.0787 1.09399 14.3577 1.06012 13.6099C0.864892 11.7758 1.27585 9.92829 2.23012 8.3499C2.94402 7.01906 3.95732 5.87225 5.19012 4.9999C5.73678 4.57808 6.36356 4.2719 7.03231 4.09998C7.70106 3.92807 8.39779 3.89401 9.08012 3.9999C9.88594 4.11927 10.6254 4.51443 11.1725 5.11802C11.7195 5.72161 12.0403 6.49626 12.0801 7.3099C12.1826 8.49986 11.9505 9.69478 11.4101 10.7599L11.3201 10.9999Z" fill="#645059"/>
<path d="M144.19 20.11C143.836 20.714 143.525 21.3422 143.26 21.99C142.86 23.22 142.57 24.48 142.26 25.72C142.176 26.0968 142.048 26.4626 141.88 26.81C141.738 27.0815 141.513 27.3007 141.238 27.4356C140.963 27.5705 140.652 27.6141 140.35 27.56C140.039 27.5183 139.751 27.3751 139.531 27.1526C139.31 26.9301 139.169 26.6409 139.13 26.33C139.05 25.8911 139.006 25.4462 139 25C139 23.56 139 22.12 139 20.68C138.88 17.16 138.91 13.68 139 10.11C139.07 7.75 139.13 5.39 139.21 3.03C139.22 2.75151 139.25 2.4741 139.3 2.2C139.328 1.94174 139.455 1.70443 139.655 1.53832C139.855 1.37221 140.111 1.29033 140.37 1.31C140.86 1.37 141.13 1.78 141.12 2.41C141.04 6.52 140.95 10.62 140.9 14.73C140.9 15.89 140.98 17.05 141.02 18.29L141.24 18.1C141.47 17.83 141.69 17.56 141.94 17.32C142.217 17.0168 142.551 16.7717 142.924 16.5989C143.296 16.426 143.699 16.3288 144.109 16.313C144.52 16.2972 144.929 16.363 145.314 16.5067C145.698 16.6504 146.051 16.8691 146.35 17.15C147.141 17.7804 147.78 18.58 148.22 19.49C148.84 20.75 149.4 22.04 149.98 23.31C150.362 24.2636 150.99 25.0987 151.8 25.73C151.973 25.8626 152.127 26.0173 152.26 26.19C152.447 26.408 152.691 26.5701 152.965 26.6583C153.238 26.7466 153.531 26.7575 153.81 26.69C154.508 26.5974 155.163 26.2979 155.69 25.83L155.8 25.9C155.665 26.2448 155.505 26.5791 155.32 26.9C154.969 27.4188 154.505 27.8512 153.963 28.1648C153.421 28.4783 152.815 28.6647 152.19 28.71C151.247 28.8714 150.277 28.724 149.425 28.2898C148.573 27.8555 147.884 27.1576 147.46 26.3C146.78 25.1 146.24 23.82 145.63 22.59C145.28 21.88 144.9 21.19 144.53 20.5C144.426 20.3625 144.312 20.2322 144.19 20.11V20.11Z" stroke="#F3FAFE" stroke-width="2" stroke-miterlimit="10"/>
<path d="M144.19 20.11C143.836 20.714 143.525 21.3422 143.26 21.99C142.86 23.22 142.57 24.48 142.26 25.72C142.176 26.0968 142.048 26.4626 141.88 26.81C141.738 27.0815 141.513 27.3007 141.238 27.4356C140.963 27.5705 140.652 27.6141 140.35 27.56C140.039 27.5183 139.751 27.3751 139.531 27.1526C139.31 26.9301 139.169 26.6409 139.13 26.33C139.05 25.8911 139.006 25.4462 139 25C139 23.56 139 22.12 139 20.68C138.88 17.16 138.91 13.68 139 10.11C139.07 7.75 139.13 5.39 139.21 3.03C139.22 2.75151 139.25 2.4741 139.3 2.2C139.328 1.94174 139.455 1.70443 139.655 1.53832C139.855 1.37221 140.111 1.29033 140.37 1.31C140.86 1.37 141.13 1.78 141.12 2.41C141.04 6.52 140.95 10.62 140.9 14.73C140.9 15.89 140.98 17.05 141.02 18.29L141.24 18.1C141.47 17.83 141.69 17.56 141.94 17.32C142.217 17.0168 142.551 16.7717 142.924 16.5989C143.296 16.426 143.699 16.3288 144.109 16.313C144.52 16.2972 144.929 16.363 145.314 16.5067C145.698 16.6504 146.051 16.8691 146.35 17.15C147.141 17.7804 147.78 18.58 148.22 19.49C148.84 20.75 149.4 22.04 149.98 23.31C150.362 24.2636 150.99 25.0987 151.8 25.73C151.973 25.8626 152.127 26.0173 152.26 26.19C152.447 26.408 152.691 26.5701 152.965 26.6583C153.238 26.7466 153.531 26.7575 153.81 26.69C154.508 26.5974 155.163 26.2979 155.69 25.83L155.8 25.9C155.665 26.2448 155.505 26.5791 155.32 26.9C154.969 27.4188 154.505 27.8512 153.963 28.1648C153.421 28.4783 152.815 28.6647 152.19 28.71C151.247 28.8714 150.277 28.724 149.425 28.2898C148.573 27.8555 147.884 27.1576 147.46 26.3C146.78 25.1 146.24 23.82 145.63 22.59C145.28 21.88 144.9 21.19 144.53 20.5C144.426 20.3625 144.312 20.2322 144.19 20.11V20.11Z" fill="#645059"/>
<path d="M49.0002 27.5199C48.9754 27.7675 48.8591 27.9968 48.6742 28.1633C48.4893 28.3297 48.249 28.4212 48.0002 28.4199C47.5801 28.4529 47.1579 28.3909 46.765 28.2386C46.372 28.0862 46.0184 27.8475 45.7302 27.54C44.9102 26.74 44.1502 25.8699 43.4002 24.9899C43.1194 24.6031 42.8686 24.1952 42.6502 23.7699C42.1502 24.4399 41.6502 25.1599 41.0802 25.8399C40.5199 26.542 39.8091 27.1093 39.0002 27.4999C38.3036 27.8649 37.5001 27.9707 36.7328 27.7986C35.9655 27.6264 35.2842 27.1875 34.8102 26.5599C33.9591 25.5449 33.5075 24.2542 33.5402 22.9299C33.5433 19.9888 34.6086 17.1478 36.5402 14.9299C37.3287 13.9694 38.4642 13.3585 39.7002 13.2299C40.515 13.1457 41.337 13.2948 42.0702 13.6599C43.372 14.2175 44.4666 15.1686 45.2002 16.3799C45.37 16.6684 45.4544 16.9991 45.4438 17.3336C45.4332 17.6682 45.3279 17.9928 45.1402 18.2699C45.0777 18.4076 45.0535 18.5597 45.0702 18.7099C45.2372 20.0082 45.5734 21.279 46.0702 22.4899C46.4702 23.5499 46.8402 24.63 47.2402 25.6899C47.3506 26.0365 47.4947 26.3714 47.6702 26.6899C47.8708 26.9721 48.1137 27.2217 48.3902 27.4299C48.5902 27.5099 48.8102 27.4799 49.0002 27.5199ZM42.3402 16.2099C40.7502 15.2099 39.4202 15.3799 38.3402 16.7699C36.9896 18.4465 36.2396 20.5272 36.2102 22.6799C36.1748 23.2875 36.3173 23.8921 36.6202 24.4199C37.0302 25.1199 37.4002 25.1999 38.0302 24.6899C38.7147 24.1083 39.2786 23.3983 39.6902 22.5999C40.4194 21.2162 40.9064 19.7179 41.1302 18.1699C41.1505 17.7678 41.272 17.3772 41.4835 17.0346C41.6951 16.6919 41.9898 16.4083 42.3402 16.2099V16.2099Z" stroke="#F3FAFE" stroke-width="2" stroke-miterlimit="10"/>
<path d="M49.0002 27.5199C48.9754 27.7675 48.8591 27.9968 48.6742 28.1633C48.4893 28.3297 48.249 28.4212 48.0002 28.4199C47.5801 28.4529 47.1579 28.3909 46.765 28.2386C46.372 28.0862 46.0184 27.8475 45.7302 27.54C44.9102 26.74 44.1502 25.8699 43.4002 24.9899C43.1194 24.6031 42.8686 24.1952 42.6502 23.7699C42.1502 24.4399 41.6502 25.1599 41.0802 25.8399C40.5199 26.542 39.8091 27.1093 39.0002 27.4999C38.3036 27.8649 37.5001 27.9707 36.7328 27.7986C35.9655 27.6264 35.2842 27.1875 34.8102 26.5599C33.9591 25.5449 33.5075 24.2542 33.5402 22.9299C33.5433 19.9888 34.6086 17.1478 36.5402 14.9299C37.3287 13.9694 38.4642 13.3585 39.7002 13.2299C40.515 13.1457 41.337 13.2948 42.0702 13.6599C43.372 14.2175 44.4666 15.1686 45.2002 16.3799C45.37 16.6684 45.4544 16.9991 45.4438 17.3336C45.4332 17.6682 45.3279 17.9928 45.1402 18.2699C45.0777 18.4076 45.0535 18.5597 45.0702 18.7099C45.2372 20.0082 45.5734 21.279 46.0702 22.4899C46.4702 23.5499 46.8402 24.63 47.2402 25.6899C47.3506 26.0365 47.4947 26.3714 47.6702 26.6899C47.8708 26.9721 48.1137 27.2217 48.3902 27.4299C48.5902 27.5099 48.8102 27.4799 49.0002 27.5199ZM42.3402 16.2099C40.7502 15.2099 39.4202 15.3799 38.3402 16.7699C36.9896 18.4465 36.2396 20.5272 36.2102 22.6799C36.1748 23.2875 36.3173 23.8921 36.6202 24.4199C37.0302 25.1199 37.4002 25.1999 38.0302 24.6899C38.7147 24.1083 39.2786 23.3983 39.6902 22.5999C40.4194 21.2162 40.9064 19.7179 41.1302 18.1699C41.1505 17.7678 41.272 17.3772 41.4835 17.0346C41.6951 16.6919 41.9898 16.4083 42.3402 16.2099V16.2099Z" fill="#645059"/>
<path d="M79.5502 27.74C79.5438 27.8644 79.5128 27.9863 79.4589 28.0986C79.4051 28.2109 79.3294 28.3113 79.2364 28.3942C79.1433 28.477 79.0347 28.5405 78.9169 28.5809C78.7992 28.6214 78.6745 28.6381 78.5502 28.63C78.1305 28.6686 77.7074 28.6103 77.3138 28.4594C76.9202 28.3086 76.5666 28.0693 76.2802 27.76C75.4502 26.96 74.6902 26.09 73.9402 25.22C73.647 24.809 73.3831 24.3779 73.1502 23.93C73.0502 24.1 72.9502 24.28 72.8302 24.46C72.1405 25.6208 71.2095 26.62 70.1002 27.39C69.6053 27.7583 69.0219 27.9893 68.409 28.0595C67.7961 28.1298 67.1756 28.0368 66.6102 27.79C65.8515 27.4254 65.2307 26.8256 64.8402 26.08C64.3226 25.1944 64.0532 24.1857 64.0602 23.16C64.0641 20.219 65.1294 17.3783 67.0602 15.16C67.8428 14.2043 68.9715 13.5969 70.2002 13.47C71.0139 13.387 71.8346 13.5324 72.5702 13.89C73.8897 14.4473 74.9943 15.4152 75.7202 16.65C75.8806 16.9361 75.9598 17.2605 75.9492 17.5883C75.9386 17.9161 75.8387 18.2348 75.6602 18.51C75.5928 18.6462 75.565 18.7987 75.5802 18.95C75.7486 20.2576 76.0847 21.5382 76.5802 22.76C76.9702 23.81 77.3402 24.88 77.7402 25.93C77.8456 26.2784 77.9899 26.6138 78.1702 26.93C78.3641 27.2172 78.604 27.4706 78.8802 27.68C79.0969 27.7466 79.3251 27.7671 79.5502 27.74V27.74ZM72.8702 16.43C71.2502 15.43 69.9302 15.61 68.8202 17.02C67.4803 18.6895 66.7375 20.7594 66.7102 22.9C66.6742 23.5076 66.8167 24.1124 67.1202 24.64C67.5302 25.34 67.9102 25.42 68.5302 24.91C69.2124 24.3262 69.776 23.6167 70.1902 22.82C70.9187 21.4316 71.4089 19.9307 71.6402 18.38C71.6613 17.9769 71.7855 17.586 72.0009 17.2446C72.2162 16.9032 72.5155 16.6227 72.8702 16.43Z" stroke="#F3FAFE" stroke-width="2" stroke-miterlimit="10"/>
<path d="M79.5502 27.74C79.5438 27.8644 79.5128 27.9863 79.4589 28.0986C79.4051 28.2109 79.3294 28.3113 79.2364 28.3942C79.1433 28.477 79.0347 28.5405 78.9169 28.5809C78.7992 28.6214 78.6745 28.6381 78.5502 28.63C78.1305 28.6686 77.7074 28.6103 77.3138 28.4594C76.9202 28.3086 76.5666 28.0693 76.2802 27.76C75.4502 26.96 74.6902 26.09 73.9402 25.22C73.647 24.809 73.3831 24.3779 73.1502 23.93C73.0502 24.1 72.9502 24.28 72.8302 24.46C72.1405 25.6208 71.2095 26.62 70.1002 27.39C69.6053 27.7583 69.0219 27.9893 68.409 28.0595C67.7961 28.1298 67.1756 28.0368 66.6102 27.79C65.8515 27.4254 65.2307 26.8256 64.8402 26.08C64.3226 25.1944 64.0532 24.1857 64.0602 23.16C64.0641 20.219 65.1294 17.3783 67.0602 15.16C67.8428 14.2043 68.9715 13.5969 70.2002 13.47C71.0139 13.387 71.8346 13.5324 72.5702 13.89C73.8897 14.4473 74.9943 15.4152 75.7202 16.65C75.8806 16.9361 75.9598 17.2605 75.9492 17.5883C75.9386 17.9161 75.8387 18.2348 75.6602 18.51C75.5928 18.6462 75.565 18.7987 75.5802 18.95C75.7486 20.2576 76.0847 21.5382 76.5802 22.76C76.9702 23.81 77.3402 24.88 77.7402 25.93C77.8456 26.2784 77.9899 26.6138 78.1702 26.93C78.3641 27.2172 78.604 27.4706 78.8802 27.68C79.0969 27.7466 79.3251 27.7671 79.5502 27.74V27.74ZM72.8702 16.43C71.2502 15.43 69.9302 15.61 68.8202 17.02C67.4803 18.6895 66.7375 20.7594 66.7102 22.9C66.6742 23.5076 66.8167 24.1124 67.1202 24.64C67.5302 25.34 67.9102 25.42 68.5302 24.91C69.2124 24.3262 69.776 23.6167 70.1902 22.82C70.9187 21.4316 71.4089 19.9307 71.6402 18.38C71.6613 17.9769 71.7855 17.586 72.0009 17.2446C72.2162 16.9032 72.5155 16.6227 72.8702 16.43Z" fill="#645059"/>
<path d="M105.47 27.7301C105.47 28.2201 105.14 28.5601 104.47 28.6301C104.052 28.6727 103.629 28.6183 103.235 28.4708C102.842 28.3234 102.487 28.087 102.2 27.7801C101.36 26.9701 100.6 26.0901 99.84 25.2001C99.582 24.8168 99.3515 24.4158 99.15 24.0001C98.64 24.6701 98.15 25.3901 97.57 26.0701C97.0161 26.7654 96.3118 27.3261 95.51 27.7101C94.812 28.0832 94.0039 28.1956 93.2306 28.027C92.4573 27.8584 91.7693 27.4199 91.29 26.7901C90.4409 25.7804 89.9831 24.4992 90 23.1801C89.9756 20.207 91.0431 17.3284 93 15.0901C93.3831 14.6178 93.858 14.2281 94.396 13.9445C94.934 13.6609 95.5238 13.4893 96.13 13.4401C96.6022 13.3929 97.0791 13.4267 97.54 13.5401C98.3961 13.7497 99.2008 14.1307 99.9055 14.6601C100.61 15.1894 101.2 15.8562 101.64 16.6201C101.802 16.8983 101.883 17.2167 101.872 17.5387C101.862 17.8607 101.76 18.1732 101.58 18.4401C101.509 18.5752 101.481 18.7287 101.5 18.8801C101.665 20.1883 102.002 21.4692 102.5 22.6901C102.91 23.7601 103.28 24.8301 103.68 25.9001C103.785 26.2484 103.93 26.5839 104.11 26.9001C104.308 27.1873 104.555 27.4378 104.84 27.6401C105.05 27.7301 105.28 27.7001 105.47 27.7301ZM98.81 16.4301C97.17 15.4301 95.87 15.6101 94.75 17.0201C93.4194 18.6949 92.6779 20.7614 92.64 22.9001C92.6155 23.523 92.7681 24.1402 93.08 24.6801C93.49 25.3301 93.84 25.4001 94.44 24.9301C95.1294 24.3482 95.6999 23.6385 96.12 22.8401C96.8459 21.4692 97.3329 19.9846 97.56 18.4501C97.578 18.0345 97.7024 17.6306 97.9213 17.2769C98.1402 16.9232 98.4461 16.6316 98.81 16.4301V16.4301Z" stroke="#F3FAFE" stroke-width="2" stroke-miterlimit="10"/>
<path d="M105.47 27.7301C105.47 28.2201 105.14 28.5601 104.47 28.6301C104.052 28.6727 103.629 28.6183 103.235 28.4708C102.842 28.3234 102.487 28.087 102.2 27.7801C101.36 26.9701 100.6 26.0901 99.84 25.2001C99.582 24.8168 99.3515 24.4158 99.15 24.0001C98.64 24.6701 98.15 25.3901 97.57 26.0701C97.0161 26.7654 96.3118 27.3261 95.51 27.7101C94.812 28.0832 94.0039 28.1956 93.2306 28.027C92.4573 27.8584 91.7693 27.4199 91.29 26.7901C90.4409 25.7804 89.9831 24.4992 90 23.1801C89.9756 20.207 91.0431 17.3284 93 15.0901C93.3831 14.6178 93.858 14.2281 94.396 13.9445C94.934 13.6609 95.5238 13.4893 96.13 13.4401C96.6022 13.3929 97.0791 13.4267 97.54 13.5401C98.3961 13.7497 99.2008 14.1307 99.9055 14.6601C100.61 15.1894 101.2 15.8562 101.64 16.6201C101.802 16.8983 101.883 17.2167 101.872 17.5387C101.862 17.8607 101.76 18.1732 101.58 18.4401C101.509 18.5752 101.481 18.7287 101.5 18.8801C101.665 20.1883 102.002 21.4692 102.5 22.6901C102.91 23.7601 103.28 24.8301 103.68 25.9001C103.785 26.2484 103.93 26.5839 104.11 26.9001C104.308 27.1873 104.555 27.4378 104.84 27.6401C105.05 27.7301 105.28 27.7001 105.47 27.7301ZM98.81 16.4301C97.17 15.4301 95.87 15.6101 94.75 17.0201C93.4194 18.6949 92.6779 20.7614 92.64 22.9001C92.6155 23.523 92.7681 24.1402 93.08 24.6801C93.49 25.3301 93.84 25.4001 94.44 24.9301C95.1294 24.3482 95.6999 23.6385 96.12 22.8401C96.8459 21.4692 97.3329 19.9846 97.56 18.4501C97.578 18.0345 97.7024 17.6306 97.9213 17.2769C98.1402 16.9232 98.4461 16.6316 98.81 16.4301V16.4301Z" fill="#645059"/>
<path d="M108.89 16.71C109.24 16.38 109.5 16.09 109.8 15.85C110.114 15.5551 110.485 15.3271 110.89 15.1799C111.295 15.0327 111.725 14.9694 112.156 14.9937C112.586 15.018 113.006 15.1295 113.392 15.3214C113.778 15.5133 114.121 15.7816 114.4 16.11C115.047 16.8215 115.564 17.6405 115.93 18.53C116.52 19.86 117.07 21.2 117.66 22.53C117.85 22.95 118.09 23.34 118.31 23.75C118.53 24.16 118.86 24.75 119.09 25.26C119.44 26.02 119.9 26.21 120.63 25.81C121.1 25.55 121.55 25.24 122 24.96C121.955 25.3959 121.82 25.8178 121.603 26.1987C121.387 26.5797 121.093 26.9115 120.741 27.1729C120.39 27.4343 119.987 27.6198 119.56 27.7174C119.133 27.815 118.69 27.8227 118.26 27.74C117.443 27.5704 116.677 27.2104 116.025 26.6891C115.374 26.1677 114.855 25.4999 114.51 24.74C113.93 23.44 113.43 22.09 112.88 20.74C112.61 20.1 112.31 19.46 112.02 18.83H111.91C111.74 19.08 111.56 19.34 111.41 19.6C110.795 20.8564 110.403 22.2097 110.25 23.6C110.06 24.82 109.9 26.04 109.73 27.27C109.72 27.5886 109.622 27.8982 109.445 28.1634C109.268 28.4287 109.02 28.6388 108.73 28.77C108.475 28.8801 108.197 28.923 107.921 28.8947C107.645 28.8663 107.381 28.7677 107.154 28.6081C106.928 28.4485 106.745 28.2334 106.626 27.9834C106.506 27.7333 106.452 27.4567 106.47 27.18C106.386 25.3514 106.513 23.5193 106.85 21.72C106.918 21.327 106.952 20.9288 106.95 20.53C106.95 18.8 106.95 17.07 106.95 15.33C106.963 14.9064 107.03 14.4863 107.15 14.08C107.156 13.889 107.239 13.7085 107.378 13.5782C107.518 13.4478 107.704 13.3783 107.895 13.385C108.086 13.3916 108.266 13.4738 108.397 13.6135C108.527 13.7532 108.596 13.939 108.59 14.13C108.7 14.7 108.75 15.28 108.81 15.85C108.87 16.12 108.88 16.38 108.89 16.71Z" stroke="#F3FAFE" stroke-width="2" stroke-miterlimit="10"/>
<path d="M108.89 16.71C109.24 16.38 109.5 16.09 109.8 15.85C110.114 15.5551 110.485 15.3271 110.89 15.1799C111.295 15.0327 111.725 14.9694 112.156 14.9937C112.586 15.018 113.006 15.1295 113.392 15.3214C113.778 15.5133 114.121 15.7816 114.4 16.11C115.047 16.8215 115.564 17.6405 115.93 18.53C116.52 19.86 117.07 21.2 117.66 22.53C117.85 22.95 118.09 23.34 118.31 23.75C118.53 24.16 118.86 24.75 119.09 25.26C119.44 26.02 119.9 26.21 120.63 25.81C121.1 25.55 121.55 25.24 122 24.96C121.955 25.3959 121.82 25.8178 121.603 26.1987C121.387 26.5797 121.093 26.9115 120.741 27.1729C120.39 27.4343 119.987 27.6198 119.56 27.7174C119.133 27.815 118.69 27.8227 118.26 27.74C117.443 27.5704 116.677 27.2104 116.025 26.6891C115.374 26.1677 114.855 25.4999 114.51 24.74C113.93 23.44 113.43 22.09 112.88 20.74C112.61 20.1 112.31 19.46 112.02 18.83H111.91C111.74 19.08 111.56 19.34 111.41 19.6C110.795 20.8564 110.403 22.2097 110.25 23.6C110.06 24.82 109.9 26.04 109.73 27.27C109.72 27.5886 109.622 27.8982 109.445 28.1634C109.268 28.4287 109.02 28.6388 108.73 28.77C108.475 28.8801 108.197 28.923 107.921 28.8947C107.645 28.8663 107.381 28.7677 107.154 28.6081C106.928 28.4485 106.745 28.2334 106.626 27.9834C106.506 27.7333 106.452 27.4567 106.47 27.18C106.386 25.3514 106.513 23.5193 106.85 21.72C106.918 21.327 106.952 20.9288 106.95 20.53C106.95 18.8 106.95 17.07 106.95 15.33C106.963 14.9064 107.03 14.4863 107.15 14.08C107.156 13.889 107.239 13.7085 107.378 13.5782C107.518 13.4478 107.704 13.3783 107.895 13.385C108.086 13.3916 108.266 13.4738 108.397 13.6135C108.527 13.7532 108.596 13.939 108.59 14.13C108.7 14.7 108.75 15.28 108.81 15.85C108.87 16.12 108.88 16.38 108.89 16.71Z" fill="#645059"/>
<path d="M170 26.0001C169.862 26.2378 169.698 26.4592 169.51 26.6601C168.422 27.5677 167.096 28.1439 165.69 28.3201C164.064 28.5134 162.419 28.4865 160.8 28.2401C159.469 28.0317 158.249 27.3765 157.34 26.3823C156.432 25.3881 155.888 24.1142 155.8 22.7701C155.641 20.482 156.38 18.2219 157.86 16.4701C158.856 15.0604 160.248 13.978 161.86 13.3601C162.532 13.0831 163.263 12.9854 163.984 13.0766C164.704 13.1678 165.389 13.4446 165.97 13.8801C166.474 14.2752 166.884 14.7769 167.171 15.3492C167.458 15.9214 167.615 16.5501 167.63 17.1901C167.736 18.5616 167.342 19.925 166.52 21.0281C165.698 22.1312 164.505 22.8992 163.16 23.1901C162.483 23.362 161.789 23.4593 161.09 23.4801C160.784 23.4414 160.493 23.3205 160.25 23.1301C160.04 23.0001 160.08 22.8101 160.32 22.7301C160.56 22.6501 161.04 22.5201 161.39 22.3901C162.55 22.0093 163.57 21.2922 164.32 20.3301C164.676 19.8736 164.9 19.3276 164.965 18.7523C165.03 18.1769 164.935 17.5948 164.69 17.0701C164.642 16.897 164.556 16.7369 164.438 16.6013C164.32 16.4658 164.173 16.3582 164.008 16.2864C163.844 16.2146 163.665 16.1803 163.485 16.1861C163.306 16.192 163.13 16.2377 162.97 16.3201C161.96 16.7141 161.078 17.3783 160.42 18.2401C159.576 19.1742 159.036 20.3423 158.87 21.5901C158.762 22.2274 158.847 22.8823 159.112 23.4716C159.377 24.061 159.812 24.5582 160.36 24.9001C161.445 25.7022 162.679 26.2801 163.99 26.6001C165.649 26.9584 167.373 26.8757 168.99 26.3601C169.156 26.324 169.32 26.2773 169.48 26.2201C169.612 26.1312 169.736 26.0308 169.85 25.9201L170 26.0001Z" stroke="#F3FAFE" stroke-width="2" stroke-miterlimit="10"/>
<path d="M170 26.0001C169.862 26.2378 169.698 26.4592 169.51 26.6601C168.422 27.5677 167.096 28.1439 165.69 28.3201C164.064 28.5134 162.419 28.4865 160.8 28.2401C159.469 28.0317 158.249 27.3765 157.34 26.3823C156.432 25.3881 155.888 24.1142 155.8 22.7701C155.641 20.482 156.38 18.2219 157.86 16.4701C158.856 15.0604 160.248 13.978 161.86 13.3601C162.532 13.0831 163.263 12.9854 163.984 13.0766C164.704 13.1678 165.389 13.4446 165.97 13.8801C166.474 14.2752 166.884 14.7769 167.171 15.3492C167.458 15.9214 167.615 16.5501 167.63 17.1901C167.736 18.5616 167.342 19.925 166.52 21.0281C165.698 22.1312 164.505 22.8992 163.16 23.1901C162.483 23.362 161.789 23.4593 161.09 23.4801C160.784 23.4414 160.493 23.3205 160.25 23.1301C160.04 23.0001 160.08 22.8101 160.32 22.7301C160.56 22.6501 161.04 22.5201 161.39 22.3901C162.55 22.0093 163.57 21.2922 164.32 20.3301C164.676 19.8736 164.9 19.3276 164.965 18.7523C165.03 18.1769 164.935 17.5948 164.69 17.0701C164.642 16.897 164.556 16.7369 164.438 16.6013C164.32 16.4658 164.173 16.3582 164.008 16.2864C163.844 16.2146 163.665 16.1803 163.485 16.1861C163.306 16.192 163.13 16.2377 162.97 16.3201C161.96 16.7141 161.078 17.3783 160.42 18.2401C159.576 19.1742 159.036 20.3423 158.87 21.5901C158.762 22.2274 158.847 22.8823 159.112 23.4716C159.377 24.061 159.812 24.5582 160.36 24.9001C161.445 25.7022 162.679 26.2801 163.99 26.6001C165.649 26.9584 167.373 26.8757 168.99 26.3601C169.156 26.324 169.32 26.2773 169.48 26.2201C169.612 26.1312 169.736 26.0308 169.85 25.9201L170 26.0001Z" fill="#645059"/>
<path d="M32.5698 26C32.4316 26.2285 32.2672 26.4399 32.0798 26.63C31.0525 27.4886 29.8055 28.0428 28.4798 28.23C26.8271 28.5352 25.1325 28.5352 23.4798 28.23C22.6797 28.1254 21.9097 27.8572 21.2177 27.4421C20.5257 27.0271 19.9266 26.474 19.4576 25.8174C18.9885 25.1608 18.6597 24.4146 18.4915 23.6254C18.3233 22.8362 18.3193 22.0208 18.4798 21.23C18.6994 19.587 19.3421 18.0292 20.3448 16.7092C21.3475 15.3892 22.6759 14.3523 24.1998 13.7C24.8363 13.3877 25.5415 13.2416 26.2497 13.2753C26.9579 13.3089 27.646 13.5214 28.25 13.8927C28.854 14.2641 29.3541 14.7823 29.7038 15.3991C30.0534 16.0158 30.2413 16.7111 30.2498 17.42C30.3608 18.4278 30.1713 19.446 29.7051 20.3463C29.239 21.2467 28.5169 21.9891 27.6298 22.48C26.5041 23.2168 25.1851 23.6031 23.8398 23.59C23.5307 23.5804 23.2301 23.4871 22.9698 23.32C22.6198 23.11 22.6598 22.92 23.0398 22.78C23.4198 22.64 23.7698 22.58 24.1198 22.45C25.2372 22.072 26.2205 21.3771 26.9498 20.45C27.2874 20.0241 27.503 19.5144 27.5734 18.9754C27.6439 18.4365 27.5666 17.8885 27.3498 17.39C27.3018 17.2115 27.2151 17.0456 27.0959 16.9043C26.9766 16.763 26.8277 16.6497 26.6597 16.5724C26.4918 16.4951 26.3088 16.4557 26.1239 16.457C25.939 16.4583 25.7567 16.5003 25.5898 16.58C24.479 17.0504 23.512 17.8058 22.7868 18.7699C22.0616 19.7339 21.6038 20.8723 21.4598 22.07C21.4158 22.6537 21.5369 23.238 21.8092 23.7561C22.0815 24.2742 22.4941 24.7053 22.9998 25C24.031 25.7278 25.1818 26.2693 26.3998 26.6C28.2797 27.0277 30.2424 26.9133 32.0598 26.27C32.2098 26.27 32.3098 26.07 32.4398 25.97C32.4814 25.9864 32.5252 25.9966 32.5698 26V26Z" stroke="#F3FAFE" stroke-width="2" stroke-miterlimit="10"/>
<path d="M32.5698 26C32.4316 26.2285 32.2672 26.4399 32.0798 26.63C31.0525 27.4886 29.8055 28.0428 28.4798 28.23C26.8271 28.5352 25.1325 28.5352 23.4798 28.23C22.6797 28.1254 21.9097 27.8572 21.2177 27.4421C20.5257 27.0271 19.9266 26.474 19.4576 25.8174C18.9885 25.1608 18.6597 24.4146 18.4915 23.6254C18.3233 22.8362 18.3193 22.0208 18.4798 21.23C18.6994 19.587 19.3421 18.0292 20.3448 16.7092C21.3475 15.3892 22.6759 14.3523 24.1998 13.7C24.8363 13.3877 25.5415 13.2416 26.2497 13.2753C26.9579 13.3089 27.646 13.5214 28.25 13.8927C28.854 14.2641 29.3541 14.7823 29.7038 15.3991C30.0534 16.0158 30.2413 16.7111 30.2498 17.42C30.3608 18.4278 30.1713 19.446 29.7051 20.3463C29.239 21.2467 28.5169 21.9891 27.6298 22.48C26.5041 23.2168 25.1851 23.6031 23.8398 23.59C23.5307 23.5804 23.2301 23.4871 22.9698 23.32C22.6198 23.11 22.6598 22.92 23.0398 22.78C23.4198 22.64 23.7698 22.58 24.1198 22.45C25.2372 22.072 26.2205 21.3771 26.9498 20.45C27.2874 20.0241 27.503 19.5144 27.5734 18.9754C27.6439 18.4365 27.5666 17.8885 27.3498 17.39C27.3018 17.2115 27.2151 17.0456 27.0959 16.9043C26.9766 16.763 26.8277 16.6497 26.6597 16.5724C26.4918 16.4951 26.3088 16.4557 26.1239 16.457C25.939 16.4583 25.7567 16.5003 25.5898 16.58C24.479 17.0504 23.512 17.8058 22.7868 18.7699C22.0616 19.7339 21.6038 20.8723 21.4598 22.07C21.4158 22.6537 21.5369 23.238 21.8092 23.7561C22.0815 24.2742 22.4941 24.7053 22.9998 25C24.031 25.7278 25.1818 26.2693 26.3998 26.6C28.2797 27.0277 30.2424 26.9133 32.0598 26.27C32.2098 26.27 32.3098 26.07 32.4398 25.97C32.4814 25.9864 32.5252 25.9966 32.5698 26V26Z" fill="#645059"/>
<path d="M61.8101 18.37C61.6198 21.5711 60.2936 24.5992 58.0701 26.91C57.3539 27.73 56.3811 28.2834 55.3101 28.48C54.5682 28.6127 53.8042 28.5414 53.0997 28.2737C52.3952 28.006 51.7766 27.5519 51.3101 26.96C50.4109 25.8986 49.789 24.6307 49.5001 23.27C48.8844 20.7905 48.5754 18.2448 48.5801 15.69C48.5831 15.4716 48.6066 15.254 48.6501 15.04C48.6802 14.8471 48.7765 14.6707 48.9225 14.5412C49.0685 14.4116 49.2551 14.3369 49.4501 14.33C49.6421 14.3314 49.8269 14.4036 49.9689 14.5328C50.111 14.6619 50.2004 14.839 50.2201 15.03C50.3201 15.59 50.3801 16.16 50.4501 16.72C50.712 18.787 51.1878 20.8213 51.8701 22.79C52.1269 23.4357 52.4628 24.047 52.8701 24.61C53.0958 24.9221 53.3772 25.1899 53.7001 25.4C53.8933 25.5343 54.1253 25.6012 54.3603 25.5903C54.5953 25.5795 54.8202 25.4915 55.0001 25.34C55.2273 25.1774 55.4353 24.9895 55.6201 24.78C57.0794 22.9931 57.94 20.7927 58.0801 18.49C58.1089 18.1967 58.0697 17.9007 57.9656 17.625C57.8616 17.3492 57.6955 17.1012 57.4801 16.9C57.2176 16.6471 57.033 16.3245 56.9479 15.9701C56.8629 15.6157 56.881 15.2444 57.0001 14.9C57.1101 14.5368 57.3173 14.2107 57.5994 13.9569C57.8814 13.7031 58.2275 13.5312 58.6001 13.46C59.1236 13.3562 59.6669 13.4345 60.1398 13.6818C60.6127 13.9292 60.9868 14.3308 61.2001 14.82C61.6835 15.9378 61.8926 17.1549 61.8101 18.37Z" stroke="#F3FAFE" stroke-width="2" stroke-miterlimit="10"/>
<path d="M61.8101 18.37C61.6198 21.5711 60.2936 24.5992 58.0701 26.91C57.3539 27.73 56.3811 28.2834 55.3101 28.48C54.5682 28.6127 53.8042 28.5414 53.0997 28.2737C52.3952 28.006 51.7766 27.5519 51.3101 26.96C50.4109 25.8986 49.789 24.6307 49.5001 23.27C48.8844 20.7905 48.5754 18.2448 48.5801 15.69C48.5831 15.4716 48.6066 15.254 48.6501 15.04C48.6802 14.8471 48.7765 14.6707 48.9225 14.5412C49.0685 14.4116 49.2551 14.3369 49.4501 14.33C49.6421 14.3314 49.8269 14.4036 49.9689 14.5328C50.111 14.6619 50.2004 14.839 50.2201 15.03C50.3201 15.59 50.3801 16.16 50.4501 16.72C50.712 18.787 51.1878 20.8213 51.8701 22.79C52.1269 23.4357 52.4628 24.047 52.8701 24.61C53.0958 24.9221 53.3772 25.1899 53.7001 25.4C53.8933 25.5343 54.1253 25.6012 54.3603 25.5903C54.5953 25.5795 54.8202 25.4915 55.0001 25.34C55.2273 25.1774 55.4353 24.9895 55.6201 24.78C57.0794 22.9931 57.94 20.7927 58.0801 18.49C58.1089 18.1967 58.0697 17.9007 57.9656 17.625C57.8616 17.3492 57.6955 17.1012 57.4801 16.9C57.2176 16.6471 57.033 16.3245 56.9479 15.9701C56.8629 15.6157 56.881 15.2444 57.0001 14.9C57.1101 14.5368 57.3173 14.2107 57.5994 13.9569C57.8814 13.7031 58.2275 13.5312 58.6001 13.46C59.1236 13.3562 59.6669 13.4345 60.1398 13.6818C60.6127 13.9292 60.9868 14.3308 61.2001 14.82C61.6835 15.9378 61.8926 17.1549 61.8101 18.37Z" fill="#645059"/>
<path d="M136.44 23.44C136.361 23.8747 136.219 24.2957 136.02 24.69C135.743 25.1023 135.398 25.4642 135 25.76C133.449 26.8083 131.731 27.586 129.92 28.06C129.071 28.3636 128.159 28.4462 127.27 28.3C126.148 28.0335 125.13 27.4414 124.344 26.598C123.557 25.7547 123.037 24.6978 122.85 23.56C122.608 22.0463 122.756 20.4957 123.281 19.0554C123.806 17.6151 124.69 16.3328 125.85 15.33C126.526 14.7453 127.346 14.3524 128.226 14.1924C129.105 14.0323 130.011 14.1109 130.85 14.42C131.87 14.7288 132.804 15.2696 133.58 16C133.75 16.153 133.895 16.3319 134.01 16.53C134.1 16.6824 134.146 16.8571 134.141 17.0342C134.136 17.2112 134.082 17.3833 133.983 17.5306C133.885 17.678 133.747 17.7946 133.586 17.867C133.424 17.9395 133.245 17.9648 133.07 17.94C132.35 17.84 131.66 17.61 130.94 17.49C130.324 17.3707 129.698 17.3104 129.07 17.31C128.706 17.325 128.356 17.4545 128.07 17.68C127.348 18.2769 126.794 19.0525 126.464 19.9297C126.134 20.8068 126.04 21.755 126.19 22.68C126.272 23.1596 126.493 23.6047 126.825 23.9601C127.158 24.3156 127.587 24.5658 128.06 24.68C130.473 25.5589 133.136 25.4511 135.47 24.38C135.722 24.2302 135.94 24.0292 136.11 23.79C136.198 23.6631 136.268 23.5253 136.32 23.38L136.44 23.44Z" stroke="#F3FAFE" stroke-width="2" stroke-miterlimit="10"/>
<path d="M136.44 23.44C136.361 23.8747 136.219 24.2957 136.02 24.69C135.743 25.1023 135.398 25.4642 135 25.76C133.449 26.8083 131.731 27.586 129.92 28.06C129.071 28.3636 128.159 28.4462 127.27 28.3C126.148 28.0335 125.13 27.4414 124.344 26.598C123.557 25.7547 123.037 24.6978 122.85 23.56C122.608 22.0463 122.756 20.4957 123.281 19.0554C123.806 17.6151 124.69 16.3328 125.85 15.33C126.526 14.7453 127.346 14.3524 128.226 14.1924C129.105 14.0323 130.011 14.1109 130.85 14.42C131.87 14.7288 132.804 15.2696 133.58 16C133.75 16.153 133.895 16.3319 134.01 16.53C134.1 16.6824 134.146 16.8571 134.141 17.0342C134.136 17.2112 134.082 17.3833 133.983 17.5306C133.885 17.678 133.747 17.7946 133.586 17.867C133.424 17.9395 133.245 17.9648 133.07 17.94C132.35 17.84 131.66 17.61 130.94 17.49C130.324 17.3707 129.698 17.3104 129.07 17.31C128.706 17.325 128.356 17.4545 128.07 17.68C127.348 18.2769 126.794 19.0525 126.464 19.9297C126.134 20.8068 126.04 21.755 126.19 22.68C126.272 23.1596 126.493 23.6047 126.825 23.9601C127.158 24.3156 127.587 24.5658 128.06 24.68C130.473 25.5589 133.136 25.4511 135.47 24.38C135.722 24.2302 135.94 24.0292 136.11 23.79C136.198 23.6631 136.268 23.5253 136.32 23.38L136.44 23.44Z" fill="#645059"/>
<path d="M90 26.42C90.0917 26.6404 90.107 26.8851 90.0436 27.1153C89.9802 27.3454 89.8417 27.5477 89.65 27.69C89.0807 28.1387 88.3748 28.3787 87.65 28.37C86.7641 28.3907 85.8779 28.3405 85 28.22C84.3895 28.0704 83.8166 27.7958 83.3175 27.4138C82.8184 27.0317 82.4038 26.5503 82.1 26C81.2178 24.66 80.6345 23.1457 80.39 21.56C79.7843 18.2446 79.8728 14.8395 80.65 11.56C81.14 9.39002 81.74 7.24002 82.36 5.11002C82.695 3.91442 83.2738 2.80108 84.06 1.84002C84.2972 1.53569 84.5888 1.278 84.92 1.08002C85.1628 0.963627 85.4386 0.935343 85.7 1.00002C85.7713 1.02138 85.8365 1.05935 85.8902 1.11082C85.944 1.16229 85.9847 1.22579 86.0091 1.29609C86.0335 1.36639 86.0409 1.44148 86.0306 1.51518C86.0204 1.58888 85.9927 1.65908 85.95 1.72002C84.8844 3.6096 84.144 5.66492 83.76 7.80002C83.0962 10.4941 82.7439 13.2555 82.71 16.03C82.7005 17.9696 82.9906 19.899 83.57 21.75C83.9437 23.0911 84.7485 24.2718 85.86 25.11C86.5 25.57 86.98 26.27 87.77 26.53C88.2381 26.6924 88.7156 26.8259 89.2 26.93C89.57 27.05 90 27.08 90 26.42Z" stroke="#F3FAFE" stroke-width="2" stroke-miterlimit="10"/>
<path d="M90 26.42C90.0917 26.6404 90.107 26.8851 90.0436 27.1153C89.9802 27.3454 89.8417 27.5477 89.65 27.69C89.0807 28.1387 88.3748 28.3787 87.65 28.37C86.7641 28.3907 85.8779 28.3405 85 28.22C84.3895 28.0704 83.8166 27.7958 83.3175 27.4138C82.8184 27.0317 82.4038 26.5503 82.1 26C81.2178 24.66 80.6345 23.1457 80.39 21.56C79.7843 18.2446 79.8728 14.8395 80.65 11.56C81.14 9.39002 81.74 7.24002 82.36 5.11002C82.695 3.91442 83.2738 2.80108 84.06 1.84002C84.2972 1.53569 84.5888 1.278 84.92 1.08002C85.1628 0.963627 85.4386 0.935343 85.7 1.00002C85.7713 1.02138 85.8365 1.05935 85.8902 1.11082C85.944 1.16229 85.9847 1.22579 86.0091 1.29609C86.0335 1.36639 86.0409 1.44148 86.0306 1.51518C86.0204 1.58888 85.9927 1.65908 85.95 1.72002C84.8844 3.6096 84.144 5.66492 83.76 7.80002C83.0962 10.4941 82.7439 13.2555 82.71 16.03C82.7005 17.9696 82.9906 19.899 83.57 21.75C83.9437 23.0911 84.7485 24.2718 85.86 25.11C86.5 25.57 86.98 26.27 87.77 26.53C88.2381 26.6924 88.7156 26.8259 89.2 26.93C89.57 27.05 90 27.08 90 26.42Z" fill="#645059"/>
</g>
<defs>
<clipPath id="clip0_133_72">
<rect width="171.34" height="29.93" fill="white"/>
</clipPath>
</defs>
</svg>
