<svg width="75" height="30" viewBox="0 0 75 30" fill="none" xmlns="http://www.w3.org/2000/svg">
<g clip-path="url(#clip0_159_303)">
<path d="M21.9 10.3401C19.8058 8.61993 17.1589 7.71749 14.45 7.80006C6.59 7.80006 1.25 13.8001 1.25 13.8001L2.75 16.1701C2.75 16.1701 3.59 16.2401 3.14 14.8401C3.79842 13.7389 4.68081 12.7884 5.73 12.0501V27.9301C5.1 28.1101 4.27 28.4401 4.83 29.0001H9.16C9.73 28.4301 8.83 28.0901 8.28 27.9301V24.1901C10.2592 24.9121 12.3437 25.304 14.45 25.3501C17.0649 25.4016 19.6214 24.5741 21.71 23.0001C22.6754 22.2636 23.4587 21.3152 23.9997 20.2281C24.5406 19.1411 24.8247 17.9443 24.83 16.7301C24.8351 15.5132 24.5757 14.3097 24.0698 13.2029C23.5639 12.0961 22.8235 11.1125 21.9 10.3201V10.3401ZM19.61 21.7701C18.1493 23.1612 16.1966 23.9164 14.18 23.8701C12.1537 23.9251 10.1399 23.536 8.28 22.7301V10.8501C10.0466 9.73639 12.0916 9.14369 14.18 9.14006C15.2085 9.10926 16.2321 9.29448 17.1846 9.68376C18.1371 10.073 18.9974 10.6577 19.71 11.4001C21.0354 12.8466 21.7518 14.7486 21.71 16.7101C21.7309 17.6495 21.5589 18.5833 21.2046 19.4536C20.8503 20.324 20.3212 21.1124 19.65 21.7701H19.61ZM28.66 7.77006H27.77C27.6772 7.77005 27.5854 7.78848 27.4998 7.82428C27.4142 7.86009 27.3366 7.91254 27.2715 7.97861C27.2063 8.04467 27.155 8.12302 27.1204 8.20911C27.0858 8.29519 27.0687 8.3873 27.07 8.48006V24.6801C27.07 24.8657 27.1437 25.0438 27.275 25.175C27.4063 25.3063 27.5843 25.3801 27.77 25.3801H28.65C28.7428 25.3814 28.8349 25.3643 28.9209 25.3297C29.007 25.2951 29.0854 25.2437 29.1515 25.1786C29.2175 25.1135 29.27 25.0359 29.3058 24.9503C29.3416 24.8647 29.36 24.7728 29.36 24.6801V8.51006C29.36 8.32176 29.2852 8.14117 29.152 8.00801C29.0189 7.87486 28.8383 7.80006 28.65 7.80006L28.66 7.77006ZM51.66 7.77006H50.8C50.6117 7.77006 50.4311 7.84486 50.298 7.97801C50.1648 8.11117 50.09 8.29176 50.09 8.48006V24.6801C50.09 24.7728 50.1084 24.8647 50.1442 24.9503C50.18 25.0359 50.2325 25.1135 50.2985 25.1786C50.3646 25.2437 50.443 25.2951 50.529 25.3297C50.6151 25.3643 50.7072 25.3814 50.8 25.3801H51.68C51.8657 25.3801 52.0437 25.3063 52.175 25.175C52.3063 25.0438 52.38 24.8657 52.38 24.6801V8.51006C52.3813 8.4173 52.3642 8.3252 52.3296 8.23911C52.295 8.15302 52.2437 8.07467 52.1785 8.00861C52.1134 7.94254 52.0358 7.89009 51.9502 7.85428C51.8646 7.81848 51.7728 7.80005 51.68 7.80006L51.66 7.77006ZM72.37 7.77006H71.55C70.9 7.77006 70.72 7.86006 70.43 8.43006C70.14 9.00006 63.77 21.6001 63.77 21.6001L57.12 8.46006C56.83 7.89006 56.65 7.80006 56.01 7.80006H55.19C54.58 7.80006 54.26 8.07006 54.6 8.80006C54.94 9.53006 62.79 24.8001 62.79 24.8001C62.8777 24.9915 63.0186 25.1538 63.1959 25.2676C63.3732 25.3813 63.5794 25.4418 63.79 25.4418C64.0006 25.4418 64.2068 25.3813 64.3841 25.2676C64.5614 25.1538 64.7023 24.9915 64.79 24.8001C64.79 24.8001 72.63 9.43006 73 8.75006C73.37 8.07006 73 7.75006 72.41 7.75006L72.37 7.77006ZM44.7 24.7701C44.8261 24.9719 45.0065 25.1342 45.2204 25.2386C45.4343 25.3429 45.6733 25.385 45.91 25.3601H47.24C48.07 25.3601 47.77 24.9901 47.54 24.6801C46.95 23.9101 41.16 16.5801 41.16 16.5801C41.16 16.5801 47.16 9.21006 47.75 8.44006C47.98 8.13006 48.28 7.75006 47.44 7.75006H46.14C45.9033 7.72514 45.6643 7.76723 45.4504 7.87155C45.2365 7.97587 45.0561 8.13821 44.93 8.34006C44.6 8.76006 39.72 14.7301 39.72 14.7301C39.72 14.7301 34.84 8.73006 34.51 8.34006C34.3776 8.1474 34.1945 7.99503 33.981 7.89975C33.7675 7.80447 33.5318 7.76997 33.3 7.80006H32C31.16 7.80006 31.46 8.18006 31.69 8.49006C32.28 9.26006 38.28 16.6301 38.28 16.6301C38.28 16.6301 32.28 23.9601 31.73 24.7301C31.49 25.0401 31.2 25.4101 32.03 25.4101H33.35C33.5882 25.4357 33.8288 25.3941 34.0445 25.2898C34.2602 25.1855 34.4422 25.0227 34.57 24.8201C34.9 24.4001 39.74 18.4701 39.74 18.4701L44.74 24.8201L44.7 24.7701ZM28.21 1.00006C27.9674 0.993217 27.7259 1.0358 27.5002 1.12521C27.2745 1.21463 27.0694 1.34901 26.8973 1.52018C26.7252 1.69136 26.5897 1.89575 26.499 2.12093C26.4084 2.34612 26.3645 2.58738 26.37 2.83006C26.3648 3.07295 26.4091 3.31436 26.5003 3.53958C26.5914 3.76479 26.7274 3.9691 26.9 4.14006C27.2544 4.47407 27.723 4.6601 28.21 4.6601C28.697 4.6601 29.1656 4.47407 29.52 4.14006C29.6926 3.9691 29.8286 3.76479 29.9197 3.53958C30.0109 3.31436 30.0552 3.07295 30.05 2.83006C30.0552 2.58717 30.0109 2.34576 29.9197 2.12054C29.8286 1.89533 29.6926 1.69102 29.52 1.52006C29.3493 1.3478 29.1448 1.21269 28.9193 1.1232C28.6939 1.03372 28.4524 0.991793 28.21 1.00006V1.00006ZM51.21 1.00006C50.9695 0.995909 50.7306 1.04056 50.5078 1.13131C50.285 1.22207 50.0829 1.35704 49.9137 1.52808C49.7446 1.69912 49.6118 1.90268 49.5235 2.12645C49.4352 2.35023 49.3932 2.58959 49.4 2.83006C49.3929 3.07231 49.4354 3.31346 49.5248 3.53872C49.6142 3.76398 49.7487 3.96861 49.92 4.14006C50.2761 4.47474 50.7463 4.66107 51.235 4.66107C51.7237 4.66107 52.1939 4.47474 52.55 4.14006C52.7213 3.96861 52.8558 3.76398 52.9452 3.53872C53.0346 3.31346 53.0771 3.07231 53.07 2.83006C53.077 2.587 53.0341 2.34508 52.9439 2.11924C52.8538 1.8934 52.7184 1.68842 52.5459 1.51695C52.3735 1.34548 52.1678 1.21115 51.9415 1.12225C51.7152 1.03335 51.473 0.991763 51.23 1.00006H51.21Z" stroke="#4C2C57" stroke-width="2" stroke-miterlimit="10"/>
<path fill-rule="evenodd" clip-rule="evenodd" d="M21.9 10.3401C19.8058 8.61993 17.1589 7.71749 14.45 7.80006C6.59 7.80006 1.25 13.8001 1.25 13.8001L2.75 16.1701C2.75 16.1701 3.59 16.2401 3.14 14.8401C3.79842 13.7389 4.68081 12.7884 5.73 12.0501V27.9301C5.1 28.1101 4.27 28.4401 4.83 29.0001H9.16C9.73 28.4301 8.83 28.0901 8.28 27.9301V24.1901C10.2592 24.9121 12.3437 25.304 14.45 25.3501C17.0649 25.4016 19.6214 24.5741 21.71 23.0001C22.6754 22.2636 23.4587 21.3152 23.9997 20.2281C24.5406 19.1411 24.8247 17.9443 24.83 16.7301C24.8351 15.5132 24.5757 14.3097 24.0698 13.2029C23.5639 12.0961 22.8235 11.1125 21.9 10.3201V10.3401ZM19.61 21.7701C18.1493 23.1612 16.1966 23.9164 14.18 23.8701C12.1537 23.9251 10.1399 23.536 8.28 22.7301V10.8501C10.0466 9.73639 12.0916 9.14369 14.18 9.14006C15.2085 9.10926 16.2321 9.29448 17.1846 9.68376C18.1371 10.073 18.9974 10.6577 19.71 11.4001C21.0354 12.8466 21.7518 14.7486 21.71 16.7101C21.7309 17.6495 21.5589 18.5833 21.2046 19.4536C20.8503 20.324 20.3212 21.1124 19.65 21.7701H19.61ZM28.66 7.77006H27.77C27.6772 7.77005 27.5854 7.78848 27.4998 7.82428C27.4142 7.86009 27.3366 7.91254 27.2715 7.97861C27.2063 8.04467 27.155 8.12302 27.1204 8.20911C27.0858 8.29519 27.0687 8.3873 27.07 8.48006V24.6801C27.07 24.8657 27.1437 25.0438 27.275 25.175C27.4063 25.3063 27.5843 25.3801 27.77 25.3801H28.65C28.7428 25.3814 28.8349 25.3643 28.9209 25.3297C29.007 25.2951 29.0854 25.2437 29.1515 25.1786C29.2175 25.1135 29.27 25.0359 29.3058 24.9503C29.3416 24.8647 29.36 24.7728 29.36 24.6801V8.51006C29.36 8.32176 29.2852 8.14117 29.152 8.00801C29.0189 7.87486 28.8383 7.80006 28.65 7.80006L28.66 7.77006ZM51.66 7.77006H50.8C50.6117 7.77006 50.4311 7.84486 50.298 7.97801C50.1648 8.11117 50.09 8.29176 50.09 8.48006V24.6801C50.09 24.7728 50.1084 24.8647 50.1442 24.9503C50.18 25.0359 50.2325 25.1135 50.2985 25.1786C50.3646 25.2437 50.443 25.2951 50.529 25.3297C50.6151 25.3643 50.7072 25.3814 50.8 25.3801H51.68C51.8657 25.3801 52.0437 25.3063 52.175 25.175C52.3063 25.0438 52.38 24.8657 52.38 24.6801V8.51006C52.3813 8.4173 52.3642 8.3252 52.3296 8.23911C52.295 8.15302 52.2437 8.07467 52.1785 8.00861C52.1134 7.94254 52.0358 7.89009 51.9502 7.85428C51.8646 7.81848 51.7728 7.80005 51.68 7.80006L51.66 7.77006ZM72.37 7.77006H71.55C70.9 7.77006 70.72 7.86006 70.43 8.43006C70.14 9.00006 63.77 21.6001 63.77 21.6001L57.12 8.46006C56.83 7.89006 56.65 7.80006 56.01 7.80006H55.19C54.58 7.80006 54.26 8.07006 54.6 8.80006C54.94 9.53006 62.79 24.8001 62.79 24.8001C62.8777 24.9915 63.0186 25.1538 63.1959 25.2676C63.3732 25.3813 63.5794 25.4418 63.79 25.4418C64.0006 25.4418 64.2068 25.3813 64.3841 25.2676C64.5614 25.1538 64.7023 24.9915 64.79 24.8001C64.79 24.8001 72.63 9.43006 73 8.75006C73.37 8.07006 73 7.75006 72.41 7.75006L72.37 7.77006ZM44.7 24.7701C44.8261 24.9719 45.0065 25.1342 45.2204 25.2386C45.4343 25.3429 45.6733 25.385 45.91 25.3601H47.24C48.07 25.3601 47.77 24.9901 47.54 24.6801C46.95 23.9101 41.16 16.5801 41.16 16.5801C41.16 16.5801 47.16 9.21006 47.75 8.44006C47.98 8.13006 48.28 7.75006 47.44 7.75006H46.14C45.9033 7.72514 45.6643 7.76723 45.4504 7.87155C45.2365 7.97587 45.0561 8.13821 44.93 8.34006C44.6 8.76006 39.72 14.7301 39.72 14.7301C39.72 14.7301 34.84 8.73006 34.51 8.34006C34.3776 8.1474 34.1945 7.99503 33.981 7.89975C33.7675 7.80447 33.5318 7.76997 33.3 7.80006H32C31.16 7.80006 31.46 8.18006 31.69 8.49006C32.28 9.26006 38.28 16.6301 38.28 16.6301C38.28 16.6301 32.28 23.9601 31.73 24.7301C31.49 25.0401 31.2 25.4101 32.03 25.4101H33.35C33.5882 25.4357 33.8288 25.3941 34.0445 25.2898C34.2602 25.1855 34.4422 25.0227 34.57 24.8201C34.9 24.4001 39.74 18.4701 39.74 18.4701L44.74 24.8201L44.7 24.7701ZM28.21 1.00006C27.9674 0.993217 27.7259 1.0358 27.5002 1.12521C27.2745 1.21463 27.0694 1.34901 26.8973 1.52018C26.7252 1.69136 26.5897 1.89575 26.499 2.12093C26.4084 2.34612 26.3645 2.58738 26.37 2.83006C26.3648 3.07295 26.4091 3.31436 26.5003 3.53958C26.5914 3.76479 26.7274 3.9691 26.9 4.14006C27.2544 4.47407 27.723 4.6601 28.21 4.6601C28.697 4.6601 29.1656 4.47407 29.52 4.14006C29.6926 3.9691 29.8286 3.76479 29.9197 3.53958C30.0109 3.31436 30.0552 3.07295 30.05 2.83006C30.0552 2.58717 30.0109 2.34576 29.9197 2.12054C29.8286 1.89533 29.6926 1.69102 29.52 1.52006C29.3493 1.3478 29.1448 1.21269 28.9193 1.1232C28.6939 1.03372 28.4524 0.991793 28.21 1.00006V1.00006ZM51.21 1.00006C50.9695 0.995909 50.7306 1.04056 50.5078 1.13131C50.285 1.22207 50.0829 1.35704 49.9137 1.52808C49.7446 1.69912 49.6118 1.90268 49.5235 2.12645C49.4352 2.35023 49.3932 2.58959 49.4 2.83006C49.3929 3.07231 49.4354 3.31346 49.5248 3.53872C49.6142 3.76398 49.7487 3.96861 49.92 4.14006C50.2761 4.47474 50.7463 4.66107 51.235 4.66107C51.7237 4.66107 52.1939 4.47474 52.55 4.14006C52.7213 3.96861 52.8558 3.76398 52.9452 3.53872C53.0346 3.31346 53.0771 3.07231 53.07 2.83006C53.077 2.587 53.0341 2.34508 52.9439 2.11924C52.8538 1.8934 52.7184 1.68842 52.5459 1.51695C52.3735 1.34548 52.1678 1.21115 51.9415 1.12225C51.7152 1.03335 51.473 0.991763 51.23 1.00006H51.21Z" fill="white"/>
</g>
<defs>
<clipPath id="clip0_159_303">
<rect width="74.11" height="30" fill="white"/>
</clipPath>
</defs>
</svg>
