<svg width="35" height="26" viewBox="0 0 35 26" fill="none" xmlns="http://www.w3.org/2000/svg">
<g clip-path="url(#clip0_159_287)">
<path d="M13 24.61C23.57 24.61 29.34 15.83 29.34 8.22003C29.34 7.97003 29.34 7.72003 29.34 7.47003C30.466 6.65017 31.4348 5.6339 32.2 4.47003C31.1551 4.93648 30.046 5.24324 28.91 5.38003C30.1079 4.65623 31.0031 3.523 31.43 2.19003C30.3035 2.85706 29.0731 3.3303 27.79 3.59003C26.9242 2.66578 25.777 2.05381 24.5272 1.84942C23.2774 1.64504 21.9951 1.85972 20.88 2.46003C19.7636 3.05541 18.877 4.0053 18.36 5.16003C17.8387 6.32085 17.7123 7.62051 18 8.86003C15.7187 8.74593 13.4871 8.15309 11.45 7.12003C9.40987 6.0829 7.61089 4.62804 6.16996 2.85003C5.4362 4.116 5.21082 5.61345 5.53943 7.03931C5.86805 8.46518 6.72612 9.71293 7.93996 10.53C7.02877 10.5062 6.13681 10.2626 5.33996 9.82003V9.89003C5.34089 11.2261 5.80625 12.5203 6.65637 13.551C7.50648 14.5817 8.68848 15.2849 9.99996 15.54C9.15515 15.7696 8.26867 15.8004 7.40996 15.63C7.77338 16.7732 8.48583 17.7739 9.44721 18.4913C10.4086 19.2088 11.5706 19.607 12.77 19.63C10.7372 21.2291 8.22626 22.0989 5.63996 22.1C5.16159 22.0988 4.68384 22.0654 4.20996 22C6.82986 23.6932 9.88058 24.599 13 24.61Z" stroke="#4C2C57" stroke-width="2" stroke-miterlimit="10"/>
<path d="M13 24.61C23.57 24.61 29.34 15.83 29.34 8.22003C29.34 7.97003 29.34 7.72003 29.34 7.47003C30.466 6.65017 31.4348 5.6339 32.2 4.47003C31.1551 4.93648 30.046 5.24324 28.91 5.38003C30.1079 4.65623 31.0031 3.523 31.43 2.19003C30.3035 2.85706 29.0731 3.3303 27.79 3.59003C26.9242 2.66578 25.777 2.05381 24.5272 1.84942C23.2774 1.64504 21.9951 1.85972 20.88 2.46003C19.7636 3.05541 18.877 4.0053 18.36 5.16003C17.8387 6.32085 17.7123 7.62051 18 8.86003C15.7187 8.74593 13.4871 8.15309 11.45 7.12003C9.40987 6.0829 7.61089 4.62804 6.16996 2.85003C5.4362 4.116 5.21082 5.61345 5.53943 7.03931C5.86805 8.46518 6.72612 9.71293 7.93996 10.53C7.02877 10.5062 6.13681 10.2626 5.33996 9.82003V9.89003C5.34089 11.2261 5.80625 12.5203 6.65637 13.551C7.50648 14.5817 8.68848 15.2849 9.99996 15.54C9.15515 15.7696 8.26867 15.8004 7.40996 15.63C7.77338 16.7732 8.48583 17.7739 9.44721 18.4913C10.4086 19.2088 11.5706 19.607 12.77 19.63C10.7372 21.2291 8.22626 22.0989 5.63996 22.1C5.16159 22.0988 4.68384 22.0654 4.20996 22C6.82986 23.6932 9.88058 24.599 13 24.61Z" fill="white"/>
</g>
<defs>
<clipPath id="clip0_159_287">
<rect width="34.96" height="25.61" fill="white"/>
</clipPath>
</defs>
</svg>
