<svg width="26" height="32" viewBox="0 0 26 32" fill="none" xmlns="http://www.w3.org/2000/svg">
<g clip-path="url(#clip0_159_296)">
<path d="M6 1L1 6V24H7V29L12 24H16L25 15V1H6ZM23 14L19 18H15L11.5 21.5V18H7V3H23V14Z" stroke="#4C2C57" stroke-width="2" stroke-miterlimit="10"/>
<path d="M6 1L1 6V24H7V29L12 24H16L25 15V1H6ZM23 14L19 18H15L11.5 21.5V18H7V3H23V14Z" fill="white"/>
<path d="M20 6.5H18V12.5H20V6.5Z" stroke="#4C2C57" stroke-width="2" stroke-miterlimit="10"/>
<path d="M20 6.5H18V12.5H20V6.5Z" fill="white"/>
<path d="M14.5 6.5H12.5V12.5H14.5V6.5Z" stroke="#4C2C57" stroke-width="2" stroke-miterlimit="10"/>
<path d="M14.5 6.5H12.5V12.5H14.5V6.5Z" fill="white"/>
</g>
<defs>
<clipPath id="clip0_159_296">
<rect width="26" height="31.41" fill="white"/>
</clipPath>
</defs>
</svg>
