<svg width="30" height="21" viewBox="0 0 30 21" fill="none" xmlns="http://www.w3.org/2000/svg">
<g clip-path="url(#clip0_159_284)">
<path d="M28.72 5C28.5864 4.0383 28.2038 3.12821 27.61 2.36C26.8425 1.65819 25.84 1.26931 24.8 1.27C20.88 1 15 1 15 1C15 1 9.12 1 5.2 1.27C4.15597 1.27749 3.15293 1.67728 2.39 2.39C1.80099 3.14965 1.41859 4.0488 1.28 5C1.10462 6.43685 1.01113 7.88252 1 9.33V11.33C1.01252 12.7641 1.106 14.1964 1.28 15.62C1.41358 16.5817 1.79623 17.4918 2.39 18.26C3.26169 18.9781 4.35081 19.3799 5.48 19.4C7.72 19.6 15 19.67 15 19.67C15 19.67 20.88 19.67 24.8 19.39C25.844 19.3825 26.8471 18.9827 27.61 18.27C28.2038 17.5018 28.5864 16.5917 28.72 15.63C28.8945 14.2065 28.988 12.7741 29 11.34V9.34C28.9892 7.88919 28.8958 6.44017 28.72 5ZM12.11 13.78V6.32L19.67 10.06L12.11 13.78Z" stroke="#4C2C57" stroke-width="2" stroke-miterlimit="10"/>
<path d="M28.72 5C28.5864 4.0383 28.2038 3.12821 27.61 2.36C26.8425 1.65819 25.84 1.26931 24.8 1.27C20.88 1 15 1 15 1C15 1 9.12 1 5.2 1.27C4.15597 1.27749 3.15293 1.67728 2.39 2.39C1.80099 3.14965 1.41859 4.0488 1.28 5C1.10462 6.43685 1.01113 7.88252 1 9.33V11.33C1.01252 12.7641 1.106 14.1964 1.28 15.62C1.41358 16.5817 1.79623 17.4918 2.39 18.26C3.26169 18.9781 4.35081 19.3799 5.48 19.4C7.72 19.6 15 19.67 15 19.67C15 19.67 20.88 19.67 24.8 19.39C25.844 19.3825 26.8471 18.9827 27.61 18.27C28.2038 17.5018 28.5864 16.5917 28.72 15.63C28.8945 14.2065 28.988 12.7741 29 11.34V9.34C28.9892 7.88919 28.8958 6.44017 28.72 5ZM12.11 13.78V6.32L19.67 10.06L12.11 13.78Z" fill="white"/>
</g>
<defs>
<clipPath id="clip0_159_284">
<rect width="30" height="20.67" fill="white"/>
</clipPath>
</defs>
</svg>
